<?xml version="1.0" encoding="utf-8"?>
<!-- Generator: Adobe Illustrator 27.3.1, SVG Export Plug-In . SVG Version: 6.00 Build 0)  -->
<svg version="1.1" id="Layer_1" xmlns="http://www.w3.org/2000/svg" xmlns:xlink="http://www.w3.org/1999/xlink" x="0px" y="0px"
	 viewBox="0 0 1107.7 54.3" style="enable-background:new 0 0 1107.7 54.3;" xml:space="preserve">
<style type="text/css">
	.st0{fill:#FF7E00;}
</style>
<g id="QED3pE.tif">
	<g>
		<g>
			<path class="st0" d="M855.6,12.5c0,0.3,0,0.4,0,0.5c-0.2,0.8-0.5,1.5-0.7,2.3c-5.3,0-10.6,0-16,0c-1.5,4.6-3.1,9.3-4.6,13.9
				c-4,0-7.9,0-12.1,0c0.1-0.4,0.2-0.9,0.3-1.3c1.2-3.6,2.4-7.3,3.6-10.9c0.2-0.5,0.3-0.9,0.4-1.4c-1.1-0.3-9.2-0.4-10.5-0.1
				c-0.1,1.1-0.1,2.2-0.4,3.3c-0.8,3.9-2.9,7.1-5.8,9.8c-0.3,0.3-0.9,0.4-1.4,0.4c-3.2,0-6.4,0-9.6,0c-6.5,0-13,0-19.5,0
				c-0.7,0-1.5,0-2.2,0c-1.1-2.6-1.1-5.1-0.3-7.7c1.1-3.3,3-6.1,5.6-8.5c0.4-0.4,0.9-0.6,1.5-0.6c0.2,0,0.5,0,0.7,0
				c23.1,0,46.3,0,69.4,0C854.6,12.5,855.1,12.5,855.6,12.5z M805.4,14.7c-4.7,0-9.3,0-14.1,0c-1.3,3.8-2.6,7.6-3.9,11.6
				c0.4,0.1,0.6,0.1,0.8,0.1c4.2,0,8.4,0,12.6,0c0.7,0,1-0.3,1.3-0.9c1.1-3.3,2.2-6.6,3.2-10C805.3,15.3,805.3,15,805.4,14.7z"/>
			<path class="st0" d="M70.8,22.3c-1.6,1.1-3.2,2.3-4.8,3.4c-2.3,1.7-4.8,3.2-7,5c-2.2,1.7-4.8,1.2-6.5,0c-0.7-0.6-1.4-1.3-2.2-2
				c3.8-2.8,7.5-5.4,11.2-8.1c-0.9-0.8-1.8-1.5-2.8-1.9c-3.8-1.4-7.4-1.3-10.7,1.4c-3.2,2.7-4.2,6.2-3.6,10.2c0.6,3.7,2.8,6.3,6,7.9
				c3,1.5,6.2,1.5,9.3-0.2c2-1.1,3.6-2.6,4.5-4.8c0.2-0.5,0.5-0.8,1-0.8c2,0,4.1,0,6.2,0c-0.1,0.5-0.1,0.8-0.2,1.1
				C68.9,42,60,47.2,51.9,45.6c-7-1.4-11.5-5.8-13.7-12.4C35.6,25.3,39.3,17,46.3,13c3.7-2.1,7.7-2.6,11.8-1.6
				c6,1.4,10.1,5,12.6,10.6C70.8,21.9,70.8,22,70.8,22.3z"/>
			<path class="st0" d="M128.3,45.7c0-0.6,0-1,0-1.5c0-5.2,0-10.3,0-15.5c0-1.8-0.3-3.6-1-5.2c-1.1-2.6-3-4.2-5.9-4.6
				c-2.3-0.3-4.6-0.3-6.8,0.3c-0.5,0.1-1,0.3-1.4,0.4c-2.1,0.8-2.2,0.9-2.2,3.2c0,5.7,0,11.3,0,17c0,3-1.1,4.5-4,5.4
				c-0.9,0.3-1.8,0.4-2.8,0.6c-0.3-1.1-0.4-30.7-0.2-33.5c0.3,0.1,0.5,0.1,0.8,0.2c2.1,1,4.3,1.1,6.6,0.4c2.7-0.9,5.6-1.4,8.5-1.3
				c3.5,0.1,6.8,0.8,9.6,2.9c2.8,2,4.4,4.9,5.1,8.2c0.3,1.4,0.5,2.9,0.5,4.3c0.1,4.5,0,8.9,0,13.4c0,1.7-0.7,3-2.2,4
				C131.7,45.2,130.1,45.5,128.3,45.7z"/>
			<path class="st0" d="M734.9,12.5c4.1,0,8,0,12,0c0.1,0.2,0.2,0.5,0.3,0.7c1.2,3.3,2.4,6.6,3.7,10c0.4,1,0.4,1,1.5,1.1
				c1.2,0,2.3,0,3.5,0c0.5,0,0.9-0.1,1.3-0.5c3.5-3.4,7.1-6.8,10.6-10.2c0.7-0.7,1.5-1.1,2.5-1c3,0.1,5.9,0,8.9,0c0.4,0,0.8,0,1.5,0
				c-0.4,0.5-0.6,0.7-0.9,1c-3.3,3.2-6.7,6.4-10,9.6c-2,1.9-3.9,3.7-5.8,5.6c-0.5,0.5-1,0.7-1.7,0.7c-6.7,0-13.4,0-20.1,0
				c-1.2,0-1.2,0-1.6-1c-1.8-4.9-3.6-9.8-5.4-14.6C735.1,13.3,735.1,13,734.9,12.5z"/>
			<path class="st0" d="M676.2,29.2c0.1-0.4,0.1-0.6,0.2-0.8c1.6-4.9,3.3-9.9,4.9-14.8c0.4-1.1,0.4-1.1,1.6-1.1
				c10.5,0,21.1,0,31.6,0c1.3,0,1.3,0,1.7,1.2c1.1,3.1,0.6,6.2-0.8,9.1c-0.1,0.2-0.5,0.4-0.8,0.5c-0.2,0.1-0.5,0-0.7,0
				c-5.8,0-11.6,0-17.4,0c-0.3,0-0.6,0-1-0.1c0.3-1,0.6-1.8,0.9-2.7c3,0,5.9,0,8.9,0c0.6-1.9,1.2-3.7,1.8-5.6c-5,0-9.9,0-14.8,0
				c-0.1,0.3-0.3,0.7-0.4,1.1c-1.3,4-2.6,8-4,12c-0.5,1.4-0.2,1.4-1.9,1.4c-3,0-6.1,0-9.1,0C676.8,29.3,676.6,29.3,676.2,29.2z"/>
			<path class="st0" d="M76.3,45.6c0-11.2,0-22.3,0-33.5c0.4,0.2,0.8,0.3,1.1,0.4c1.8,0.7,3.7,0.9,5.6,0.4c1-0.3,2-0.6,3-0.8
				c1.8-0.3,3.7-0.6,5.6-0.7c2.5-0.1,4.8,0.6,6.9,1.7c0.7,0.4,0.9,0.8,0.9,1.6c0,1.7,0,3.3,0,5c0,0.2,0,0.5-0.1,0.7
				c-0.2,0-0.3,0-0.4,0c-3.3-1.8-6.8-2.3-10.5-1.9c-1.5,0.2-3,0.8-4.3,1.5c-0.7,0.4-0.9,0.9-0.9,1.6c0,4.4,0,8.7,0,13.1
				c0,1.7,0,3.4,0,5.1c0,2.4-1.2,4-3.4,4.9C78.8,45.4,77.6,45.7,76.3,45.6z"/>
			<path class="st0" d="M1067.5,29.9c2.2,0,4.5,0,6.9,0c-0.6,1.1-1.1,2-1.6,3c-5.3,0-10.6,0-16.2,0c4.4-3.8,8.6-7.4,12.9-11.1
				c-0.4-0.1-0.6-0.2-0.8-0.2c-2.6,0-5.2,0-7.7-0.1c-0.8,0-1.4,0.2-1.8,1c-1.2,2.3-2.6,4.5-3.9,6.7c-0.7,1.1-1.5,2.1-2.6,2.8
				c-1,0.6-2,0.9-3.2,0.9c-3.1,0-6.2,0-9.2,0c-0.3,0-0.7,0-1-0.1c-1.2-0.2-1.7-1.1-1.3-2.2c0.1-0.4,0.3-0.8,0.6-1.1
				c2-3.4,4.1-6.9,6-10.3c0.3-0.5,0.6-0.7,1.1-0.7c1.5,0,3,0,4.8,0c-1.2,2.1-2.2,3.9-3.3,5.7c-1.1,1.8-2.2,3.6-3.3,5.7
				c1.1,0,1.9,0,2.7,0c0.9,0,1.9,0.2,2.6-0.2c0.7-0.4,1.1-1.4,1.5-2.2c1.6-2.7,3.2-5.4,4.8-8.2c0.4-0.7,0.8-0.8,1.5-0.8
				c4.3,0,8.6,0,12.9,0c3.1,0,6.2,0,9.4,0c-0.4,1-1.3,1.4-1.9,2s-1.3,1.2-1.9,1.8c-0.7,0.6-1.3,1.2-2,1.9c-0.7,0.6-1.3,1.2-2,1.9
				c-0.6,0.6-1.3,1.2-1.9,1.8c-0.7,0.6-1.3,1.2-2,1.9C1067.4,29.7,1067.4,29.8,1067.5,29.9z"/>
			<path class="st0" d="M967.1,32.9c2.2-3.9,4.3-7.5,6.6-11.3c-0.6,0-1-0.1-1.4-0.1c-1.3,0-2.7,0-4,0c-0.7,0-1.1,0.2-1.5,0.8
				c-1.9,3.3-3.8,6.5-5.7,9.7c-0.4,0.6-0.8,0.9-1.5,0.8c-1.9,0-3.7,0-5.7,0c-0.3-2.9-0.6-5.7-1-8.6c-0.1,0-0.2-0.1-0.3-0.1
				c-1.7,2.8-3.3,5.7-5.1,8.6c-1.8,0-3.5,0-5.4,0c0.1-0.3,0.2-0.5,0.3-0.8c2.5-4.3,5-8.5,7.5-12.8c0.3-0.5,0.5-0.8,1.1-0.8
				c1.9,0,3.7,0,5.6,0c0.2,0,0.3,0.1,0.5,0.1c0.3,2.8,0.6,5.5,0.8,8.3c0.1,0,0.2,0.1,0.3,0.1c0.2-0.3,0.4-0.5,0.6-0.8
				c1.3-2.3,2.7-4.6,4-6.9c0.3-0.5,0.5-0.8,1.1-0.8c7,0,14.1,0,21.1,0c0.2,0,0.3,0.1,0.7,0.1c-0.5,0.9-0.9,1.8-1.4,2.6
				c-0.2,0.2-0.6,0.4-0.9,0.4c-1,0-1.9,0-2.9-0.1c-0.9-0.1-1.5,0.2-2,1.1c-1.8,3.2-3.7,6.3-5.5,9.5c-0.4,0.6-0.8,0.9-1.5,0.8
				C970.2,32.9,968.7,32.9,967.1,32.9z"/>
			<path class="st0" d="M22.3,6c1.9,0,3.2,0.5,4.2,2c0.5,0.8,1,1.6,1.4,2.4c0.4,0.8,0.8,1.1,1.7,1.1c2.5-0.1,4.9,0,7.4,0
				c0.4,0,0.8,0,1.3,0c0,1-0.4,1.6-0.8,2.2c-0.9,1.2-2.1,2.2-3.4,2.9c-1.4,0.7-2.9,1.3-4.4,2c0,0.1-0.1,0.2-0.1,0.3
				c0,4.1-0.2,8.3,0.1,12.4c0.3,5.4,2.8,9.7,7,13.2c0.4,0.3,0.8,0.6,1.2,1.2c-0.6-0.1-1.3-0.1-1.9-0.2c-2.4-0.4-4.7-1.2-6.9-2.4
				c-4.1-2.3-6.1-5.9-6.5-10.6c0-0.5-0.1-1-0.1-1.5c0-7.9,0-15.7,0-23.6C22.3,6.9,22.3,6.5,22.3,6z"/>
			<path class="st0" d="M603,36.5c3.4-7.9,6.7-15.6,10.1-23.5c0.3,0,0.7-0.1,1-0.1c3.7,0,7.3,0,11,0c2.5,0,3.4,1.2,2.4,3.6
				c-1.2,2.9-2.4,5.7-3.7,8.5c-1.2,2.7-2.3,5.4-3.5,8.1c-0.3,0.7-0.6,1.4-1.1,2c-0.6,0.9-1.5,1.5-2.6,1.5c-4.4,0-8.8,0-13.2,0
				C603.3,36.6,603.2,36.6,603,36.5z M608.9,34.8c1.3,0,2.4-0.1,3.4,0c1.4,0.1,2.2-0.5,2.7-1.7c0.6-1.5,1.3-3,2-4.4
				c1.5-3.5,3.1-7,4.6-10.5c0.3-0.7,0.5-1.4,0.6-2.1c0.1-0.7-0.2-1-0.9-1c-1.2,0-2.5,0-3.8,0C614.6,21.5,611.8,28,608.9,34.8z"/>
			<path class="st0" d="M547,13.2c-0.7,7.9-1.3,15.7-2,23.6c-1.7,0.1-3.3,0.1-5.1,0.1c0.3-3.2,0.7-6.3,1-9.6c-1.5,0-2.9,0-4.2,0
				c-0.3,0-0.6,0.5-0.9,0.8c-1.4,2.1-2.8,4.2-4.2,6.3c-0.4,0.6-0.7,1.2-1.2,1.8c-0.2,0.3-0.6,0.6-1,0.6c-1.4,0.1-2.7,0-4.2,0
				c0.2-0.4,0.3-0.6,0.5-0.8c4.7-6.9,9.4-13.7,14.1-20.6c1-1.5,2.2-2.3,4.1-2.2C544.8,13.2,545.8,13.2,547,13.2z M541,25.4
				c0.2-1.9,0.4-3.6,0.6-5.4c-0.1,0-0.2-0.1-0.3-0.1c-1,1.8-2.1,3.5-3.2,5.5C539.2,25.4,540,25.4,541,25.4z"/>
			<path class="st0" d="M362.7,27.6c0-4.5,0-9,0-13.6c1.7,0,3.3,0,4.9,0c0.3,1,0.4,23.7,0,25c-5.3-4.8-10.4-10-15.9-15
				c0,4.9,0,9.4,0,14.1c-1.7,0-3.3,0-4.9,0c-0.3-0.9-0.3-23.4-0.1-25.3c5.3,5,10.5,10,15.7,14.9C362.5,27.7,362.6,27.6,362.7,27.6z
				 M348.4,16.7c0,6.7,0,13.2,0,19.7c0.5,0,0.9,0,1.5,0c0-0.5,0-1,0-1.4c0-4.4,0-8.8,0-13.2c0-0.5-0.1-1,0.2-1.6
				c5.3,5,10.5,10,15.9,15.1c0-6.7,0-13.2,0-19.6c-0.5,0-0.9,0-1.5,0c0,5.4,0,10.7,0,16.3c-2.8-2.7-5.5-5.1-8.1-7.6
				C353.8,21.8,351.3,19.2,348.4,16.7z"/>
			<path class="st0" d="M470.6,36.8c-1.7,0-3.3,0-4.9,0c0.1-0.4,0.2-0.6,0.3-0.9c3.2-7.2,6.4-14.5,9.6-21.7c0.3-0.8,0.7-1.1,1.6-1.1
				c3.2,0.1,6.3,0,9.5,0c0.4,0,0.8,0,1.2,0.1c1.3,0.2,1.9,1.2,1.7,2.5c-0.1,0.5-0.2,1-0.4,1.4c-1,2.3-2,4.7-3,7
				c-0.9,2.2-2.4,3.2-4.7,3.5c-2.1,0.2-4.2,0.6-6.3,0.9c-0.7,0.1-1.2,0.4-1.5,1.1C472.7,32,471.6,34.4,470.6,36.8z M475.1,26.7
				c1.2-0.2,2.1-0.4,3-0.5c1.1-0.1,1.8-0.7,2.3-1.5c0.3-0.5,0.6-1,0.8-1.5c0.8-2,1.7-4,2.5-6c0.1-0.3,0.2-0.7,0.3-1.1
				c0.1-0.9-0.2-1.3-1.1-1.4c-0.5,0-1,0-1.5,0c-0.8-0.1-1.3,0.3-1.6,1c-0.9,2.3-1.9,4.5-2.9,6.8C476.3,23.8,475.8,25.1,475.1,26.7z"
				/>
			<path class="st0" d="M727.5,29.2c-4,0-7.9,0-11.8,0c0-0.9,3.2-10.9,5.3-16.7c3.9,0,7.9,0,12.1,0
				C731.2,18.1,729.4,23.6,727.5,29.2z"/>
			<path class="st0" d="M247.8,14c1.7,0,3.3,0,5,0c0,0.4,0.1,0.7,0.1,1c0,4.4-0.1,8.7-0.1,13.1c0,0.7,0,1.4,0.1,2.1
				c0.3,2,1.6,3.1,3.8,3.3c1.7,0.1,3.3-1,3.7-2.7c0.2-0.8,0.3-1.7,0.3-2.6c0-4.2,0-8.5,0-12.7c0-0.5,0-0.9,0-1.5c1.7,0,3.4,0,5.1,0
				c0,0.3,0.1,0.6,0.1,0.9c0,4.7,0,9.3,0,14c0,0.9-0.1,1.8-0.3,2.6c-0.9,4.3-5.1,7.3-9.5,6.9c-4.6-0.4-8.2-3.9-8.3-8.3
				c-0.1-5.2,0-10.4,0-15.6C247.7,14.4,247.8,14.3,247.8,14z M249.6,15.9c0,0.5-0.1,0.9-0.1,1.2c0,4.3,0,8.6,0,12.9
				c0,1.1,0.3,2.1,0.9,3.1c1.6,2.9,5,4.3,8.3,3.5c3.5-0.9,5.5-3.9,5.5-6.9c-0.1-4.3,0-8.6,0-12.9c0-0.3-0.1-0.6-0.1-0.9
				c-0.5,0-0.9,0-1.4,0c0,0.5-0.1,0.9-0.1,1.4c0,3.7,0,7.5,0,11.2c0,1.1-0.2,2.2-0.5,3.3c-0.5,2-2.9,3.5-5,3.5
				c-2.2,0.1-4.3-1.2-5.2-3.2c-0.6-1.2-0.7-2.6-0.7-3.9c0-3.7,0-7.3,0-11c0-0.4,0-0.9-0.1-1.3C250.5,15.9,250.1,15.9,249.6,15.9z"/>
			<path class="st0" d="M1033.7,28.2c0.8,1.6,1.5,3,2.2,4.6c-2,0-3.9,0-5.9,0c-0.5-1.2-1-2.4-1.5-3.5c-0.2-0.5-0.4-1-1.1-1.1
				c-0.7,0-0.9,0.4-1.2,0.9c-0.7,1.3-1.5,2.5-2.2,3.7c-1.8,0-3.6,0-5.5,0c0.1-0.3,0.2-0.5,0.3-0.8c2.5-4.3,5-8.6,7.5-13
				c0.3-0.4,0.6-0.7,1.1-0.7c3.9,0,7.8,0,11.7,0c1.5,0,2.2,1,1.5,2.4c-0.9,1.8-2,3.5-3.1,5.1c-0.6,0.9-1.7,1.5-2.8,1.8
				C1034.6,27.9,1034.2,28,1033.7,28.2z M1028.6,25c1.5,0,2.6,0,3.8,0c0.2,0,0.4-0.1,0.6-0.2c0.4-0.3,1.5-2.6,1.6-3.2
				c-1.1,0-2.2,0-3.4,0c-0.3,0-0.7,0.2-0.8,0.4C1029.8,22.8,1029.3,23.8,1028.6,25z"/>
			<path class="st0" d="M997.7,32.9c-7,0-14,0-21.2,0c0.3-0.3,0.4-0.5,0.6-0.7c4-3.5,8-7,12-10.6c0.9-0.8,1.9-1.6,2.8-2.5
				c0.5-0.5,1-0.6,1.7-0.6c1.4,0,2.7,0,4.1,0C997.9,19.5,997.9,31.1,997.7,32.9z M992,29.8c0.4-1.4,0.5-5,0.2-5.9
				c-0.9,0.4-6.1,5-6.6,6C987.8,29.9,989.9,29.9,992,29.8z"/>
			<path class="st0" d="M941.6,32.8c-7.1,0-14.1,0-21.3,0c0.3-0.3,0.4-0.4,0.5-0.5c5-4.4,10-8.8,15-13.2c0.3-0.3,0.7-0.5,1.1-0.6
				c1.5-0.1,3.1,0,4.6,0C941.7,19.5,941.8,29.3,941.6,32.8z M936.3,24c-0.1-0.1-0.2-0.1-0.3-0.2c-0.7,0.6-1.5,1.3-2.2,1.9
				c-0.7,0.7-1.5,1.3-2.2,2c-0.7,0.6-1.4,1.3-2.3,2.1c2.4,0,4.6,0,6.8,0C936.2,27.7,936.3,25.8,936.3,24z"/>
			<path class="st0" d="M596.4,25.7c-0.3,0.7-0.7,1.4-1,2.2c-0.7,1.7-1.5,3.4-2.2,5.2c-0.6,1.6-0.4,1.8,1.3,1.9c1.7,0,3.3,0,5,0
				c0.4,0,0.8,0,1.3,0.1c-0.1,0.4-0.2,0.7-0.3,1c-0.2,0.6-0.6,0.9-1.2,0.8c-0.1,0-0.2,0-0.2,0c-3,0-5.9,0-8.9,0
				c-0.6,0-1.2-0.1-1.7-0.2c-1.1-0.2-1.5-0.8-1.3-1.9c0.1-0.7,0.4-1.4,0.7-2c1.9-4.4,3.7-8.7,5.6-13.1c0.6-1.3,1.1-2.6,1.7-3.9
				c0.8-1.8,2-2.7,4.1-2.7c3.1,0.1,6.2,0,9.4,0c0.5,0,1,0,1.5,0c-0.2,1.4-0.3,1.5-1.5,1.5c-1.8,0-3.6,0-5.4,0c-1.5,0-2.4,0.6-3,1.9
				c-0.9,2.2-1.9,4.4-2.8,6.7c-0.1,0.2-0.1,0.4-0.2,0.7c2.2,0,4.3,0,6.4,0c-0.4,1.7-0.4,1.7-1.9,1.7
				C599.9,25.7,598.2,25.7,596.4,25.7z"/>
			<path class="st0" d="M501.4,23.9c-0.6,1.7-0.6,1.7-2.1,1.7s-3,0-4.5,0c-0.5,0-0.9,0-1.2,0.6c-0.9,2.1-1.8,4.2-2.7,6.3
				c-0.2,0.4-0.3,0.9-0.4,1.3c-0.1,0.5,0.1,0.8,0.6,0.9c0.3,0.1,0.7,0.1,1,0.1c1.7,0,3.3,0,5,0c0.4,0,0.8,0,1.4,0
				c-0.2,0.5-0.3,0.8-0.4,1.2c-0.2,0.6-0.5,0.8-1.1,0.8c-3.4,0-6.7,0-10.1,0c-0.3,0-0.6,0-0.9-0.1c-1-0.2-1.5-0.9-1.3-1.9
				c0.1-0.6,0.3-1.1,0.5-1.7c2.4-5.6,4.8-11.2,7.2-16.9c0.1-0.3,0.3-0.6,0.4-0.9c0.7-1.5,1.8-2.2,3.4-2.2c3.6,0,7.2,0,10.9,0
				c0.2,0,0.3,0,0.5,0.1c-0.4,1.4-0.4,1.4-1.7,1.4c-1.7,0-3.3,0-5,0c-1.6,0-2.7,0.6-3.3,2.1c-0.9,2.2-1.8,4.3-2.7,6.4
				c-0.1,0.2-0.1,0.4-0.2,0.7C497,23.9,499.1,23.9,501.4,23.9z"/>
			<path class="st0" d="M586.5,15.2c-0.9-0.5-1.8-0.2-2.7-0.3c-0.9,0-1.8,0-2.7,0s-1.8,0-2.9,0c0.2-0.6,0.3-1.1,0.5-1.7
				c0.4,0,0.8-0.1,1.1-0.1c3.6,0,7.2,0,10.9,0c0.7,0,1.6-0.2,1.9,0.7c0.3,0.8-0.3,1.4-0.8,2c-5.2,5.6-10.5,11.3-15.7,16.9
				c-0.5,0.5-1.1,1-1.1,1.9c0.4,0,0.9,0.1,1.3,0.1c2.2,0,4.3,0,6.5,0c0.5,0,0.9,0,1.5,0c-0.2,0.5-0.3,0.8-0.4,1.2
				c-0.2,0.6-0.6,0.7-1.1,0.7c-4.1,0-8.2,0-12.2,0c-0.2,0-0.5,0-0.7-0.1c-1.4-0.2-1.7-0.9-0.9-2.1c0.2-0.3,0.4-0.5,0.6-0.8
				c5-5.4,10-10.8,15.1-16.2C585.3,16.9,586.1,16.2,586.5,15.2z"/>
			<path class="st0" d="M927.8,18.6c-0.5,0.9-0.9,1.7-1.4,2.5c-0.3,0.5-0.8,0.4-1.2,0.4c-2.6,0-5.2,0.1-7.9,0
				c-0.8,0-1.3,0.2-1.7,0.9c-0.2,0.5-0.5,0.9-0.8,1.5c0.4,0,0.7,0.1,0.9,0.1c1.6,0,3.2,0,4.9,0c0.4,0,0.8,0,1.1,0.1
				c1.3,0.2,1.9,1.1,1.3,2.3c-0.6,1.3-1.3,2.6-2.2,3.8c-1.3,1.7-3.1,2.6-5.3,2.6c-3.4,0-6.8,0-10.2,0c-0.4,0-0.7,0-1.2,0
				c0.3-1.1,0.9-1.9,1.5-2.7c0.2-0.2,0.7-0.3,1.1-0.3c2,0,3.9,0,5.9,0c0.7,0,1.3,0,2,0c0.8,0,1.3-0.3,1.6-0.9c0.2-0.5,0.5-1,0.9-1.7
				c-0.6-0.1-0.9-0.1-1.3-0.1c-1.7,0-3.5,0-5.2,0c-0.4,0-0.8,0-1.1-0.1c-0.7-0.2-1.1-1-0.8-1.9c0.9-2.2,2-4.3,4-5.7c1-0.6,2-1,3.2-1
				c3.7,0,7.5,0,11.2,0C927.3,18.5,927.4,18.5,927.8,18.6z"/>
			<path class="st0" d="M472.9,13.2c-0.2,0.6-0.4,1-0.6,1.6c-1.3,0-2.5,0-3.8,0c-1.2,0-2.5,0-3.7,0c-0.8,0-1.5,0.2-1.9,0.9
				c-0.7,1.3-1.4,2.6-2,4c-0.3,0.8,0.1,1.6,0.7,2.1c1,0.9,2,1.8,3,2.7c2.3,2,2.4,2.6,1.3,5.4c-0.6,1.5-1.2,2.9-1.9,4.4
				c-0.8,1.7-2,2.5-3.9,2.5c-3.6,0-7.2,0-10.7,0c-0.3,0-0.6-0.1-1-0.1c0.2-0.4,0.3-0.7,0.4-1c0.3-0.7,0.8-0.9,1.5-0.9
				c1.9,0,3.8-0.1,5.7,0c1.6,0.1,2.5-0.5,3.1-1.9c0.5-1.3,1.2-2.5,1.7-3.8c0.7-1.7,0.5-2.4-0.9-3.6c-1.1-1-2.3-2-3.4-3
				s-1.2-1.5-0.7-2.9c0.6-1.5,1.3-3.1,1.9-4.6c0.5-1.1,1.3-1.7,2.5-1.9c0.7-0.1,1.3-0.1,2-0.1c3.2,0,6.5,0,9.7,0
				C472.3,13.2,472.5,13.2,472.9,13.2z"/>
			<path class="st0" d="M515.1,35c0,0.3-0.1,0.5-0.1,0.6c-0.3,1.2-0.3,1.2-1.6,1.2c-3.1,0-6.2,0-9.2,0c-0.5,0-1.1,0-1.6-0.2
				c-1-0.2-1.3-0.7-1.2-1.7c0.1-0.4,0.2-0.9,0.4-1.3c2.6-6,5.2-12.1,7.8-18.1c0.6-1.4,1.6-2.1,3-2.3c0.4,0,0.7-0.1,1.1-0.1
				c3.4,0,6.7,0,10.1,0c0.2,0,0.5,0,0.7,0c-0.2,1.5-0.4,1.6-1.8,1.6c-1.8,0-3.7,0.1-5.5,0c-1.4-0.1-2.2,0.5-2.8,1.8
				c-1.5,3.6-3.1,7.1-4.6,10.7c-0.8,1.8-1.5,3.5-2.3,5.3c-0.1,0.2-0.1,0.3-0.2,0.5c-0.6,1.6-0.4,2,1.3,2c1.8,0,3.7,0,5.5,0
				C514.4,34.9,514.7,34.9,515.1,35z"/>
			<path class="st0" d="M559.1,34.9c-0.2,0.5-0.3,0.8-0.4,1.2c-0.2,0.5-0.5,0.7-1,0.7c-2.7,0-5.5,0.1-8.2-0.1
				c-2.1-0.1-2.6-0.9-1.9-2.9c0.5-1.4,1.2-2.8,1.8-4.3c2.3-5.2,4.5-10.4,6.8-15.6c0.1-0.2,0.2-0.5,0.3-0.8c1.6,0,3.3,0,5,0
				c-0.1,0.3-0.2,0.6-0.3,0.9c-2.5,5.9-5,11.7-7.5,17.6c-0.2,0.5-0.5,1.1-0.6,1.6c-0.3,1.1,0,1.5,1.1,1.5c1,0.1,1.9,0,2.9,0
				C557.7,34.9,558.3,34.9,559.1,34.9z"/>
			<path class="st0" d="M375.8,38.1c4.1-8.5,8.2-16.9,12.3-25.5c4,8.6,7.9,16.9,11.8,25.5c-1.8,0-3.4,0-5,0c-0.3,0-0.6-0.4-0.8-0.6
				c-0.6-1.1-1.1-2.2-1.6-3.4c-0.3-0.7-0.8-1-1.5-0.9c-2.1,0-4.2,0-6.2,0c-0.8,0-1.2,0.2-1.5,0.9c-0.5,1.2-1.1,2.3-1.6,3.4
				c-0.2,0.3-0.5,0.7-0.8,0.7C379.2,38.2,377.6,38.1,375.8,38.1z M397.3,36.2c-3-6.5-6-13-9.2-19.8c-0.5,0.9-0.8,1.6-1.1,2.2
				c-2.7,5.5-5.3,10.9-8,16.4c-0.2,0.4-0.3,0.8-0.5,1.2c1.7,0.2,1.7,0.2,2.3-1.1c0.5-0.9,1-1.9,1.3-2.8c0.3-0.8,0.8-1.1,1.6-1
				c2.8,0.1,5.6,0,8.4,0c0.3,0,0.6,0.1,1,0.1c0.6,1.3,1.2,2.5,1.8,3.8C395.5,36.5,395.6,36.6,397.3,36.2z"/>
			<path class="st0" d="M338.7,38.1c-1.8,0-3.3,0-4.8,0c-0.5,0-0.8-0.2-1.1-0.7c-0.5-1.1-1.1-2.3-1.6-3.4c-0.3-0.7-0.7-0.9-1.4-0.9
				c-2.1,0.1-4.2,0.1-6.4,0c-0.7,0-1.1,0.2-1.4,0.9c-0.5,1.1-1.1,2.2-1.6,3.2c-0.3,0.6-0.7,0.9-1.3,0.9c-1.4-0.1-2.9,0-4.6,0
				c4.1-8.5,8.2-16.8,12.3-25.4c2.1,4.3,4,8.5,5.9,12.6C334.7,29.5,336.7,33.7,338.7,38.1z M335.9,36.3c-0.1-0.9-8.2-18.4-9.1-19.6
				c-1.6,3.3-3.2,6.5-4.7,9.8s-3.3,6.4-4.7,9.9c1.7,0.2,1.7,0.2,2.4-1.1c0.5-1,1-1.9,1.4-2.9c0.3-0.6,0.6-0.8,1.2-0.8
				c2.9,0,5.8,0,8.7,0c0.7,0,1,0.3,1.2,0.8c0.4,1,0.9,2,1.4,2.9C334.3,36.5,334.3,36.5,335.9,36.3z"/>
			<path class="st0" d="M1024.1,18.5c-0.6,1-1,1.8-1.5,2.6c-0.2,0.2-0.6,0.4-1,0.4c-2,0-4.1,0.1-6.1,0c-0.9,0-1.5,0.2-2,1.1
				c-1.1,2-2.3,4-3.4,6c-0.2,0.3-0.4,0.7-0.6,1.2c1.4,0.3,2.7,0.1,4,0.2c1.3,0,2.6,0,4.1,0c-0.6,1.1-1.1,2-1.6,2.9
				c-0.3,0-0.5,0.1-0.7,0.1c-3.2,0-6.3,0-9.5,0c-2.4,0-3-1-1.8-3.1c1.5-2.8,3.1-5.5,4.8-8.2c1.4-2.2,3.3-3.3,6-3.2
				c2.7,0.1,5.4,0,8.1,0C1023.1,18.5,1023.5,18.5,1024.1,18.5z"/>
			<path class="st0" d="M576.1,13.2c-0.2,0.6-0.3,1-0.5,1.4c-3,6.9-6,13.9-9,20.8c-0.1,0.3-0.2,0.6-0.4,0.8s-0.5,0.5-0.7,0.5
				c-1.5,0-3,0-4.7,0c0.1-0.5,0.2-0.8,0.3-1c3.1-7.2,6.3-14.4,9.4-21.6c0.3-0.6,0.6-1,1.4-1C573.2,13.2,574.6,13.2,576.1,13.2z"/>
			<path class="st0" d="M527.7,13.2c1.7,0,3.3,0,5.1,0c-0.1,0.4-0.2,0.7-0.3,1c-3.1,7.2-6.2,14.4-9.2,21.7c-0.3,0.7-0.7,1-1.5,1
				c-1.3-0.1-2.7,0-3.9,0c-0.1-0.1-0.1-0.1-0.1-0.2c0,0-0.1-0.1,0-0.1C521,28.8,524.3,21,527.7,13.2z"/>
			<path class="st0" d="M220.3,35c1-1.2,2-2.4,3-3.6c0.2,0.3,0.4,0.5,0.6,0.7c1.3,1.5,3,1.8,4.9,1.3c1.1-0.3,1.9-1,2.2-2.1
				c0.3-1,0.4-2,0.4-2.9c0-4.3,0-8.6,0-12.9c0-0.5,0-0.9,0-1.5c1.7,0,3.3,0,5.1,0c0,0.3,0.1,0.6,0.1,0.9c0,4.6,0,9.2,0,13.7
				c0,3.7-1.4,6.6-4.6,8.5c-3.6,2.1-8.5,1.3-11.3-1.8C220.6,35.3,220.5,35.2,220.3,35z M222.5,34.7c0.2,0.2,0.3,0.4,0.5,0.5
				c2.5,2,6.6,2,9.1,0c1.8-1.4,2.8-3.3,2.8-5.6c0-4.3,0-8.6,0-12.9c0-0.3-0.1-0.6-0.1-0.9c-0.5,0-0.9,0-1.4,0.1c0,0.6,0,1,0,1.5
				c0,3.7,0,7.3,0,11c0,1.4-0.3,2.7-0.8,4c-0.6,1.3-1.6,2.3-3,2.6c-2,0.5-3.9,0.4-5.6-1c-0.2-0.1-0.3-0.2-0.5-0.3
				c-0.2,0.1-0.4,0.3-0.5,0.4C222.7,34.3,222.6,34.5,222.5,34.7z"/>
			<path class="st0" d="M282.7,33.2c2.7,0,5.3,0,7.9,0c0,1.7,0,3.2,0,5c-4.3,0-8.5,0-12.9,0c0-8.1,0-16.1,0-24.1c1.7,0,3.2,0,4.9,0
				c0.2,1.6,0.1,3.1,0.1,4.7c0,1.6,0,3.2,0,4.7c0,1.6,0,3.2,0,4.7C282.7,29.8,282.7,31.4,282.7,33.2z M279.5,36.2
				c1.4,0.3,8.4,0.3,9.4-0.1c0-0.4-0.1-0.7-0.1-1.2c-2.6,0-5.2,0-7.8,0c0-6.4,0-12.6,0-18.9c-0.6,0-1,0-1.5,0
				C279.5,22.8,279.5,29.4,279.5,36.2z"/>
			<path class="st0" d="M301.3,14c1.6,0,3.2,0,4.8,0c0,8,0,16,0,24c-1.6,0-3.2,0-4.8,0C301.1,37.2,301,16.2,301.3,14z M304.4,36.3
				c0-6.9,0-13.6,0-20.3c-0.5,0-0.9,0-1.3,0c-0.2,1.9-0.2,19.3,0.1,20.3C303.5,36.3,303.9,36.3,304.4,36.3z"/>
			<path class="st0" d="M824.3,37c0.7,0,1.4,0,2,0c0.3,0,0.6,0.3,0.8,0.5c0.6,0.7,1.3,0.4,2,0.3c0.5-0.1,1-0.3,0.8-1.1
				c-0.4-0.1-0.8-0.2-1.2-0.3c-0.8-0.2-1.6-0.2-2.3-0.5c-1.1-0.3-1.4-1.1-0.9-2.1c0.4-0.8,1-1.3,1.8-1.6c1.5-0.6,3.1-0.5,4.7-0.1
				c0.8,0.2,1.4,0.7,1.4,1.8c-1,0.2-1.9,0.5-2.9-0.3c-0.6-0.5-1.7-0.6-2.3-0.1c-0.2,0.1-0.3,0.4-0.3,0.6c0,0.1,0.3,0.3,0.4,0.4
				c0.4,0.1,0.9,0.2,1.3,0.3c0.8,0.2,1.6,0.3,2.3,0.5c0.8,0.3,1,0.8,0.7,1.6c-0.3,1-1,1.7-2,2.1c-1.7,0.7-3.5,0.6-5.3,0.2
				C824.5,38.8,824.3,38.4,824.3,37z"/>
			<path class="st0" d="M821.7,37.6c-0.2,1.5-0.2,1.5-1.5,1.5c-1.8,0-3.7,0-5.5,0c-0.1,0-0.2-0.1-0.5-0.1c0.7-2.3,1.5-4.6,2.2-7
				c2.3,0,4.6,0,6.9,0c0,0.3,0,0.5,0,0.7s-0.1,0.4-0.2,0.7c-1.2,0-2.5,0-3.7,0s-1.2,0-1.4,1.5c1.4,0,2.7,0,4,0
				c0.1,1.3,0,1.4-1.1,1.5c-1.2,0-2.3,0-3.6,0c-0.1,0.4-0.2,0.8-0.4,1.3C818.6,37.6,820.1,37.6,821.7,37.6z"/>
			<path class="st0" d="M784.1,34.5c-0.2,0-0.5,0.1-0.7,0.1c-0.5,0-1.1,0-1.6,0c-0.3-0.6-0.4-1.3-1.2-1.3c-0.9,0-1.7,0-2.3,0.6
				c-0.8,0.7-1,1.7-1,2.7c0,0.6,0.3,0.9,0.9,1.1c0.9,0.2,1.7,0.1,2.3-0.5c1.1-0.9,1.4-1,2.9-0.5c-0.4,1-1.2,1.7-2.1,2.1
				c-1.5,0.7-3.1,0.8-4.8,0.4c-1.3-0.4-1.9-1.2-1.7-2.6c0.3-2.1,1.3-3.7,3.4-4.4c1.4-0.5,2.8-0.5,4.2-0.2
				C783.7,32.2,784.3,33.1,784.1,34.5z"/>
			<path class="st0" d="M803.8,34.6c-0.8,0-1.5,0-2.4,0c-0.2-0.7-0.6-1.4-1.5-1.3c-1,0.1-2,0.3-2.4,1.3c-0.3,0.6-0.4,1.3-0.6,2
				c-0.1,0.5,0.2,1,0.8,1.1c0.8,0.3,1.8,0.3,2.3-0.4c0.7-0.8,1.4-0.9,2.3-0.8c0.2,0,0.4,0,0.8,0c-0.2,0.8-0.7,1.3-1.3,1.7
				c-1.9,1.2-3.9,1.4-6,0.8c-1-0.3-1.5-1.1-1.4-2.2c0.1-2.3,1.7-4.2,3.9-4.8c1.2-0.3,2.4-0.4,3.6-0.1
				C803.3,32.2,803.9,33,803.8,34.6z"/>
			<path class="st0" d="M786.2,32c1,0,1.7,0,2.5,0c0.3,1,0.5,1.9,0.8,3c0.7-0.8,1.3-1.3,1.7-2c0.8-1.3,2-1.3,3.4-1
				c-0.2,0.3-0.4,0.5-0.5,0.6c-1.2,1.3-2.5,2.5-3.6,3.8c-0.3,0.3-0.5,0.8-0.6,1.2c-0.2,0.5-0.3,0.9-0.5,1.4c-0.7,0-1.4,0-2,0
				c0-0.1-0.1-0.2-0.1-0.3c0.7-1.4,0.4-2.8-0.1-4.2C786.7,33.8,786.5,33,786.2,32z"/>
			<path class="st0" d="M812.4,37.5c-0.4,1.7-0.4,1.7-1.8,1.7c-1.7,0-3.4,0-5.3,0c0.2-0.6,0.3-0.9,0.4-1.3c0.5-1.5,1-3.1,1.5-4.6
				c0.4-1.3,0.4-1.3,1.8-1.3c0.2,0,0.4,0,0.8,0.1c-0.6,1.8-1.1,3.5-1.7,5.4C809.6,37.5,810.9,37.5,812.4,37.5z"/>
			<path class="st0" d="M839.1,25.6c1.2,0,1.8,0.8,1.5,2c-0.3,1.1-1.1,1.7-2.2,1.7c-0.9,0-1.6-0.7-1.5-1.6
				C837,26.6,838,25.6,839.1,25.6z M839.5,28.4c0.8-0.8,1-1.5,0.6-2c-0.3-0.4-1.3-0.4-2,0c-0.6,0.4-0.9,1.3-0.6,1.8
				c0.3,0.7,0.7,0.7,1.7,0.3c-0.2-0.4-0.4-0.8-0.5-1.2c-0.2,0.3-0.3,0.6-0.5,0.9c-0.1,0-0.1,0-0.2-0.1c0.1-0.5,0.3-1,0.4-1.5
				c0.5,0,1,0,1.4,0c0,0.1,0,0.1,0,0.2c-0.2,0.1-0.5,0.2-0.8,0.4C839.2,27.7,839.3,28,839.5,28.4z"/>
			<path class="st0" d="M139.4,42.9c0.6,0.6,0.6,0.6,0,2.4C139.4,44.4,139.4,43.7,139.4,42.9z"/>
			<path class="st0" d="M137.7,45.3c-0.3-0.8,0.2-1.7-0.8-2.3c0.5,0,0.9,0,1.3,0C137.4,43.6,137.9,44.4,137.7,45.3z"/>
			<path class="st0" d="M141.9,45.1c0.1-0.7-1-1.4,0-2.3C141.9,43.7,141.9,44.4,141.9,45.1z"/>
			<path class="st0" d="M1082.8,19.2c0,0.2-0.1,0.4-0.1,0.9c-0.4-0.6-0.7-0.9-1-1.3c0.1-0.1,0.1-0.1,0.2-0.2
				C1082.1,18.8,1082.5,19,1082.8,19.2L1082.8,19.2z"/>
			<path class="st0" d="M1082.8,19.2c0.2-0.2,0.4-0.4,0.6-0.6c0.1,0,0.1,0.1,0.2,0.1c-0.1,0.3-0.1,0.7-0.2,1.1
				C1083.1,19.5,1082.9,19.4,1082.8,19.2L1082.8,19.2z"/>
			<path class="st0" d="M141,44.4c0,0.3-0.1,0.7-0.1,1c-0.4-0.4-0.6-0.7-0.2-1.1C140.8,44.4,140.9,44.4,141,44.4z"/>
			<path class="st0" d="M1080.6,19.5c-0.2-0.7-0.2-0.7,0.2-1.1C1080.7,18.9,1080.7,19.2,1080.6,19.5z"/>
			<path class="st0" d="M622.1,36.7c0,0.2,0,0.5,0,0.7c-0.1,0-0.1,0-0.2,0c0-0.2,0-0.5,0-0.7C621.9,36.7,622,36.7,622.1,36.7z"/>
			<path class="st0" d="M383.5,29.7c1.5-3.1,2.9-6.1,4.4-9.3c1.5,3.2,2.9,6.2,4.3,9.2C391.3,29.9,385.5,30,383.5,29.7z M390,27.9
				c-0.7-1.4-1.3-2.6-1.8-3.8c-0.1,0-0.2,0-0.3,0c-0.6,1.2-1.3,2.5-1.9,3.9C387.3,27.9,388.6,27.9,390,27.9z"/>
			<path class="st0" d="M326.8,20.3c1.5,3.3,2.9,6.2,4.4,9.4c-3,0.2-5.8,0.1-8.7,0C323.7,26.6,325.3,23.6,326.8,20.3z M324.6,27.9
				c1.5,0,2.7,0.1,4.1,0c-0.7-1.4-1.3-2.7-2-4.2C326,25.3,325.3,26.5,324.6,27.9z"/>
		</g>
	</g>
</g>
</svg>
