<?xml version="1.0" encoding="utf-8"?>
<!-- Generator: Adobe Illustrator 27.7.0, SVG Export Plug-In . SVG Version: 6.00 Build 0)  -->
<svg version="1.1" id="Layer_1" xmlns="http://www.w3.org/2000/svg" xmlns:xlink="http://www.w3.org/1999/xlink" x="0px" y="0px"
	 viewBox="0 0 540.4 792" style="enable-background:new 0 0 540.4 792;" xml:space="preserve">
<style type="text/css">
	.st0{fill:#18114A;}
</style>
<g>
	<g>
		<path class="st0" d="M455.3,217.6c2.5-0.4,4.3,0.8,5.9,2.4c19.6,19.7,27.3,42.8,20.6,70.2c-2.8,11.4-0.4,22.5,0.8,33.8
			c2,18.9,8.3,36.7,13.3,54.9c1,3.9,2.7,7.5,4.6,11.1c1.6,3.1,2.9,6.7,7.6,5.6c4.4,5.4,11.6,3.6,16.8,6.6c4.8,2.8,8.8,7.5,8.4,12.7
			c-0.4,5-1.2,10.3-2.6,15.3c-0.8,2.9-3.6,3.9-6.5,4.2c-2.9,0.2-4,1.7-4.2,4.7c-0.7,8.5-1.6,16.9-2.6,25.3c-0.3,3,0.4,5.7,1.3,8.5
			c0.5,1.5,0.9,3.4-0.8,4.3c-2,1-3.4-0.7-4.3-2.1c-2.1-3.6-3.2-7.7-3.4-11.9c-0.1-2.2,0-4.5,0.1-6.7c0.8-10,0.8-9.9-8.9-12.4
			c-2.3-0.6-3.3,0-3.7,2.2c-4.3,23.2-20.5,34.4-41.5,40.3c-4,1.1-4.4,1.7-1.4,4.8c13.7,14.4,20.9,32,24.7,51.2
			c5,24.9,3.6,49.7-1.4,74.4c-8.8,43.4-27.6,82.1-56.5,115.6c-16.9,19.7-36.7,35.9-61.1,45.4c-28.6,11.1-55.9,10.2-79.8-11.5
			c-13.4-12.1-20.8-27.8-25.4-45c-7.9-29.6-6.1-59.3,0.5-88.9c3.4-15.4,8.5-30.1,14.4-44.7c0.6-1.4,2-3.1,0.6-4.4
			c-1.6-1.6-3.6-0.4-5.4,0.2c-1.7,0.5-2.9,1.9-4.1,3.3c-4.3,4.9-8.3,10.3-13.1,14.7c-8.8,8.1-13.3,18.1-14.9,29.8
			c-0.8,5.7-2.4,11.3-4,16.8c-1.7,5.7-3.9,6.8-9.6,5.7c-3.4-0.7-6.9-1.2-10.3-2c-3.5-0.9-5.2,0.1-6,3.9c-2,9.4-7.8,15.4-17.1,18.3
			c-4.9,1.5-9.6,1.5-14.4-1c0.1,2,1.6,2.6,2.6,3.6c6.2,5.9,5,13.7-2.9,16.7c-3.7,1.4-5.1,3.5-6,7.1c-1.7,7-7.9,8.5-12.9,3.2
			c-3.1-3.3-7.4-4.2-11.2-6.2c-1.3-0.7-2.1-0.1-3.1,1.1c-16.7,19-36.9,32.4-62.6,34.3c-19.9,1.5-34.7-8-45-24.8
			c-8.6-14-12-29.6-12.9-45.7C15.3,613,29.8,568,54.3,525.7c11.6-20.1,25.6-38.4,43.4-53.4c14-11.8,29.1-21.5,47.5-24.9
			c5.2-1,10.5-1.6,15.7-0.2c3.3,0.9,4.7-0.5,5.9-3.6c3.6-9.4,2.5-19.2,2.9-28.8c1.2-33.7,5.3-67,12.7-99.9
			c4.2-18.6,10.2-36.7,19.6-53.5c1.3-2.4,2.8-4.6,4.5-6.8c1.8-2.4,3-4.8,2.7-7.9c-0.3-3.9,1.7-6.8,4.8-8.8
			c12.7-8.3,25.5-16.6,38.3-24.8c1.1-0.7,2.7-0.9,4.1-1.2c10.9-1.7,20.5-6.2,28.2-14.1c11.1-11.4,23.2-21.1,38.9-25.5
			c11.2-3.1,22.7-3.7,34.2-1.6c2.3,0.4,3.8,0.9,2.9-2.5c-1.6-5.9-1.5-12-1.2-18.1c0.1-2.5,0-5.1-0.4-7.7c-1.4-8.1,1.7-13.4,9.7-15.8
			c2.4-0.7,4.5-1.5,5.6-4c0.8-1.8,1.8-3.8,4-3.7c2.5,0,2.1,2.8,3.1,4.3c0.4,0.6,0.8,1.3,1.5,1.9c-0.6-5.5-2.5-10.8-1-16.4
			c0.7-2.6,1.7-3.8,4.6-3.7c19.5,0.6,38.1,4.5,55.2,14.3c11.3,6.5,19.3,16,24.8,27.9c-5.9-5.2-11-11.4-18.7-14.5
			c1.7,1.5,3.5,3,5.1,4.5c12.5,11.4,17.9,26.2,19.8,42.6c1,9.1-3.6,16.2-12,19.7c-2.6,1.1-5.3,2-8.1,3.3c4.4-0.3,5,2,4.4,5.5
			C456.2,211.4,455.8,214.5,455.3,217.6c-3.2,4.9-6.5,9.6-9.6,14.5c-2,3.2-4,6.5-3.8,10.5c-3.1,4-4.9,9-9.3,12c4.8-2.7,9-5.9,9.2-12
			c3.2-7.2,7.4-13.7,11.8-20.1C454.7,221.1,455.3,219.5,455.3,217.6z M266.9,522.5c-7.1,3.4-13.1,8.3-19,13.4
			C254.5,531.7,261.6,528.4,266.9,522.5c4.7-2.1,8.2-5.8,12.1-8.9C274.4,515.8,270,518.2,266.9,522.5z M51.7,576.4
			c-0.5,1-1.1,2-1.4,3c-4.4,15.1-8.2,30.3-9.5,46c-1.3,15.6-0.4,31,4.2,46.1c5.4,17.7,19.7,27.5,38.2,26.3
			c6.2-0.4,12.3-0.9,18.1-3.5c-3,3.9-7.8,4.8-11.6,7.2c11.1-1.2,20.1-6.7,28.8-13.1c1.1-0.8,1.1-2.1,1.3-3.5
			c0.5-4.7,2.6-5.8,7.1-3.8c0.7,0.3,1.3,1,2.6,0.1c-3-2.4-6.2-4.4-8.6-7.5c-4-5.1-6.4-11.1-9.3-16.8c-2.1-4.2-4.7-6.2-9.8-5.8
			c-9,0.8-17.9,0.1-26.3-3.9c-3-1.5-4.1-2.9-1.4-6.1c4.3-5.2,8.1-10.7,11.9-16.3c3-4.5,1-8.6-4.3-9.3c-2.6-0.3-5.1-0.4-6.7-3
			c-1.4-2.3-2.6-1.6-3.6,0.5c-0.6,1.3-1.8,2.6-3.4,1.8c-4.2-1.9-8.3-4.5-9.4-9.1c-3.4-14.6,0-28,9.4-39.6c3-3.7,6.5-7.1,11.3-8.7
			c3.5-1.2,6.8-0.9,9,2.2c1.8,2.4,3.2,1.8,5.1,0.3c8.5-7,16.9-14.2,25.7-20.9c7.2-5.4,13.3-11,11.6-21.1c-0.1-0.3,0.1-0.6,0.1-0.9
			c1.1-9,4.4-17.3,8.8-25.2c0.6-1,1.7-2.2,0.6-3.5c-0.9-1-2.1-0.5-3.2-0.2c-4,1-8.1,1.7-12,3.2c-16,6.4-27.9,18-38.5,30.9
			c-13.7,16.6-23.2,35.6-30.9,55.6c-2.8,7.4-3.3,15.3-6,22.7c-0.7,2-0.9,4.5-3.5,5.6C48.8,596.5,49.6,586.3,51.7,576.4
			c1.8-1.3,2.3-3.4,3.2-5.3c4.7-10.5,8.8-21.2,14.7-31.2c11.2-18.9,24.9-35.4,43.2-47.5c8.4-5.6,17.5-10,28.2-9
			c1.8,0.2,3.5-0.4,4.8-1.8c0.8-0.8,1.9-1.6,1.4-2.8c-0.4-1.3-1.8-1.2-2.9-1.1c-3,0.4-6.1,0.6-9,1.2c-18.3,3.9-31.5,15.9-44,28.6
			c-12.6,12.8-21.7,28.1-29.6,44C57.8,559.6,55,568.1,51.7,576.4z M446.9,571.1c1.7,2.7,2,3,2.2,5.6c1.5,19,0.9,37.9-4.9,56.1
			c-7.6,23.9-17.9,46.6-33.4,66.6c-1.8,2.3-3.2,4.9-4.8,7.4c4.7-3.8,7.7-8.7,11-13.4c18.7-26.7,30.5-56,34.9-88.4
			c2.7-20.2,2.3-40.3-4.3-59.8c-5.1-14.9-12.9-27.9-29-33.7c-8.8-3.2-17.7-3.9-26.9-3.2c-4.2,0.3-5.4,1.9-5.3,6
			c0.6,25.9,1,51.9,1.5,77.8c0.2,13.5,0.4,26.9,0.6,40.4c0,2.8,0,5.9-3,7c-3.3,1.2-6.8,1.8-10.3,1.9c-2.7,0.1-2.7-3.2-4.3-4.7
			c-0.8-0.8-1.8-1.3-2.8-1.9c-4-2.1-8-4.1-11.9-6.3c-2.2-1.2-4-1.7-6,0.3c-1.1,1.1-2.6,1.8-3.8,0.4c-3.1-3.7-7.4-6.1-10.1-10.2
			c-1.6-2.5-1.8-4.4,0.7-6.1c1.7-1.2,2.3-3,2.4-5c0.5-9.3,1-18.5,1.6-27.8c1-14,0.8-28.2,2.6-42.1c0.1-1,0.7-2.5-0.7-2.9
			c-1.4-0.5-2.3,0.9-3.2,1.7c-12.5,12.1-23.1,25.7-31.6,40.9c-0.4,0.8-0.6,2.2-2.8,1.9c8.9-19.6,22.2-35.8,36.7-51
			c-19.4,15.2-33.1,34.7-43.9,56.4c-14.3,28.6-22.8,58.8-22,91c0.4,17.7,3.3,34.8,14.4,49.4c7.6,10.1,17.2,17,29.9,19.2
			c18.7,3.2,35-3,50.4-12.9c20.1-12.9,35.2-30.4,47.3-50.9c13-22.2,21.9-45.8,26.1-71.2C446.2,596.9,446.6,584.1,446.9,571.1z
			 M387.9,404.8c9.3-3,17.3,0.6,25.1,4.9c2.9,1.6,6,2.9,9.2,4.2c9,3.5,13.3,12.8,8.2,21.2c-8.2,13.5-15.8,28.3-33.2,32.7
			c-0.3,0.1-0.7,0.1-0.9,0.3c-0.4,0.4-1,0.9-1.1,1.4c-0.1,1,0.9,1.3,1.7,1.3c1.1,0.1,2.2-0.1,3.3-0.2c11.7-0.8,23,0.5,33.6,5.8
			c1.2,0.6,2.6,1.4,3.5,0.2c3.1-3.9,7.5-3.1,11.5-3.3c4.5-0.2,8.9-1.2,13-3c12.7-5.4,21.7-18.1,21.4-29.9c-0.1-3.8-1.4-5.8-5.2-7.4
			c-16.2-6.8-33.1-11.8-49.5-18.1c-7.5-2.8-14.5-6.7-21.8-10C400.6,402.3,394.3,401.2,387.9,404.8z M448.1,374.6
			c-8.1-26.7-12.4-53.2-15-79.9c-0.3-2.9-1.9-2.7-3.9-2.7c-11.9-0.1-22.8,2.9-31.9,10.8c-4.1,3.6-8.9,5.7-14.1,6.9
			c-11.9,2.7-23.7,5.7-33,14.4c-2,1.8-4.3,1.9-6.7,0.9c-7-2.7-14.1-5.1-21.1-7.9c-10-4.1-11.2-7.4-7.1-17.5c1.4-3.5,2.7-7,2.9-10.9
			c-3.1,5.7-6,11.3-8.5,17.2c-2.4,5.7-1.6,8.3,4,10.9c15.8,7.1,32.3,12,49.8,12.4c4.1,0.1,8,0.3,11,3.6c0.9,1,2,1.2,3.5,0.9
			c5.9-1.1,12.8,3,14.9,8.5c0.5,1.4,0.8,2.9-0.2,4.1c-3.3,3.7,0,8.7-2.5,12.6c-0.2,0.4,0.3,1.7,0.8,2.1c5.9,4.7,9.7,11,14.2,16.8
			c0.8,1,2.1,2.8,3.5,1.2c3.4-3.9,8.4-3.8,12.7-5C429.8,371.4,438.7,367.2,448.1,374.6z M227.4,521.8c0.5,0.3,0.9,0.6,1.4,0.9
			c3-5.9,8.9-9,12.1-14.6c1.6-2.6,3.4-3.4,5.7-1c2.1,2.2,4.1,1.6,6.5,0.3c7.3-4.1,14-9.1,19.4-15.5c13.7-16,28.7-30.5,46.2-42.4
			c0.7-0.5,1.8-0.9,1.2-2.6c-25.1-0.2-50.4-0.4-75.6,0.2c-3.4,0.1-5.1,1.9-5.9,5.1c-2.2,8.9-3.2,17.9-4.6,26.9
			C231.6,493.4,229.6,507.6,227.4,521.8z M363.6,501.6c-1.4,2.3-1.4,4.2-1.6,6.1c-1.5,13.5-2.8,27-4.4,40.6
			c-2.2,19.4-4.6,38.8-6.9,58.1c-0.2,1.8-0.9,3.9,1,5.4c6,4.9,12,9.7,19.4,12.3c5.1,1.9,6.6,1.2,6.3-4.2c-0.5-8.3-1.3-16.6-2.1-24.9
			c-2.3-24.9-4.6-49.7-6.9-74.5c-0.1-1.2-0.2-2.4-1.4-2.8c-2.9-1-2.9-3.4-3-5.9C364,508.7,363.8,505.5,363.6,501.6z M309.1,409.1
			c-10-2.4-18.1-7.7-25.3-14.4c-6.7-6.2-13.3-12.5-19.9-18.8c-5.9-5.7-6.3-5.8-9.1,2.1c-3.8,10.8-10.6,20.5-12.3,32.1
			c-0.8,5.7-1.5,11.4-2.8,17c-0.9,4,0.2,5.1,4.2,4.9c34.7-1.4,69.4-2.6,104-4c1,0,2.3,0.5,2.8-1.1c-1.1-2.1-3.3-2.4-5.2-3.1
			c-3.3-1.2-7.8-0.9-9.9-3.1c-4-4.3-7-1.6-10.6-0.3c-6.8,2.5-14,3.3-21.2,3c-4-0.2-5.3-3.1-5.5-6.6c-0.3-3.6,1.3-5.3,4.9-5.6
			C305.2,411.1,307.2,410.9,309.1,409.1z M245.7,546.3c-0.9,3-2.6,3.5-5.2,2.4c-4.6-1.9-9.4-3.4-13.1-6.8c-3-2.8-3.8-1.3-4.3,1.8
			c-2.7,15.9-5.4,31.7-8.2,47.6c-0.3,1.8-0.6,3.7,1.3,4.7c1.8,0.9,3.5,0,4.8-1.2c2.9-2.8,5.6-5.7,8.5-8.4c3.7-3.5,6.3-7.5,6.7-12.8
			c0.2-2.3,1.2-4.6,2-6.9c1.9-5.4,4.3-6.5,9.9-4.7c1,0.4,2.2,1.2,3,0.1c0.7-1-0.3-2.1-0.8-3.1C248.1,555.2,245.9,551.3,245.7,546.3z
			 M100.2,646.8c2,0.6,4.2,0.1,3.7-2.1c-1.3-6.2,2.4-10.5,5.3-14.9c2.8-4.1,2.5-11.1,9.8-11.4c0.1,0,0.3-0.2,0.3-0.3
			c1.3-3.9,4.3-7.4,4.1-11.6c-0.2-3.2-4.4-3.1-6.4-5.1c-1.7-1.7-3.6-1.4-4.8,0.6c-2.4,3.9-6.1,6-10.2,7.5c-1.9,0.7-3.5,2-3.1,4.2
			c0.7,5.4-2,9-5.9,12.3c-2.2,1.8-4.3,4.1-3.4,7.4c0.9,3.1,0.7,5.9-0.9,8.8c-1.5,2.8,0,4.1,2.9,4.2
			C94.5,646.5,97.3,646.6,100.2,646.8z M477.3,415.9c-0.7-2.8-2.2-4.7-4.2-6.2c-8.3-6.4-15.1-13.8-18.2-24.1
			c-0.4-1.3-1.2-2.6-2.8-1.4c-5.4,3.9-12.2,5.4-17.1,10.3c-1.4,1.4-1.9,1.9,0.3,2.9c4,1.7,7.9,3.5,11.7,5.5c9,4.4,18,9,27.1,13.4
			C475.1,416.7,476.8,418.1,477.3,415.9z M68.8,588.9c-0.2-7.7,1.9-9.3,8.3-6.9c0.9,0.3,1.7,1.2,2.6,0.5c1.1-1,0.2-2.1-0.3-3
			c-1.2-2.7-1.8-5,2.2-5.6c1.9-0.3,2.7-1.6,2.5-3.5c-0.2-1.7,0.6-3,1.9-4.2c1-0.9,2.4-2,1.3-3.6c-0.8-1.3-2.3-1.7-3.8-1.7
			c-2.5,0-4.9,0.4-6.8,2C65.9,572.2,60,584,59.9,598.5c0,2.3,0.9,4.4,2.9,5.8c0.9,0.6,1.9,1.5,3,0.7c1.4-0.8,0.5-2,0.1-3
			c-1-2.3-1.8-4.7,0.5-6.6C68.7,593.5,69.3,591.3,68.8,588.9z M98.6,567.9c9.4-4.9,9.4-4.9,19.4-0.5c1.6,0.7,3.4,0.7,5.1,1.1
			c4.6,1.2,6-1.1,6-5.2c0.1-6.1,0.2-12.1,0.3-18.2c0-1.2,0.8-2.8-0.7-3.4c-1.3-0.5-2.3,0.9-3.2,1.7c-8.2,6.6-16.3,13.3-24.5,19.9
			C99.8,564.3,98.3,565.4,98.6,567.9z M186.9,536.6c-8.2,7.8-11.6,16.6-15.6,25.1c-1.6,3.3-5,7.4-4,9.7c1.3,3.2,6.6,1.4,10.1,2.1
			c0.9,0.2,1.9,0.5,2.8,0.7c1.8,0.4,3-0.1,3.5-2.2C186.5,560.8,186.5,549.4,186.9,536.6z M259.8,311c-5.1,15.1,1.2,30.2,15.1,36.7
			c9.3,4.3,19.2,5.9,29.4,6.2c5.7,0.2,11.4,0,17.1,0c0-0.5,0-1,0-1.5c-2.1,0-4.1,0-6.2,0c-12.1-0.2-24-1.5-35.3-5.9
			c-8.7-3.4-14.8-9.3-17.1-18.6C261.4,322.4,260.5,316.7,259.8,311z M158.3,596.3c0,0.5-0.1,1,0,1.4c0.4,2.8,2.2,4.5,4.6,5.6
			c1.9,0.9,3-0.5,4.1-1.6c2-2,2.1-4.1,0.1-6.3c-1.5-1.7-0.7-3.3,0.5-4.7c1.6-2,3.4-3.8,4.9-5.8c1.4-2,5-3.2,4-5.8
			c-0.7-1.8-4.1-0.5-6.2-0.9c-1.2-0.3-2.5-0.6-3.7-0.7c-1.4-0.2-2.8,0.2-3.2,1.6C161.9,584.8,158.5,590.1,158.3,596.3z M128.4,580.2
			c0-0.6,0-1.3,0.1-1.9c0.4-3.1-0.4-5.2-4-5.7c-3.5-0.5-4.5,1.3-5.2,4.1c-0.4,1.7-1,3.4-1.6,5c-0.6,1.4-0.3,2.7,1,3.2
			c2.8,1,5.5,4.1,8.2,2.9c2.2-0.9,1.1-4.6,1.5-7.1C128.4,580.5,128.4,580.3,128.4,580.2z M213.7,480.6c-0.2-1.5-0.1-3.2-1.5-4.3
			c-0.9-0.7-1.8-0.3-2.7,0.2c-3.1,1.9-5.7,9.6-4.6,13.2c0.8,2.6,2,3.1,4,1.2C211.9,488.1,213.1,484.6,213.7,480.6z M78.4,594.6
			c3.7,2.3,4.6,6,6.4,9.2c0.7,1.2,1.6,2.5,3.4,1.5c1.4-0.7,1.8-1.8,1.3-3.2c-1.3-4-2.7-7.9-4.4-13.2C83.8,592.8,81.5,594,78.4,594.6
			z M354.8,426.8c6.4,0.3,10.2-6.3,10.2-17.1C362.6,416.4,360.6,422.7,354.8,426.8z M312.2,491.9c-6.8,3-13.4,6.3-18.6,11.8
			C299.8,499.8,306,495.8,312.2,491.9z M318.8,488.3c4.3,0.8,7.7,4.7,12.4,4.2C327.3,490.5,324.1,486.1,318.8,488.3z M155.7,619.1
			c0.2,1.2-0.1,3.1,1.4,3.1c1.8,0.1,1.7-1.9,1.8-3.3c0.1-1.3-0.1-3-1.5-3.1C155.4,615.9,156,617.9,155.7,619.1z M183.7,532
			c2.4-1.5,2.7-3.4,2.2-5.6c-0.1-0.3-0.9-0.8-1-0.7c-2,1.2-1.6,3.3-1.8,5.1C183,531.1,183.3,531.4,183.7,532z"/>
		<path class="st0" d="M51.3,512.2c0-5.9,0-11.6,0-17.4c0-53.3-0.1-106.7-0.1-160c0-86.3-0.1-172.7,0.2-259C51.5,40,81,11,116.9,11
			c93.2-0.1,186.5-0.1,279.7,0c36.2,0,65.3,29.2,65.6,65.4c0.1,14.3,0,28.5,0,42.8c0,1.6,0.5,3.5-1.2,4.3c-1.7,0.8-2.5-1-3.5-1.9
			c-15-13.7-33.3-19.8-52.9-22.9c-6.4-1-12.7-1.2-19.1-1.2c-6.2,0-9.3,2.7-10.7,8.7c-1.4,5.9-4.6,10.5-10.2,13.2
			c-4.4,2.1-7.8,5.6-11.3,8.9c-4.2,4-3.2,9.2-2.2,14c1.2,5.4,0.2,10.9,0.6,16.3c0.2,2.8-1.9,2.8-3.9,3c-5.7,0.6-11.5,0.3-17.2,1.1
			c-16.5,2.3-30.3,9.7-42.4,20.9c-7.4,6.9-14,14.7-23.8,18.4c-1.3,0.5-2.7,1.4-4,1.4c-8.3-0.3-14.5,4.1-20.9,8.4
			c-9.4,6.4-19,12.5-28.5,18.7c-5.4,3.5-9.5,7.6-9.3,14.6c0.1,1.8-1,3.3-1.9,4.8c-16.3,26.7-24.9,56-29.5,86.6
			c-2.3,15.6-5.6,31.2-6.4,47.1c-0.9,16.5-1.7,32.9-2.4,49.4c-0.1,3.7-1.3,5.7-5.2,5.8c-24.3,0.4-44.3,11.2-62.3,26.5
			c-15.4,13-28.3,28.3-39.6,44.9C53.8,511,53.6,512.1,51.3,512.2z M257.2,28.8c0,0.1,0,0.3,0,0.4c-6.7,0-13.5,0.1-20.2,0
			c-40.8-0.6-81.7-0.6-122.5,0.1c-22.8,0.4-44.9,20.2-45.2,46c-0.5,37-0.1,74-0.1,111c0,1.4-0.5,3.2,1.1,3.9
			c1.3,0.5,2.3-0.9,3.3-1.7c18.4-14,34.5-30,47-49.6c12-18.8,27.8-34.2,44.5-48.8c2.2-1.9,4.9-3.3,7.5-2c6.4,3.2,10.9,0,15-4
			c8.3-8.4,17.8-14.3,29.3-17c1.5-0.4,3-1.3,4.2-2.3c4.2-3.5,8.7-3.7,13.5-1.5c3,1.4,5.9,3.2,8.9,4.6c5.7,2.7,8.8,8.3,13.7,11.9
			c8.6,6.1,17.5,11.9,26.6,17.1c2.3,1.3,4.2,2.8,5.3,5.3c1.4,3.2,3.7,5.6,6.6,7.4c11,7.1,23.1,12.5,34.4,19.1c1.2,0.7,2.4,1,3-0.9
			c3.6-11,12.5-17.1,21.2-23.4c1.8-1.3,2.7-2.9,3.4-5c3.4-10.6,10.6-17.2,21.7-19.4c8.7-1.7,17.3-0.4,25.8,0.6
			c12.1,1.4,23.8,4.7,35.1,9.4c2.1,0.8,4.3,1.8,4.2-1.8c-0.3-7.7,0.5-15.4-1.5-22.9c-5.9-22.4-23.9-36.1-49.8-36.3
			C347.9,28.5,302.6,28.8,257.2,28.8z M118.8,159c-13.4,10-24.5,21.2-32.6,35.1c-3.6,6.2-7.7,11.8-13.3,16.2
			c-2.8,2.1-3.9,4.9-3.8,8.3c0.1,21.6,0.1,43.2,0.1,64.9c0,4,0.8,4.7,4.5,2.6c53.5-30.9,107-61.8,160.5-92.6
			c4.8-2.8,9.6-6.1,15.3-6.7c8.4-0.9,14.8-4.9,20.7-10.9c16.1-16.3,34.8-28.1,58.2-31.1c1.8-0.2,4.2,0,4.4-2.7
			c0.3-2.9-0.4-5.3-3.3-6.9c-7.2-4.1-14.3-8.4-21.5-12.6c-1.9-1.1-3.9-1.9-5.8-2.8c5.6,6.3,13.1,10.2,18.4,16.6
			c-8-2.8-14.6-7.8-21.5-12.4c-3.4-2.3-7-3.5-11.2-3.8c-8.4-0.6-15.5-3.6-19-12.2c-1.1-2.8-2.9-5.3-4.3-8c-1.6-3.2-4.1-5.3-7.3-6.6
			c-9.1-3.6-18-7.6-25.2-14.5c-1.8-1.8-3.7-1.8-6.1-0.7c-6.5,3-12.4,6.3-16.4,12.7c-2.7,4.2-7.6,5.8-12.3,8.4c0.1-2.9,1.8-3.8,2.9-5
			c1.5-1.6,3.3-3,4.8-4.7c1.2-1.3,2.9-2.8,1.8-4.5c-1.1-1.8-2.9-0.1-4.3,0.3c-5.1,1.4-9,4.8-12.5,8.6c-4.4,4.8-9.4,7.5-16.1,6.5
			c-9.2-1.4-12.8,4.2-13.1,14.5c-0.1,2.9,0.5,5.7,0.6,8.6c0,1.7,0.1,3.5-2,4.7c-1.8-2.7-1.6-5.8-2.6-8.6c-0.3-1,0-2.6-1.5-2.7
			c-1.4-0.1-1.7,1.3-2.1,2.3c-4.2,9.2-10.4,16.9-17.3,24.1c-7.2,7.5-12.4,16.2-15.3,26.3c-1.3,4.6-3.2,8.9-6.7,12.6
			C115.6,174.7,117.2,166.9,118.8,159z M69.1,307.5c0,2-0.1,3,0,3.9c0.1,1.7-0.8,3.9,0.7,5c1.7,1.2,3.2-0.9,4.6-1.7
			c31.4-17.9,62.6-36.1,94.1-53.8c9.5-5.3,12-14.8,16.2-23.4c0.4-0.8,0.6-2-0.3-2.7c-0.9-0.6-1.9,0-2.7,0.5
			c-1.9,1.1-3.7,2.5-5.7,3.6c-33.2,19.2-66.5,38.4-99.8,57.4C71.3,299.2,67.2,302,69.1,307.5z M168.2,273.4c-5,1.3-7.9,4.2-11.3,6.1
			c-25.9,14.7-51.7,29.6-77.4,44.4c-10.7,6.2-10.7,6.2-10.3,18.5c0,0.2,0,0.3,0,0.5c-0.2,3.6,1.2,3.8,4,2.2c5.1-3,10.2-5.9,15.4-8.9
			c22.5-12.9,44.9-25.9,67.4-38.8c2.3-1.4,4.9-2.6,5.9-5.4C163.9,286.2,165.9,280.2,168.2,273.4z M69.2,366.1c0,2.7,0,4.5,0,6.3
			c-0.1,3,0.4,4.2,3.7,2.2c22.5-13.1,44.8-26.6,67.8-38.9c9.8-5.2,15.3-11.8,15.7-22.7c0-0.2,0.1-0.3,0.1-0.5c0.2-1,1.1-2.2-0.3-3
			c-1-0.6-1.7,0.6-2.5,1c-25.8,14.8-51.4,29.9-77.4,44.4C71.1,357.9,67.8,360.7,69.2,366.1z M69.1,396c0,2.7,0.1,4.3,0,5.9
			c-0.2,2.9,0.4,4,3.4,2.2c24.2-14,48.4-28,72.6-41.9c2.1-1.2,4-2.7,4.3-5.4c0.4-3.5,0.9-7,1.1-10.5c0.1-1.2,0.7-2.7-0.7-3.5
			c-1.3-0.7-2.4,0.4-3.5,1C123,357.3,99.7,371,76.2,384.3C70.8,387.3,67.5,390.6,69.1,396z M145.7,384.3c0-2.4,0-3.5,0-4.7
			c0-1.6,1-3.6-0.4-4.6c-1.8-1.3-3.2,0.8-4.6,1.6c-20.4,11.7-40.8,23.4-61.1,35.1c-10.9,6.3-10.7,6.2-10.4,18.8
			c0.1,4.1,1.4,3.8,4.2,2.2c21.7-12.6,43.4-25.2,65.3-37.5C143.8,392.5,147.1,389.3,145.7,384.3z M69.3,462.5c1-0.6,1.6-0.8,2-1.2
			c19.9-18.5,41.5-34.2,69.1-39.2c1.8-0.3,3.1-1.4,3.2-3.6c0.2-3.3,0.7-6.7,0.9-10c0.1-1.2,0.3-3.1-0.4-3.7
			c-1.3-1.1-2.6,0.4-3.8,1.1c-22.7,13.1-45.4,26.2-68.1,39.3c-1.4,0.8-2.9,1.6-2.9,3.5C69.3,453.2,69.3,457.6,69.3,462.5z"/>
		<path class="st0" d="M127,498.9c-1.3,5.3-3.1,9.1-3,12.9c0.3,11.9-5.5,19.6-15,25.7c-5.5,3.5-10.4,8-15.4,12.2
			c-1.8,1.5-3.5,2.1-5.6,1.1c-0.7-0.3-1.5-0.5-2.3-0.7c-7.4-1.8-7.4-1.8-3.1-8.2c8.9-13.5,18.6-26.4,32.4-35.5
			C118.5,503.9,122.1,501.8,127,498.9z"/>
		<path class="st0" d="M399.5,352.5c0.1-0.5,0.1-2.1,0.4-3.7c1.9-10.3-3.2-19-13.4-22.2c-3.6-1.2-7.4-1.8-11.2-2.8
			c-1.3-0.3-2.6-0.9-2.5-2.5c0-1.6,1.6-1.9,2.8-2.2c3.6-0.9,7.1-1.7,10.7-2.4c6.1-1.3,11.2-4.3,16.1-8.1c5.2-4,10.6-7.6,17.4-8.6
			c3.8-0.6,5.4,0.6,6,4.1c1.4,8.7,2.9,17.3,4.2,26c1.3,8.9,3.1,17.6,5.2,26.3c1,4,0.3,6.1-4.3,7c-6.1,1.1-12.1,3-18.1,4.7
			c-1.4,0.4-2.7,1-4.2,0.3C405.5,367,399.3,357.2,399.5,352.5z"/>
		<path class="st0" d="M272.1,454.7c7.2,0,14.4,0,21.6,0c1,0,2.1-0.3,2.6,0.7c0.7,1.1-0.4,1.7-1.1,2.3c-12,9.3-20.9,21.6-31.5,32.3
			c-1.8,1.8-4,3.3-5.6,5.2c-5.1,6.5-11.5,3-17.4,2.3c-2.1-0.2-1.9-2.3-1.6-3.9c1.9-11.5,3.8-23,5.7-34.5c0.5-3.1,1.9-4.3,5.2-4.2
			c7.4,0.2,14.7,0.1,22.1,0.1C272.1,454.8,272.1,454.7,272.1,454.7z"/>
		<path class="st0" d="M262.3,423.7c-3,0-6.1-0.2-9.1,0c-3.3,0.3-4.4-0.5-4.1-4.3c0.8-9.6,3.3-18.5,8.1-26.9c0.4-0.7,0.7-1.4,1-2.2
			c2.7-6.7,2.6-6.6,8.2-1.4c7.1,6.7,13.7,14,22.1,19.1c3.3,2,2.6,4.8,2.2,7.6c-0.9,6.7-0.9,6.8-7.8,6.9c-6.9,0.1-13.8,0-20.6,0
			C262.3,423.1,262.3,423.4,262.3,423.7z"/>
		<path class="st0" d="M221.3,62c-0.9-2.3-0.2-3.9,0.5-5.5c5.7-14.6,22.9-22.7,37.4-17.7c15.6,5.3,24.1,21.6,19.4,37.2
			c-3.6,12-4.3,12.2-14.8,5c-4.9-3.3-9.4-7-13.6-11.3c-4.9-5.1-11.3-8.3-17.9-10.9C228.1,57,224.8,59.8,221.3,62z"/>
		<path class="st0" d="M232.8,95.5c9.7,8,12.9,19.6,20.4,28.3C246.3,124.7,232.3,105.5,232.8,95.5z"/>
		<path class="st0" d="M240.2,147.5c-8.5-0.4-20.1-16.3-21.6-28.7C228.3,126.8,231.7,138.5,240.2,147.5z"/>
		<path class="st0" d="M190.4,118.9c-6.3,9.7-8,22.9-20.1,28.4C177,137.8,180.3,126,190.4,118.9z"/>
	</g>
</g>
</svg>
