<?xml version="1.0" encoding="utf-8"?>
<!-- Generator: Adobe Illustrator 27.2.0, SVG Export Plug-In . SVG Version: 6.00 Build 0)  -->
<svg version="1.1" id="Layer_1" xmlns="http://www.w3.org/2000/svg" xmlns:xlink="http://www.w3.org/1999/xlink" x="0px" y="0px"
	 viewBox="0 0 425.6 203.7" style="enable-background:new 0 0 425.6 203.7;" xml:space="preserve">
<style type="text/css">
	.st0{fill:#FF7E00;}
</style>
<g>
	<path class="st0" d="M187.4,158.2c0,0.3,0,0.4,0,0.5c-0.2,0.8-0.5,1.6-0.7,2.4c-5.5,0-11.1,0-16.7,0c-1.6,4.8-3.2,9.7-4.8,14.5
		c-4.2,0-8.3,0-12.6,0c0.1-0.4,0.2-0.9,0.3-1.4c1.3-3.8,2.5-7.6,3.8-11.4c0.2-0.5,0.3-0.9,0.4-1.5c-1.1-0.3-9.6-0.4-11-0.1
		c-0.1,1.1-0.1,2.3-0.4,3.4c-0.8,4.1-3,7.4-6.1,10.2c-0.3,0.3-0.9,0.4-1.5,0.4c-3.3,0-6.7,0-10,0c-6.8,0-13.6,0-20.4,0
		c-0.7,0-1.6,0-2.3,0c-1.1-2.7-1.1-5.3-0.3-8c1.1-3.4,3.1-6.4,5.9-8.9c0.4-0.4,0.9-0.6,1.6-0.6c0.2,0,0.5,0,0.7,0
		c24.1,0,48.4,0,72.5,0C186.4,158.2,186.9,158.2,187.4,158.2z M135,160.5c-4.9,0-9.7,0-14.7,0c-1.4,4-2.7,7.9-4.1,12.1
		c0.4,0.1,0.6,0.1,0.8,0.1c4.4,0,8.8,0,13.2,0c0.7,0,1-0.3,1.4-0.9c1.1-3.4,2.3-6.9,3.3-10.4C134.9,161.1,134.9,160.8,135,160.5z"/>
	<path class="st0" d="M61.3,158.2c4.3,0,8.4,0,12.5,0c0.1,0.2,0.2,0.5,0.3,0.7c1.3,3.4,2.5,6.9,3.9,10.4c0.4,1,0.4,1,1.6,1.1
		c1.3,0,2.4,0,3.7,0c0.5,0,0.9-0.1,1.4-0.5c3.7-3.6,7.4-7.1,11.1-10.7c0.7-0.7,1.6-1.1,2.6-1c3.1,0.1,6.2,0,9.3,0c0.4,0,0.8,0,1.6,0
		c-0.4,0.5-0.6,0.7-0.9,1c-3.4,3.3-7,6.7-10.4,10c-2.1,2-4.1,3.9-6.1,5.9c-0.5,0.5-1,0.7-1.8,0.7c-7,0-14,0-21,0c-1.3,0-1.3,0-1.7-1
		c-1.9-5.1-3.8-10.2-5.6-15.3C61.5,159,61.5,158.7,61.3,158.2z"/>
	<path class="st0" d="M0,175.7c0.1-0.4,0.1-0.6,0.2-0.8c1.7-5.1,3.4-10.3,5.1-15.5c0.4-1.1,0.4-1.1,1.7-1.1c11,0,22,0,33,0
		c1.4,0,1.4,0,1.8,1.3c1.1,3.2,0.6,6.5-0.8,9.5c-0.1,0.2-0.5,0.4-0.8,0.5c-0.2,0.1-0.5,0-0.7,0c-6.1,0-12.1,0-18.2,0
		c-0.3,0-0.6,0-1-0.1c0.3-1,0.6-1.9,0.9-2.8c3.1,0,6.2,0,9.3,0c0.6-2,1.3-3.9,1.9-5.9c-5.2,0-10.3,0-15.5,0
		c-0.1,0.3-0.3,0.7-0.4,1.1c-1.4,4.2-2.7,8.4-4.2,12.5c-0.5,1.5-0.2,1.5-2,1.5c-3.1,0-6.4,0-9.5,0C0.6,175.8,0.4,175.8,0,175.7z"/>
	<path class="st0" d="M408.8,176.4c2.3,0,4.7,0,7.2,0c-0.6,1.1-1.1,2.1-1.7,3.1c-5.5,0-11.1,0-16.9,0c4.6-4,9-7.7,13.5-11.6
		c-0.4-0.1-0.6-0.2-0.8-0.2c-2.7,0-5.4,0-8-0.1c-0.8,0-1.5,0.2-1.9,1c-1.3,2.4-2.7,4.7-4.1,7c-0.7,1.1-1.6,2.2-2.7,2.9
		c-1,0.6-2.1,0.9-3.3,0.9c-3.2,0-6.5,0-9.6,0c-0.3,0-0.7,0-1-0.1c-1.3-0.2-1.8-1.1-1.4-2.3c0.1-0.4,0.3-0.8,0.6-1.1
		c2.1-3.6,4.3-7.2,6.3-10.8c0.3-0.5,0.6-0.7,1.1-0.7c1.6,0,3.1,0,5,0c-1.3,2.2-2.3,4.1-3.4,6s-2.3,3.8-3.4,6c1.1,0,2,0,2.8,0
		c0.9,0,2,0.2,2.7-0.2s1.1-1.5,1.6-2.3c1.7-2.8,3.3-5.6,5-8.6c0.4-0.7,0.8-0.8,1.6-0.8c4.5,0,9,0,13.5,0c3.2,0,6.5,0,9.8,0
		c-0.4,1-1.4,1.5-2,2.1c-0.6,0.6-1.4,1.3-2,1.9c-0.7,0.6-1.4,1.3-2.1,2c-0.7,0.6-1.4,1.3-2.1,2c-0.6,0.6-1.4,1.3-2,1.9
		c-0.7,0.6-1.4,1.3-2.1,2C408.7,176.2,408.7,176.3,408.8,176.4z"/>
	<path class="st0" d="M303.9,179.5c2.3-4.1,4.5-7.8,6.9-11.8c-0.6,0-1-0.1-1.5-0.1c-1.4,0-2.8,0-4.2,0c-0.7,0-1.1,0.2-1.6,0.8
		c-2,3.4-4,6.8-6,10.1c-0.4,0.6-0.8,0.9-1.6,0.8c-2,0-3.9,0-6,0c-0.3-3-0.6-6-1-9c-0.1,0-0.2-0.1-0.3-0.1c-1.8,2.9-3.4,6-5.3,9
		c-1.9,0-3.7,0-5.6,0c0.1-0.3,0.2-0.5,0.3-0.8c2.6-4.5,5.2-8.9,7.8-13.4c0.3-0.5,0.5-0.8,1.1-0.8c2,0,3.9,0,5.9,0
		c0.2,0,0.3,0.1,0.5,0.1c0.3,2.9,0.6,5.7,0.8,8.7c0.1,0,0.2,0.1,0.3,0.1c0.2-0.3,0.4-0.5,0.6-0.8c1.4-2.4,2.8-4.8,4.2-7.2
		c0.3-0.5,0.5-0.8,1.1-0.8c7.3,0,14.7,0,22,0c0.2,0,0.3,0.1,0.7,0.1c-0.5,0.9-0.9,1.9-1.5,2.7c-0.2,0.2-0.6,0.4-0.9,0.4
		c-1,0-2,0-3-0.1c-0.9-0.1-1.6,0.2-2.1,1.1c-1.9,3.3-3.9,6.6-5.7,9.9c-0.4,0.6-0.8,0.9-1.6,0.8C307.1,179.5,305.6,179.5,303.9,179.5
		z"/>
	<path class="st0" d="M53.6,175.7c-4.2,0-8.3,0-12.3,0c0-0.9,3.3-11.4,5.5-17.4c4.1,0,8.3,0,12.6,0
		C57.5,164.1,55.6,169.8,53.6,175.7z"/>
	<path class="st0" d="M373.5,174.6c0.8,1.7,1.6,3.1,2.3,4.8c-2.1,0-4.1,0-6.2,0c-0.5-1.3-1-2.5-1.6-3.7c-0.2-0.5-0.4-1-1.1-1.1
		c-0.7,0-0.9,0.4-1.3,0.9c-0.7,1.4-1.6,2.6-2.3,3.9c-1.9,0-3.8,0-5.7,0c0.1-0.3,0.2-0.5,0.3-0.8c2.6-4.5,5.2-9,7.8-13.6
		c0.3-0.4,0.6-0.7,1.1-0.7c4.1,0,8.1,0,12.2,0c1.6,0,2.3,1,1.6,2.5c-0.9,1.9-2.1,3.7-3.2,5.3c-0.6,0.9-1.8,1.6-2.9,1.9
		C374.4,174.3,374,174.4,373.5,174.6z M368.1,171.3c1.6,0,2.7,0,4,0c0.2,0,0.4-0.1,0.6-0.2c0.4-0.3,1.6-2.7,1.7-3.3
		c-1.1,0-2.3,0-3.6,0c-0.3,0-0.7,0.2-0.8,0.4C369.4,169,368.9,170,368.1,171.3z"/>
	<path class="st0" d="M335.9,179.5c-7.3,0-14.6,0-22.1,0c0.3-0.3,0.4-0.5,0.6-0.7c4.2-3.7,8.4-7.3,12.5-11.1c0.9-0.8,2-1.7,2.9-2.6
		c0.5-0.5,1-0.6,1.8-0.6c1.5,0,2.8,0,4.3,0C336.1,165.5,336.1,177.6,335.9,179.5z M329.9,176.3c0.4-1.5,0.5-5.2,0.2-6.2
		c-0.9,0.4-6.4,5.2-6.9,6.3C325.5,176.4,327.7,176.4,329.9,176.3z"/>
	<path class="st0" d="M277.3,179.4c-7.4,0-14.7,0-22.3,0c0.3-0.3,0.4-0.4,0.5-0.5c5.2-4.6,10.4-9.2,15.7-13.8
		c0.3-0.3,0.7-0.5,1.1-0.6c1.6-0.1,3.2,0,4.8,0C277.4,165.5,277.5,175.8,277.3,179.4z M271.7,170.2c-0.1-0.1-0.2-0.1-0.3-0.2
		c-0.7,0.6-1.6,1.4-2.3,2c-0.7,0.7-1.6,1.4-2.3,2.1c-0.7,0.6-1.5,1.4-2.4,2.2c2.5,0,4.8,0,7.1,0
		C271.6,174.1,271.7,172.1,271.7,170.2z"/>
	<path class="st0" d="M262.8,164.6c-0.5,0.9-0.9,1.8-1.5,2.6c-0.3,0.5-0.8,0.4-1.3,0.4c-2.7,0-5.4,0.1-8.3,0c-0.8,0-1.4,0.2-1.8,0.9
		c-0.2,0.5-0.5,0.9-0.8,1.6c0.4,0,0.7,0.1,0.9,0.1c1.7,0,3.3,0,5.1,0c0.4,0,0.8,0,1.1,0.1c1.4,0.2,2,1.1,1.4,2.4
		c-0.6,1.4-1.4,2.7-2.3,4c-1.4,1.8-3.2,2.7-5.5,2.7c-3.6,0-7.1,0-10.7,0c-0.4,0-0.7,0-1.3,0c0.3-1.1,0.9-2,1.6-2.8
		c0.2-0.2,0.7-0.3,1.1-0.3c2.1,0,4.1,0,6.2,0c0.7,0,1.4,0,2.1,0c0.8,0,1.4-0.3,1.7-0.9c0.2-0.5,0.5-1,0.9-1.8
		c-0.6-0.1-0.9-0.1-1.4-0.1c-1.8,0-3.7,0-5.4,0c-0.4,0-0.8,0-1.1-0.1c-0.7-0.2-1.1-1-0.8-2c0.9-2.3,2.1-4.5,4.2-6c1-0.6,2.1-1,3.3-1
		c3.9,0,7.8,0,11.7,0C262.3,164.5,262.4,164.5,262.8,164.6z"/>
	<path class="st0" d="M363.4,164.5c-0.6,1-1,1.9-1.6,2.7c-0.2,0.2-0.6,0.4-1,0.4c-2.1,0-4.3,0.1-6.4,0c-0.9,0-1.6,0.2-2.1,1.1
		c-1.1,2.1-2.4,4.2-3.6,6.3c-0.2,0.3-0.4,0.7-0.6,1.3c1.5,0.3,2.8,0.1,4.2,0.2c1.4,0,2.7,0,4.3,0c-0.6,1.1-1.1,2.1-1.7,3
		c-0.3,0-0.5,0.1-0.7,0.1c-3.3,0-6.6,0-9.9,0c-2.5,0-3.1-1-1.9-3.2c1.6-2.9,3.2-5.7,5-8.6c1.5-2.3,3.4-3.4,6.3-3.3
		c2.8,0.1,5.6,0,8.5,0C362.4,164.5,362.8,164.5,363.4,164.5z"/>
	<path class="st0" d="M154.7,183.8c0.7,0,1.5,0,2.1,0c0.3,0,0.6,0.3,0.8,0.5c0.6,0.7,1.4,0.4,2.1,0.3c0.5-0.1,1-0.3,0.8-1.1
		c-0.4-0.1-0.8-0.2-1.3-0.3c-0.8-0.2-1.7-0.2-2.4-0.5c-1.1-0.3-1.5-1.1-0.9-2.2c0.4-0.8,1-1.4,1.9-1.7c1.6-0.6,3.2-0.5,4.9-0.1
		c0.8,0.2,1.5,0.7,1.5,1.9c-1,0.2-2,0.5-3-0.3c-0.6-0.5-1.8-0.6-2.4-0.1c-0.2,0.1-0.3,0.4-0.3,0.6c0,0.1,0.3,0.3,0.4,0.4
		c0.4,0.1,0.9,0.2,1.4,0.3c0.8,0.2,1.7,0.3,2.4,0.5c0.8,0.3,1,0.8,0.7,1.7c-0.3,1-1,1.8-2.1,2.2c-1.8,0.7-3.7,0.6-5.5,0.2
		C154.9,185.7,154.7,185.3,154.7,183.8z"/>
	<path class="st0" d="M152,184.4c-0.2,1.6-0.2,1.6-1.6,1.6c-1.9,0-3.9,0-5.7,0c-0.1,0-0.2-0.1-0.5-0.1c0.7-2.4,1.6-4.8,2.3-7.3
		c2.4,0,4.8,0,7.2,0c0,0.3,0,0.5,0,0.7c0,0.2-0.1,0.4-0.2,0.7c-1.3,0-2.6,0-3.9,0c-1.3,0-1.3,0-1.5,1.6c1.5,0,2.8,0,4.2,0
		c0.1,1.4,0,1.5-1.1,1.6c-1.3,0-2.4,0-3.8,0c-0.1,0.4-0.2,0.8-0.4,1.4C148.8,184.4,150.3,184.4,152,184.4z"/>
	<path class="st0" d="M112.7,181.2c-0.2,0-0.5,0.1-0.7,0.1c-0.5,0-1.1,0-1.7,0c-0.3-0.6-0.4-1.4-1.3-1.4c-0.9,0-1.8,0-2.4,0.6
		c-0.8,0.7-1,1.8-1,2.8c0,0.6,0.3,0.9,0.9,1.1c0.9,0.2,1.8,0.1,2.4-0.5c1.1-0.9,1.5-1,3-0.5c-0.4,1-1.3,1.8-2.2,2.2
		c-1.6,0.7-3.2,0.8-5,0.4c-1.4-0.4-2-1.3-1.8-2.7c0.3-2.2,1.4-3.9,3.6-4.6c1.5-0.5,2.9-0.5,4.4-0.2
		C112.3,178.8,112.9,179.7,112.7,181.2z"/>
	<path class="st0" d="M133.3,181.3c-0.8,0-1.6,0-2.5,0c-0.2-0.7-0.6-1.5-1.6-1.4c-1,0.1-2.1,0.3-2.5,1.4c-0.3,0.6-0.4,1.4-0.6,2.1
		c-0.1,0.5,0.2,1,0.8,1.1c0.8,0.3,1.9,0.3,2.4-0.4c0.7-0.8,1.5-0.9,2.4-0.8c0.2,0,0.4,0,0.8,0c-0.2,0.8-0.7,1.4-1.4,1.8
		c-2,1.3-4.1,1.5-6.3,0.8c-1-0.3-1.6-1.1-1.5-2.3c0.1-2.4,1.8-4.4,4.1-5c1.3-0.3,2.5-0.4,3.8-0.1
		C132.8,178.8,133.4,179.6,133.3,181.3z"/>
	<path class="st0" d="M114.9,178.6c1,0,1.8,0,2.6,0c0.3,1,0.5,2,0.8,3.1c0.7-0.8,1.4-1.4,1.8-2.1c0.8-1.4,2.1-1.4,3.6-1
		c-0.2,0.3-0.4,0.5-0.5,0.6c-1.3,1.4-2.6,2.6-3.8,4c-0.3,0.3-0.5,0.8-0.6,1.3c-0.2,0.5-0.3,0.9-0.5,1.5c-0.7,0-1.5,0-2.1,0
		c0-0.1-0.1-0.2-0.1-0.3c0.7-1.5,0.4-2.9-0.1-4.4C115.4,180.5,115.2,179.6,114.9,178.6z"/>
	<path class="st0" d="M142.3,184.3c-0.4,1.8-0.4,1.8-1.9,1.8c-1.8,0-3.6,0-5.5,0c0.2-0.6,0.3-0.9,0.4-1.4c0.5-1.6,1-3.2,1.6-4.8
		c0.4-1.4,0.4-1.4,1.9-1.4c0.2,0,0.4,0,0.8,0.1c-0.6,1.9-1.1,3.7-1.8,5.6C139.4,184.3,140.7,184.3,142.3,184.3z"/>
	<path class="st0" d="M170.2,171.9c1.3,0,1.9,0.8,1.6,2.1c-0.3,1.1-1.1,1.8-2.3,1.8c-0.9,0-1.7-0.7-1.6-1.7
		C168,172.9,169,171.9,170.2,171.9z M170.6,174.8c0.8-0.8,1-1.6,0.6-2.1c-0.3-0.4-1.4-0.4-2.1,0c-0.6,0.4-0.9,1.4-0.6,1.9
		c0.3,0.7,0.7,0.7,1.8,0.3c-0.2-0.4-0.4-0.8-0.5-1.3c-0.2,0.3-0.3,0.6-0.5,0.9c-0.1,0-0.1,0-0.2-0.1c0.1-0.5,0.3-1,0.4-1.6
		c0.5,0,1,0,1.5,0c0,0.1,0,0.1,0,0.2c-0.2,0.1-0.5,0.2-0.8,0.4C170.3,174.1,170.4,174.4,170.6,174.8z"/>
	<path class="st0" d="M424.8,165.2c0,0.2-0.1,0.4-0.1,0.9c-0.4-0.6-0.7-0.9-1-1.4c0.1-0.1,0.1-0.1,0.2-0.2
		C424,164.8,424.5,165,424.8,165.2L424.8,165.2z"/>
	<path class="st0" d="M424.8,165.2c0.2-0.2,0.4-0.4,0.6-0.6c0.1,0,0.1,0.1,0.2,0.1c-0.1,0.3-0.1,0.7-0.2,1.1
		C425.1,165.5,424.9,165.4,424.8,165.2L424.8,165.2z"/>
	<path class="st0" d="M422.5,165.5c-0.2-0.7-0.2-0.7,0.2-1.1C422.6,164.9,422.6,165.2,422.5,165.5z"/>
</g>
<g>
	<path class="st0" d="M314,119.6c5.3-12.3,10.5-24.4,15.8-36.7c0.5,0,1.1-0.2,1.6-0.2c5.8,0,11.4,0,17.2,0c3.9,0,5.3,1.9,3.7,5.6
		c-1.9,4.5-3.7,8.9-5.8,13.3c-1.9,4.2-3.6,8.4-5.5,12.6c-0.5,1.1-0.9,2.2-1.7,3.1c-0.9,1.4-2.3,2.3-4.1,2.3c-6.9,0-13.7,0-20.6,0
		C314.5,119.8,314.3,119.8,314,119.6z M323.2,117c2,0,3.7-0.2,5.3,0c2.2,0.2,3.4-0.8,4.2-2.7c0.9-2.3,2-4.7,3.1-6.9
		c2.3-5.5,4.8-10.9,7.2-16.4c0.5-1.1,0.8-2.2,0.9-3.3c0.2-1.1-0.3-1.6-1.4-1.6c-1.9,0-3.9,0-5.9,0C332.1,96.2,327.8,106.4,323.2,117
		z"/>
	<path class="st0" d="M226.6,83.2c-1.1,12.3-2,24.5-3.1,36.8c-2.7,0.2-5.2,0.2-8,0.2c0.5-5,1.1-9.8,1.6-15c-2.3,0-4.5,0-6.6,0
		c-0.5,0-0.9,0.8-1.4,1.2c-2.2,3.3-4.4,6.6-6.6,9.8c-0.6,0.9-1.1,1.9-1.9,2.8c-0.3,0.5-0.9,0.9-1.6,0.9c-2.2,0.2-4.2,0-6.6,0
		c0.3-0.6,0.5-0.9,0.8-1.2c7.3-10.8,14.7-21.4,22-32.2c1.6-2.3,3.4-3.6,6.4-3.4C223.2,83.2,224.7,83.2,226.6,83.2z M217.2,102.3
		c0.3-3,0.6-5.6,0.9-8.4c-0.2,0-0.3-0.2-0.5-0.2c-1.6,2.8-3.3,5.5-5,8.6C214.4,102.3,215.7,102.3,217.2,102.3z"/>
	<path class="st0" d="M107.4,120.1c-2.7,0-5.2,0-7.6,0c0.2-0.6,0.3-0.9,0.5-1.4c5-11.2,10-22.6,15-33.9c0.5-1.2,1.1-1.7,2.5-1.7
		c5,0.2,9.8,0,14.8,0c0.6,0,1.2,0,1.9,0.2c2,0.3,3,1.9,2.7,3.9c-0.2,0.8-0.3,1.6-0.6,2.2c-1.6,3.6-3.1,7.3-4.7,10.9
		c-1.4,3.4-3.7,5-7.3,5.5c-3.3,0.3-6.6,0.9-9.8,1.4c-1.1,0.2-1.9,0.6-2.3,1.7C110.6,112.6,108.9,116.3,107.4,120.1z M114.4,104.3
		c1.9-0.3,3.3-0.6,4.7-0.8c1.7-0.2,2.8-1.1,3.6-2.3c0.5-0.8,0.9-1.6,1.2-2.3c1.2-3.1,2.7-6.2,3.9-9.4c0.2-0.5,0.3-1.1,0.5-1.7
		c0.2-1.4-0.3-2-1.7-2.2c-0.8,0-1.6,0-2.3,0c-1.2-0.2-2,0.5-2.5,1.6c-1.4,3.6-3,7-4.5,10.6C116.3,99.8,115.5,101.8,114.4,104.3z"/>
	<path class="st0" d="M303.7,102.8c-0.5,1.1-1.1,2.2-1.6,3.4c-1.1,2.7-2.3,5.3-3.4,8.1c-0.9,2.5-0.6,2.8,2,3c2.7,0,5.2,0,7.8,0
		c0.6,0,1.2,0,2,0.2c-0.2,0.6-0.3,1.1-0.5,1.6c-0.3,0.9-0.9,1.4-1.9,1.2c-0.2,0-0.3,0-0.3,0c-4.7,0-9.2,0-13.9,0
		c-0.9,0-1.9-0.2-2.7-0.3c-1.7-0.3-2.3-1.2-2-3c0.2-1.1,0.6-2.2,1.1-3.1c3-6.9,5.8-13.6,8.7-20.4c0.9-2,1.7-4.1,2.7-6.1
		c1.2-2.8,3.1-4.2,6.4-4.2c4.8,0.2,9.7,0,14.7,0c0.8,0,1.6,0,2.3,0c-0.3,2.2-0.5,2.3-2.3,2.3c-2.8,0-5.6,0-8.4,0
		c-2.3,0-3.7,0.9-4.7,3c-1.4,3.4-3,6.9-4.4,10.5c-0.2,0.3-0.2,0.6-0.3,1.1c3.4,0,6.7,0,10,0c-0.6,2.7-0.6,2.7-3,2.7
		C309.2,102.8,306.5,102.8,303.7,102.8z"/>
	<path class="st0" d="M155.4,100c-0.9,2.7-0.9,2.7-3.3,2.7c-2.3,0-4.7,0-7,0c-0.8,0-1.4,0-1.9,0.9c-1.4,3.3-2.8,6.6-4.2,9.8
		c-0.3,0.6-0.5,1.4-0.6,2c-0.2,0.8,0.2,1.2,0.9,1.4c0.5,0.2,1.1,0.2,1.6,0.2c2.7,0,5.2,0,7.8,0c0.6,0,1.2,0,2.2,0
		c-0.3,0.8-0.5,1.2-0.6,1.9c-0.3,0.9-0.8,1.2-1.7,1.2c-5.3,0-10.5,0-15.8,0c-0.5,0-0.9,0-1.4-0.2c-1.6-0.3-2.3-1.4-2-3
		c0.2-0.9,0.5-1.7,0.8-2.7c3.7-8.7,7.5-17.5,11.2-26.4c0.2-0.5,0.5-0.9,0.6-1.4c1.1-2.3,2.8-3.4,5.3-3.4c5.6,0,11.2,0,17,0
		c0.3,0,0.5,0,0.8,0.2c-0.6,2.2-0.6,2.2-2.7,2.2c-2.7,0-5.2,0-7.8,0c-2.5,0-4.2,0.9-5.2,3.3c-1.4,3.4-2.8,6.7-4.2,10
		c-0.2,0.3-0.2,0.6-0.3,1.1C148.6,100,151.8,100,155.4,100z"/>
	<path class="st0" d="M288.3,86.4c-1.4-0.8-2.8-0.3-4.2-0.5c-1.4,0-2.8,0-4.2,0c-1.4,0-2.8,0-4.5,0c0.3-0.9,0.5-1.7,0.8-2.7
		c0.6,0,1.2-0.2,1.7-0.2c5.6,0,11.2,0,17,0c1.1,0,2.5-0.3,3,1.1c0.5,1.2-0.5,2.2-1.2,3.1c-8.1,8.7-16.4,17.6-24.5,26.4
		c-0.8,0.8-1.7,1.6-1.7,3c0.6,0,1.4,0.2,2,0.2c3.4,0,6.7,0,10.1,0c0.8,0,1.4,0,2.3,0c-0.3,0.8-0.5,1.2-0.6,1.9
		c-0.3,0.9-0.9,1.1-1.7,1.1c-6.4,0-12.8,0-19,0c-0.3,0-0.8,0-1.1-0.2c-2.2-0.3-2.7-1.4-1.4-3.3c0.3-0.5,0.6-0.8,0.9-1.2
		c7.8-8.4,15.6-16.9,23.6-25.3C286.4,89,287.6,87.9,288.3,86.4z"/>
	<path class="st0" d="M110.9,83.2c-0.3,0.9-0.6,1.6-0.9,2.5c-2,0-3.9,0-5.9,0c-1.9,0-3.9,0-5.8,0c-1.2,0-2.3,0.3-3,1.4
		c-1.1,2-2.2,4.1-3.1,6.2c-0.5,1.2,0.2,2.5,1.1,3.3c1.6,1.4,3.1,2.8,4.7,4.2c3.6,3.1,3.7,4.1,2,8.4c-0.9,2.3-1.9,4.5-3,6.9
		c-1.2,2.7-3.1,3.9-6.1,3.9c-5.6,0-11.2,0-16.7,0c-0.5,0-0.9-0.2-1.6-0.2c0.3-0.6,0.5-1.1,0.6-1.6c0.5-1.1,1.2-1.4,2.3-1.4
		c3,0,5.9-0.2,8.9,0c2.5,0.2,3.9-0.8,4.8-3c0.8-2,1.9-3.9,2.7-5.9c1.1-2.7,0.8-3.7-1.4-5.6c-1.7-1.6-3.6-3.1-5.3-4.7
		s-1.9-2.3-1.1-4.5c0.9-2.3,2-4.8,3-7.2c0.8-1.7,2-2.7,3.9-3c1.1-0.2,2-0.2,3.1-0.2c5,0,10.1,0,15.1,0
		C110,83.2,110.3,83.2,110.9,83.2z"/>
	<path class="st0" d="M176.8,117.3c0,0.5-0.2,0.8-0.2,0.9c-0.5,1.9-0.5,1.9-2.5,1.9c-4.8,0-9.7,0-14.4,0c-0.8,0-1.7,0-2.5-0.3
		c-1.6-0.3-2-1.1-1.9-2.7c0.2-0.6,0.3-1.4,0.6-2c4.1-9.4,8.1-18.9,12.2-28.3c0.9-2.2,2.5-3.3,4.7-3.6c0.6,0,1.1-0.2,1.7-0.2
		c5.3,0,10.5,0,15.8,0c0.3,0,0.8,0,1.1,0c-0.3,2.3-0.6,2.5-2.8,2.5c-2.8,0-5.8,0.2-8.6,0c-2.2-0.2-3.4,0.8-4.4,2.8
		c-2.3,5.6-4.8,11.1-7.2,16.7c-1.2,2.8-2.3,5.5-3.6,8.3c-0.2,0.3-0.2,0.5-0.3,0.8c-0.9,2.5-0.6,3.1,2,3.1c2.8,0,5.8,0,8.6,0
		C175.7,117.1,176.2,117.1,176.8,117.3z"/>
	<path class="st0" d="M245.5,117.1c-0.3,0.8-0.5,1.2-0.6,1.9c-0.3,0.8-0.8,1.1-1.6,1.1c-4.2,0-8.6,0.2-12.8-0.2
		c-3.3-0.2-4.1-1.4-3-4.5c0.8-2.2,1.9-4.4,2.8-6.7c3.6-8.1,7-16.2,10.6-24.4c0.2-0.3,0.3-0.8,0.5-1.2c2.5,0,5.2,0,7.8,0
		c-0.2,0.5-0.3,0.9-0.5,1.4c-3.9,9.2-7.8,18.3-11.7,27.5c-0.3,0.8-0.8,1.7-0.9,2.5c-0.5,1.7,0,2.3,1.7,2.3c1.6,0.2,3,0,4.5,0
		C243.3,117.1,244.3,117.1,245.5,117.1z"/>
	<path class="st0" d="M272,83.2c-0.3,0.9-0.5,1.6-0.8,2.2c-4.7,10.8-9.4,21.7-14,32.5c-0.2,0.5-0.3,0.9-0.6,1.2
		c-0.3,0.3-0.8,0.8-1.1,0.8c-2.3,0-4.7,0-7.3,0c0.2-0.8,0.3-1.2,0.5-1.6c4.8-11.2,9.8-22.5,14.7-33.7c0.5-0.9,0.9-1.6,2.2-1.6
		C267.5,83.2,269.7,83.2,272,83.2z"/>
	<path class="st0" d="M196.5,83.2c2.7,0,5.2,0,8,0c-0.2,0.6-0.3,1.1-0.5,1.6c-4.8,11.2-9.7,22.5-14.4,33.9c-0.5,1.1-1.1,1.6-2.3,1.6
		c-2-0.2-4.2,0-6.1,0c-0.2-0.2-0.2-0.2-0.2-0.3c0,0-0.2-0.2,0-0.2C186,107.6,191.2,95.4,196.5,83.2z"/>
	<path class="st0" d="M343.8,119.9c0,0.3,0,0.8,0,1.1c-0.2,0-0.2,0-0.3,0c0-0.3,0-0.8,0-1.1C343.5,119.9,343.7,119.9,343.8,119.9z"
		/>
</g>
<g>
	<path class="st0" d="M56.3,24.2c-1.8,1.2-3.6,2.6-5.4,3.8c-2.6,1.9-5.4,3.6-7.8,5.6c-2.5,1.9-5.4,1.3-7.2,0
		c-0.8-0.7-1.6-1.4-2.5-2.2c4.2-3.1,8.4-6,12.5-9c-1-0.9-2-1.7-3.1-2.1c-4.2-1.6-8.3-1.4-11.9,1.6c-3.6,3-4.7,6.9-4,11.4
		c0.7,4.1,3.1,7,6.7,8.8c3.3,1.7,6.9,1.7,10.4-0.2c2.2-1.2,4-2.9,5-5.4c0.2-0.6,0.6-0.9,1.1-0.9c2.2,0,4.6,0,6.9,0
		c-0.1,0.6-0.1,0.9-0.2,1.2c-2.6,9.5-12.5,15.3-21.5,13.5c-7.8-1.6-12.8-6.5-15.3-13.8c-2.9-8.8,1.2-18.1,9-22.5
		c4.1-2.3,8.6-2.9,13.2-1.8c6.7,1.6,11.3,5.6,14.1,11.8C56.3,23.7,56.3,23.8,56.3,24.2z"/>
	<path class="st0" d="M120.5,50.3c0-0.7,0-1.1,0-1.7c0-5.8,0-11.5,0-17.3c0-2-0.3-4-1.1-5.8c-1.2-2.9-3.3-4.7-6.6-5.1
		c-2.6-0.3-5.1-0.3-7.6,0.3c-0.6,0.1-1.1,0.3-1.6,0.4c-2.3,0.9-2.5,1-2.5,3.6c0,6.4,0,12.6,0,19c0,3.3-1.2,5-4.5,6
		c-1,0.3-2,0.4-3.1,0.7c-0.3-1.2-0.4-34.2-0.2-37.4c0.3,0.1,0.6,0.1,0.9,0.2c2.3,1.1,4.8,1.2,7.4,0.4c3-1,6.2-1.6,9.5-1.4
		c3.9,0.1,7.6,0.9,10.7,3.2c3.1,2.2,4.9,5.5,5.7,9.1c0.3,1.6,0.6,3.2,0.6,4.8c0.1,5,0,9.9,0,14.9c0,1.9-0.8,3.3-2.5,4.5
		C124.3,49.7,122.5,50.1,120.5,50.3z"/>
	<path class="st0" d="M62.5,50.2c0-12.5,0-24.9,0-37.4c0.4,0.2,0.9,0.3,1.2,0.4c2,0.8,4.1,1,6.2,0.4c1.1-0.3,2.2-0.7,3.3-0.9
		c2-0.3,4.1-0.7,6.2-0.8c2.8-0.1,5.4,0.7,7.7,1.9c0.8,0.4,1,0.9,1,1.8c0,1.9,0,3.7,0,5.6c0,0.2,0,0.6-0.1,0.8c-0.2,0-0.3,0-0.4,0
		c-3.7-2-7.6-2.6-11.7-2.1c-1.7,0.2-3.3,0.9-4.8,1.7c-0.8,0.4-1,1-1,1.8c0,4.9,0,9.7,0,14.6c0,1.9,0,3.8,0,5.7
		c0,2.7-1.3,4.5-3.8,5.5C65.3,49.9,63.9,50.3,62.5,50.2z"/>
	<path class="st0" d="M2.2,6c2.1,0,3.6,0.6,4.7,2.2C7.5,9.1,8,10,8.5,10.9s0.9,1.2,1.9,1.2c2.8-0.1,5.5,0,8.3,0c0.4,0,0.9,0,1.4,0
		c0,1.1-0.4,1.8-0.9,2.5c-1,1.3-2.3,2.5-3.8,3.2c-1.6,0.8-3.2,1.4-4.9,2.2c0,0.1-0.1,0.2-0.1,0.3c0,4.6-0.2,9.3,0.1,13.8
		c0.3,6,3.1,10.8,7.8,14.7c0.4,0.3,0.9,0.7,1.3,1.3c-0.7-0.1-1.4-0.1-2.1-0.2c-2.7-0.4-5.2-1.3-7.7-2.7C5.3,44.8,3,40.8,2.6,35.6
		c0-0.6-0.1-1.1-0.1-1.7c0-8.8,0-17.5,0-26.3C2.2,7,2.2,6.6,2.2,6z"/>
	<path class="st0" d="M381.9,30.1c0-5,0-10,0-15.2c1.9,0,3.7,0,5.5,0c0.3,1.1,0.4,26.4,0,27.9c-5.9-5.4-11.6-11.2-17.7-16.7
		c0,5.5,0,10.5,0,15.7c-1.9,0-3.7,0-5.5,0c-0.3-1-0.3-26.1-0.1-28.2c5.9,5.6,11.7,11.2,17.5,16.6C381.6,30.2,381.8,30.1,381.9,30.1z
		 M365.9,17.9c0,7.5,0,14.7,0,22c0.6,0,1,0,1.7,0c0-0.6,0-1.1,0-1.6c0-4.9,0-9.8,0-14.7c0-0.6-0.1-1.1,0.2-1.8
		c5.9,5.6,11.7,11.2,17.7,16.8c0-7.5,0-14.7,0-21.9c-0.6,0-1,0-1.7,0c0,6,0,11.9,0,18.2c-3.1-3-6.1-5.7-9-8.5
		C371.9,23.6,369.2,20.7,365.9,17.9z"/>
	<path class="st0" d="M253.7,14.9c1.9,0,3.7,0,5.6,0c0,0.4,0.1,0.8,0.1,1.1c0,4.9-0.1,9.7-0.1,14.6c0,0.8,0,1.6,0.1,2.3
		c0.3,2.2,1.8,3.5,4.2,3.7c1.9,0.1,3.7-1.1,4.1-3c0.2-0.9,0.3-1.9,0.3-2.9c0-4.7,0-9.5,0-14.2c0-0.6,0-1,0-1.7c1.9,0,3.8,0,5.7,0
		c0,0.3,0.1,0.7,0.1,1c0,5.2,0,10.4,0,15.6c0,1-0.1,2-0.3,2.9c-1,4.8-5.7,8.1-10.6,7.7c-5.1-0.4-9.1-4.3-9.3-9.3
		c-0.1-5.8,0-11.6,0-17.4C253.6,15.4,253.7,15.3,253.7,14.9z M255.7,17c0,0.6-0.1,1-0.1,1.3c0,4.8,0,9.6,0,14.4c0,1.2,0.3,2.3,1,3.5
		c1.8,3.2,5.6,4.8,9.3,3.9c3.9-1,6.1-4.3,6.1-7.7c-0.1-4.8,0-9.6,0-14.4c0-0.3-0.1-0.7-0.1-1c-0.6,0-1,0-1.6,0c0,0.6-0.1,1-0.1,1.6
		c0,4.1,0,8.4,0,12.5c0,1.2-0.2,2.5-0.6,3.7c-0.6,2.2-3.2,3.9-5.6,3.9c-2.5,0.1-4.8-1.3-5.8-3.6c-0.7-1.3-0.8-2.9-0.8-4.3
		c0-4.1,0-8.1,0-12.3c0-0.4,0-1-0.1-1.4C256.7,17,256.3,17,255.7,17z"/>
	<path class="st0" d="M396.5,41.8c4.6-9.5,9.1-18.8,13.7-28.4c4.5,9.6,8.8,18.8,13.2,28.4c-2,0-3.8,0-5.6,0c-0.3,0-0.7-0.4-0.9-0.7
		c-0.7-1.2-1.2-2.5-1.8-3.8c-0.3-0.8-0.9-1.1-1.7-1c-2.3,0-4.7,0-6.9,0c-0.9,0-1.3,0.2-1.7,1c-0.6,1.3-1.2,2.6-1.8,3.8
		c-0.2,0.3-0.6,0.8-0.9,0.8C400.3,41.9,398.5,41.8,396.5,41.8z M420.5,39.7c-3.3-7.2-6.7-14.5-10.3-22.1c-0.6,1-0.9,1.8-1.2,2.5
		c-3,6.1-5.9,12.2-8.9,18.3c-0.2,0.4-0.3,0.9-0.6,1.3c1.9,0.2,1.9,0.2,2.6-1.2c0.6-1,1.1-2.1,1.4-3.1c0.3-0.9,0.9-1.2,1.8-1.1
		c3.1,0.1,6.2,0,9.4,0c0.3,0,0.7,0.1,1.1,0.1c0.7,1.4,1.3,2.8,2,4.2C418.4,40,418.6,40.1,420.5,39.7z"/>
	<path class="st0" d="M355.1,41.8c-2,0-3.7,0-5.4,0c-0.6,0-0.9-0.2-1.2-0.8c-0.6-1.2-1.2-2.6-1.8-3.8c-0.3-0.8-0.8-1-1.6-1
		c-2.3,0.1-4.7,0.1-7.1,0c-0.8,0-1.2,0.2-1.6,1c-0.6,1.2-1.2,2.5-1.8,3.6c-0.3,0.7-0.8,1-1.4,1c-1.6-0.1-3.2,0-5.1,0
		c4.6-9.5,9.1-18.7,13.7-28.3c2.3,4.8,4.5,9.5,6.6,14.1C350.6,32.2,352.9,36.9,355.1,41.8z M352,39.8c-0.1-1-9.1-20.5-10.1-21.9
		c-1.8,3.7-3.6,7.2-5.2,10.9s-3.7,7.1-5.2,11c1.9,0.2,1.9,0.2,2.7-1.2c0.6-1.1,1.1-2.1,1.6-3.2c0.3-0.7,0.7-0.9,1.3-0.9
		c3.2,0,6.5,0,9.7,0c0.8,0,1.1,0.3,1.3,0.9c0.4,1.1,1,2.2,1.6,3.2C350.2,40,350.2,40,352,39.8z"/>
	<path class="st0" d="M223.1,38.3c1.1-1.3,2.2-2.7,3.3-4c0.2,0.3,0.4,0.6,0.7,0.8c1.4,1.7,3.3,2,5.5,1.4c1.2-0.3,2.1-1.1,2.5-2.3
		c0.3-1.1,0.4-2.2,0.4-3.2c0-4.8,0-9.6,0-14.4c0-0.6,0-1,0-1.7c1.9,0,3.7,0,5.7,0c0,0.3,0.1,0.7,0.1,1c0,5.1,0,10.3,0,15.3
		c0,4.1-1.6,7.4-5.1,9.5c-4,2.3-9.5,1.4-12.6-2C223.4,38.7,223.3,38.6,223.1,38.3z M225.5,38c0.2,0.2,0.3,0.4,0.6,0.6
		c2.8,2.2,7.4,2.2,10.1,0c2-1.6,3.1-3.7,3.1-6.2c0-4.8,0-9.6,0-14.4c0-0.3-0.1-0.7-0.1-1c-0.6,0-1,0-1.6,0.1c0,0.7,0,1.1,0,1.7
		c0,4.1,0,8.1,0,12.3c0,1.6-0.3,3-0.9,4.5c-0.7,1.4-1.8,2.6-3.3,2.9c-2.2,0.6-4.3,0.4-6.2-1.1c-0.2-0.1-0.3-0.2-0.6-0.3
		c-0.2,0.1-0.4,0.3-0.6,0.4C225.7,37.6,225.6,37.8,225.5,38z"/>
	<path class="st0" d="M292.7,36.3c3,0,5.9,0,8.8,0c0,1.9,0,3.6,0,5.6c-4.8,0-9.5,0-14.4,0c0-9,0-18,0-26.9c1.9,0,3.6,0,5.5,0
		c0.2,1.8,0.1,3.5,0.1,5.2s0,3.6,0,5.2c0,1.8,0,3.6,0,5.2C292.7,32.5,292.7,34.3,292.7,36.3z M289.1,39.7c1.6,0.3,9.4,0.3,10.5-0.1
		c0-0.4-0.1-0.8-0.1-1.3c-2.9,0-5.8,0-8.7,0c0-7.1,0-14.1,0-21.1c-0.7,0-1.1,0-1.7,0C289.1,24.7,289.1,32.1,289.1,39.7z"/>
	<path class="st0" d="M313.4,14.9c1.8,0,3.6,0,5.4,0c0,8.9,0,17.8,0,26.8c-1.8,0-3.6,0-5.4,0C313.2,40.8,313.1,17.4,313.4,14.9z
		 M316.9,39.8c0-7.7,0-15.2,0-22.6c-0.6,0-1,0-1.4,0c-0.2,2.1-0.2,21.5,0.1,22.6C315.8,39.8,316.3,39.8,316.9,39.8z"/>
	<path class="st0" d="M132.8,47.2c0.7,0.7,0.7,0.7,0,2.7C132.8,48.8,132.8,48,132.8,47.2z"/>
	<path class="st0" d="M130.9,49.8c-0.3-0.9,0.2-1.9-0.9-2.6c0.6,0,1,0,1.4,0C130.6,47.9,131.2,48.8,130.9,49.8z"/>
	<path class="st0" d="M135.6,49.6c0.1-0.8-1.1-1.6,0-2.6C135.6,48,135.6,48.8,135.6,49.6z"/>
	<path class="st0" d="M134.6,48.8c0,0.3-0.1,0.8-0.1,1.1c-0.4-0.4-0.7-0.8-0.2-1.2C134.4,48.8,134.5,48.8,134.6,48.8z"/>
	<path class="st0" d="M405.1,32.4c1.7-3.5,3.2-6.8,4.9-10.4c1.7,3.6,3.2,6.9,4.8,10.3C413.8,32.7,407.3,32.8,405.1,32.4z
		 M412.3,30.4c-0.8-1.6-1.4-2.9-2-4.2c-0.1,0-0.2,0-0.3,0c-0.7,1.3-1.4,2.8-2.1,4.3C409.3,30.4,410.8,30.4,412.3,30.4z"/>
	<path class="st0" d="M341.8,21.9c1.7,3.7,3.2,6.9,4.9,10.5c-3.3,0.2-6.5,0.1-9.7,0C338.4,29,340.2,25.6,341.8,21.9z M339.4,30.4
		c1.7,0,3,0.1,4.6,0c-0.8-1.6-1.4-3-2.2-4.7C340.9,27.5,340.2,28.9,339.4,30.4z"/>
</g>
</svg>
