<?xml version="1.0" encoding="utf-8"?>
<!-- Generator: Adobe Illustrator 27.3.1, SVG Export Plug-In . SVG Version: 6.00 Build 0)  -->
<svg version="1.1" id="Layer_1" xmlns="http://www.w3.org/2000/svg" xmlns:xlink="http://www.w3.org/1999/xlink" x="0px" y="0px"
	 viewBox="0 0 1191.8 858.4" style="enable-background:new 0 0 1191.8 858.4;" xml:space="preserve">
<style type="text/css">
	.st0{fill:#191919;}
</style>
<g transform="translate(0.000000,1180.000000) scale(0.100000,-0.100000)">
	<path class="st0" d="M11780,10572.6c-20.7-7.3-39.3-20.7-45.4-31.8c-12.2-24.9-56.6-47.2-115.9-59.4c-24.3-5-38.3-11.2-31.3-13.9
		s19.3-1.1,27.1,3c16,9.1,41.9,1.8,44.4-12.6c1.9-11.5-91-76.1-144.4-98.6c-23.5-9.8-49.6-15-59.8-11.1c-21.1,8.1-36-0.5-22-13
		c14.3-11.8,7.9-23.6-22.8-43.2c-43.7-29.8-5.7-22,45.7,9.3c51.9,30.2,75.8,31.8,55.4,2c-11.3-15.4-10.6-18.3,5.2-19
		c9.5-1,16.8-2.9,15.9-5.2c-3-7.8-73.6-54.1-94.6-62.2c-25.3-10-32.8-22.3-21.9-40.8c8.8-16.8,32.8-17.1,45.8,0.3
		c13.4,16.3,27.5,10.9,43.7-16.8c12.6-20.9,12-22.5-7-32.2c-11.9-5.3-19.5-15.8-19.7-25.6c0.1-20.6-21.7-23.9-40.2-4.3
		c-8.6,7.8-16.3,13.4-18.5,12.5c-2.2-1-23.1-13.5-46.2-27c-23.1-13.5-44.8-30.3-47.2-36.5c-2.7-7-14.4-14.2-26.5-17.6
		c-12.5-2.3-33.7-8.5-47.5-14c-29-10.3-38-3.3-27.5,24c8.1,21.1,44.1,40.4,62.1,33.5c6.2-2.4,14.1,1.7,17.1,9.6
		c3,7.8,18.5,22.5,35.1,33.1c34.3,21.7,39.2,29.7,22.8,36c-6.2,2.4-12.9,1.4-14.7-3.3c-1.5-3.9-27.7-20.7-58.5-35.7
		c-30.1-15.3-57.3-32.6-59.4-38.1c-7.5-19.5-89-61.6-106.2-55c-14,5.4-12.1,31.5,2.9,40.1c6.8,3.7,11.6,11.7,10.8,16.5
		c-1.6,5.1,2,10,7.9,11.3c18.4,3.7,65.6,51.8,69,70.2c2.6,16,2.3,15.2-5.9-1.3c-11-26.2-40.8-36.3-64.9-24.3
		c-29.2,14.8-34,25.6-24.2,51.4c5.4,14,5.3,23.1-0.6,21.7c-5.6-0.5-9.8,4.7-9.5,12.6c-0.7,19.1,116.2,71.8,130.7,58.2
		c6.6-6.1,12-3.7,15.9,6.4c3.3,8.6,1.3,17.4-4.9,19.8c-35.9,13.8,5.2,39.2,138.4,87.5c49.7,17.6,50,18.4,58.8,55.3
		c4.4,20.7,4.3,36.9-0.2,36.8c-4-1.1-10.4-13-12-26.7c-4.2-22.6-6.6-24.3-23.8-17.7c-10.1,3.9-30.6,1.9-45-5.1
		c-14.3-7-29.3-11.1-34-9.3c-5,1-20.1-5.7-34.1-16.5s-33.3-16.8-43.3-14.7c-10.7,2.3-29-3.2-42.1-11.6
		c-13.4-9.2-38.8-14.7-58.5-12.5c-21.9,1.2-44.7-4.3-62.7-16.2c-31.4-21.1-65-34.1-77.8-30.1c-4.7,1.8-24.9-6.6-44.5-17.9
		c-40.2-23.1-70.7-25.7-79.4-6.2c-3.8,8.6,0.6,13.2,17.8,18.3c31.4,9.4,70,37.6,77.7,57.9c3.6,9.4,5,29.4,3.3,43.5
		c-1.4,14.9-0.9,32.6,1.5,38.8s-1.5,19.4-7.7,28.9c-10.8,14-14.7,15.5-23.7,8.2c-14.8-10.5-18.2-21.7-11.9-35.7
		c4.3-9.7,0.9-16.4-15-27.4c-11.5-9-24.2-14-28.1-12.5c-4.7,1.8-9-0.1-10.8-4.8c-4.5-11.7,12.8-15.7,33.8-7.6
		c23.2,9,31.2-0.3,26.2-29.8c-3.9-21.8-6-22.8-46.5-16.2c-13.7,1.7-25.7-1.8-28.1-8c-6-15.6-81.5-53.8-95.6-48.4
		c-6.2,2.4-7.9,12-3.4,23.7c4.2,10.9,2.4,25-5.1,33.3c-10.6,12.1-15.7,10.5-42.2-14.3c-20.2-20-31.3-37.2-33.1-53.6
		c-3.2-17.6-9.4-26.8-22.7-33.4c-17.3-7.7-18.8-7.1-25.5,15.2c-3.9,13.1-8.2,22.9-10.7,21.1c-26.9-16.5-53.2-40.5-55.5-51.2
		c-1.1-7.6-10.5-15.7-19.9-19.2c-15.3-4.9-17.6-4-21,10.7c-3,15.5-6.4,15.9-37.5,2.7c-40-17.8-98.9-10.4-109.8,12.6
		c-3.1,8.3-12.2,17.2-18.4,19.6c-20.3,7.8-2.7,35,26.4,40.9c14.7,3.3,33.5,10.4,41.7,15.3c8.5,5.7,21.8,7.8,29.6,4.8
		s20.5-2.5,27.6,1.9c17.1,9.6-2.2,26.8-52.7,47.1c-33.3,13.7-35.5,17.2-21.5,39.6c1.5,3.9,11.7,7.1,21.2,6.2
		c9.5-1,19.5,4.2,21.9,10.4s12,7.9,23.7,3.4c16.4-6.3,21-3.6,27.9,14.4c4.5,11.7,13.4,28,19.7,37.2c6.7,8.2,8.2,16.6,5,17.8
		c-4.2,0.7-47.8-14.8-97.3-34.3c-83-34.4-105-40.3-100.2-27.8c2.4,6.2,44.3,31.4,91.1,55.5c45.8,23.6,56,45.6,11.4,25.2
		c-17.6-8.5-33.9-18.3-35.7-23s-7.4-5.2-11.2-1.1c-4.9,3.7-19.9,4.1-33.1,0.2c-13.4-4.7-29.1-5.8-34.6-3.7c-6.2,2.4-13-1.3-15.4-7.5
		c-3.9-10.1-6.2-9.2-16.5,3.7c-13.5,18.6-6.2,32.8,12.7,23.8c7.5-3.8,14.3-0.1,18.5,10.8c3.6,9.4,24.5,26.4,45.9,37.9
		c37.9,19.5,39,20,23.6,31.2c-11.6,7.1-14.4,16.3-9.1,27.7c3.9,10.1,1.7,20.8-5.7,27.2c-16.6,12.7-8.7,31.1,15.5,33.4
		c11.5,1.9,19.1,7.9,19.5,15.8c-0.5,12.7,66.9,57.6,79.7,53.6c3.1-1.2,12.9-20.2,22.5-41.8l15.9-40.1l20.3,11
		c10.6,6.7,29.2,13,41.1,13.8c11.5,1.9,22.9,8.2,25.6,15.3c2.7,7,18.7,20.6,35.3,31.2c16.6,10.6,29,22,27.6,25.2
		c-4,10.5-31.3-2.3-44.1-21.6c-11.3-15.4-16.1-16.2-31-6c-20.2,14.9-44.5,9.9-52.3-10.4c-3.9-10.1-9.5-10.7-23.1-1.9
		c-21.9,12.9-21.2,17.1,15.5,49.6c17.6,15.6,32.8,22.3,40.3,18.6c6.4-4.3,25,2.1,42.5,15c16.1,11.7,34.5,19.9,40,17.8
		c6.2-2.4,19.5,4.2,30.5,14.2l20.1,17.4l-37.9,11c-51.7,14.5-60,14.1-59.6-1.3c-0.1-7.1-17.1-21.2-43-32.7
		c-31.6-14.7-46-17.3-57-8.6c-12.8,8.5-39.4-0.1-139.3-43.2c-135.5-59-142.4-60.8-153.9-51.1c-3.8,4.1-14.6,3.8-22.8-1.1
		c-7.9-4.1-20.9-5.4-28.7-2.4c-20.3,7.8-247.5-96.6-286.9-131.6c-12.1-10.6-26.2-16.8-31.6-14.7c-5.5,2.1-32.2-9.1-59.1-25.7
		s-59.9-32.5-73.6-35.3c-12.5-2.3-25.9-11.5-29.2-20.1s-9.9-14.1-13.8-12.6c-4.7,1.8-21.5-2.5-36.7-9.2
		c-16.2-7.2-41.1-13.8-56.8-14.9c-15.4-0.4-43.4-5.7-62.1-10.2c-43.9-11.8-58.5-5.3-75.6,31.7c-7.2,16.2-23.4,39.4-34.5,50
		c-12,10.9-19.8,25.5-17.4,31.7c10.2,26.5-121.4,120-144.1,102.8c-6.3-4.7-10.2-3.2-16.1,7.1c-8.1,13.9-23.4,9-147.8-44.4
		c-34.3-14.6-69.2-26.3-79.8-25.8c-9.5,1-19.5-4.2-22.2-11.2c-3.9-10.1-45.3-36.3-120.7-76.4c-17.1-9.6-19.3,17.3-5.7,62.2
		c7.7,24.8,13.1,50.5,11.3,57.4c-1,6.7-0.9,16.4,0.6,20.3c5.1,13.3-41.6,57.2-78.5,73.1c-26.2,11-33.3,18.2-28.5,26.2
		c3.5,6.7,0.3,12.4-8.1,13.9c-7.3,1.9-14.2,7.3-15.1,12.1c-3,15.5-55.5,14.1-83.7-1c-22.8-12.7-26.2-12.3-33.3,2
		c-5.8,13-3.3,21.8,12.8,42.6c18.9,25.9,34.1,28.1,43.7,6.5c4.3-9.7,12.5-9.3,34.2,0.3c15.1,6.7,32,11,35.9,9.5
		c4.7-1.8,19.9,0.4,34.1,4.8c14.2,4.4,32.5,5.4,40.3,2.4c9.4-3.6,19.4,1.5,27.9,14.4c16.4,24.1,71.9,44.9,96.4,36.4
		c13.3-5.1,19-1.9,24.4,12.1c4.2,10.9,13.6,19,23.3,18.8c7.9-0.4,31.4,9.4,52,21.2c32.3,18.9,37.4,25.1,37.2,45.7
		c-0.2,13.5-4,33.8-8.6,45.4c-6,14.8-5,24.3,2.7,30.3c16.4,12.5,26.4,40.9,18.2,52.1c-4.3,5.2-20.8,1.7-41.5-10
		c-38.8-21.8-50.2-21-58.6,3.7c-2.8,9.1-12.5,16.4-22.8,17.7c-9.5,1-21.3,10-26.4,20c-8.8,16.8-11.9,18-42.1,16.2
		c-17.5-1.3-48,3.2-66.7,10.4c-19.5,7.5-55.8,13.3-82,12.7c-68,0.1-127.7,19.5-155.4,52.5c-35,39.4-45.9,39.1-30.5-2.6
		c15.3-41.7,12.6-55.9-12-66.1c-25.1-11.8-52,2.1-58.2,30.4c-3.5,16.6-12.8,27.3-28.4,33.3c-19.5,7.5-23.5,6.3-29.2-13
		c-5-17.8-10.7-21-33.9-18.3c-28.5,2.9-47.3-15.9-25.4-24.3c7-2.7,9-11.5,4.8-22.4c-3.9-10.1-4.5-23.4-1.1-30.9
		c3.8-8.6,1.8-14.1-9.7-20.5c-20.3-11-34.6-3.7-37.7,20.7l-2.8,20.8l-20.9-12.6c-12.5-6.8-24.4-19.3-27.4-27.1
		c-7.2-18.7-22.8-12.7-61.8,25.5c-29.4,28.3-33,30.6-59.4,27.3c-39.4-4.6-45.8-0.3-45.7,25.6c0.1,14.3-5.8,24.6-15.9,28.5
		c-35.9,13.8-41.7,31.2-21.9,66.6c15.9,29.7,16.7,36.6,4.9,61.7c-6.4,15.9-11,32-9.5,35.9c1.8,4.7-9.6,10-27.7,14.2
		c-113.3,22-137,37.4-100.1,63.5l20.3,15.5l-49.9,19.2c-41.4,15.9-52.7,23.8-60,41.9c-6,14.8-16.2,23.2-31.6,27.3
		c-22.8,6-24.4,4-42.4-35.7c-28.6-65.1-37.8-75-66.3-74.8c-14.8,1.2-26-2.5-24.9-6.6c0.8-4.8-4.9-15.1-13-24.6
		c-7.8-8.6-13.1-20.1-11.4-25.2c1.6-5.1,2.5-26,0.8-46.9c-1.8-28-4.9-38.4-14.6-42.7s-14.4-2.5-18.7,7.2
		c-7.2,16.2-17.1,20.9-21.3,10c-1.5-3.9,1.7-9.6,7.9-12c6.2-2.4,8.8-16.8,4.8-34.1c-4.3-25.2-9.6-32.1-41.1-48.7
		c-100.3-53.7-151.6-75.2-171.3-73c-11,1.6-41.5-10-67-25.3c-25.3-14.5-48.5-26.1-51.7-24.9c-8.6,3.3-83.4-30.7-115.4-53.3
		c-29.2-20.1-36.2-40.7-16.7-48.2c17.2-6.6,12.5-28.1-7.7-36.4c-26.4-10.5-38-3.3-29.6,18.5c13.2,34.3-3.3,45.1-49.4,32.4
		c-43.6-11-60.3-5.5-33.9,12.1c27.8,18.9,32.7,26.8,22.4,39.7c-8,9.4-7.4,18.1,3.1,33.7c16.7,24.9-0.2,36.8-27,18.4
		c-23.2-16.2-93.1-35-107.5-30.4c-6.2,2.4-32.2-4.6-57.1-15.7c-40.7-17.5-48.2-18.2-58.2-4.5c-14.7,20-18.9,20.7-24,7.4
		c-2.7-7-14.2-8.9-30.4-4.5c-19.3,5.6-31.1,3-44.9-9.6c-12.7-12.1-24.8-15.6-38-10.5c-10.1,3.9-27.6,5.2-37.9,3.8
		c-15.5-3-20.9-0.9-26.9,13.9c-11.5,25.9,3.8,37.9,46.9,35.7c40.4-2.1,61.3,10.5,35.6,20.4c-8.6,3.3-20.2,10.4-26.3,15.5
		c-15.3,13.9,6.3,63,34.3,80c19.9,12.1,24.1,11.4,34.3-1.5c7.3-9.1,15.6-17.6,20.3-19.4c10.9-4.2,17.8,18.3,8.3,26.4
		c-17.1,13.7,90.9,96.7,114.3,87.8c5.5-2.1,16.6,3.5,23.3,11.7c13.9,15.3,40.1,15.9,116.3,1.9c15.2-2.3,25.9-0.1,25.4,5.5
		c-0.8,4.8,9.1,14.4,22.4,21c25.1,11.8,29.1,29.1,8.8,36.9c-17.2,6.6-8.3,15.7,25,25.3c42.1,11.6,50.9,44,18.6,67.2
		c-16.2,11.6-21.6,20.8-17.4,31.7c8.1,21.1-17.2,53.2-49.6,62c-21.7,6.5-28.9,3.9-37.1-12.6c-13.6-26.1-39.7-35.8-39.8-15.1
		c0.2,33.1-16.4,17.9-31.9-31.6c-14.6-42.7-20.1-52.3-35.9-56.1c-16.1-4.6-18.1-7.4-14.1-25c2.4-17,0.6-21.7-11.1-28.9
		c-8.9-4.6-20.4-6.5-25.9-4.4c-6.2,2.4-13.6-2.8-16.9-11.4c-3.3-8.6-9.1-14.4-13.8-12.6c-3.9,1.5-6.3,6.9-4.8,10.8
		c6.3,16.4-12.1,12.7-33.1-7c-14.9-13.1-20.6-23.4-17.3-31c2.4-5.4,1.5-19.4-2.4-29.5c-5.7-14.8-9.7-16-20.7-7.3
		c-10.2,8.4-15,7.6-19.8-4.9c-6.6-17.2-50.8-53-87.6-72c-19.4-8.7-27.7-9.1-36.2,1.4c-8.8,9.7-14.9,10.2-28.6,0.2
		c-9.8-7-21-19.7-24-27.5c-3.3-8.6-11-14.6-16.3-14.4c-6.4-0.2-9.5,5.5-6.9,12.5c3,7.8-2.2,15.2-14.7,20
		c-10.9,4.2-21.3,2.8-23.4-2.7c-2.4-6.2-13.6-14.5-25.2-19s-23.4-14.3-26.4-22.1s-17.9-20.9-33.9-30c-25-13.7-28.6-18.6-25.1-35.1
		c3.2-17.3-0.2-21.4-28.5-34.7c-17.3-7.7-46.3-18-64-22c-17.9-4.8-34.4-12.7-36.2-17.4c-2.1-5.5-15.8-10.9-31-13.2
		c-14.9-1.5-32.2-9.1-38.6-16.5c-12.1-15.1-23.4-14.3-26.1,2c-1.6,5.1,12.3,20.4,29.5,32.5c44.6,32.1,43.5,38.8-1.1,15.7
		c-21.1-10.7-42.9-18.5-49.4-16.8c-6.1,0.5-32.9-8.8-59.5-21.9s-54.7-21.1-62.5-18.1s-17.6,3.2-21.7-0.6c-3.8-3-23.3,0-42,7.2
		c-27.3,10.5-36.3,10.4-45-0.6c-13.7-17.1-33.5-10.4-33.4,11c0.5,22.2-8.7,31.1-31.6,31.9c-13.5-0.2-26.7,7.5-43,25.5
		c-30,33.9-50.9,28.5-54.6-14c-2.3-22.4-6-27.3-20.9-28.7c-9.6-1.7-21.1-10.7-25-20.8c-8.7-22.6-24.4-23.8-59.4-3.2
		c-33,18.9-62.5,9.7-67.9-20.5c-4.5-23.3-41.3-54-53.6-43.9c-4.1,3.4-22.6-7.5-39.7-24.2c-37.6-34.8-125.9-99.4-140.3-101.9
		c-5.9-1.3-24.4-12.1-41.1-25.4c-17.2-12.2-43.1-23.7-59.1-25.7c-22.6-3-30-8.2-38.4-30c-12.6-32.8-54.6-48.9-80-31.1
		c-16.9,11.9-29.2,3.2-17.2-12.2c3.8-4.1,2.7-16.3-1.5-27.2c-5.4-14-13.9-19.8-31.6-19.2c-14,0.9-35-7.2-46.8-17
		c-25-20.8-49.4-16.8-40.5,6.6c4.8,12.5,0.5,17.7-17.4,24.6c-14.8,5.7-21.9,12.9-19.2,19.9c4.5,11.7-19.3,17.3-54,10.9
		c-18.1-2.9-18.4-3.7-9.9-25.8c7.1-18.8,5.8-24.6-10.7-44.2c-10.9-12-21.9-29.2-25.2-37.8s-13.3-18.2-21.6-21.3
		c-8.3-3.1-18-11.9-21-19.7s-16.4-17-30.8-19.5c-14.7-3.3-24.8-11.1-24.1-18.5c-0.4-7.9-6.7-12.7-16.1-11.7
		c-8.4,1.4-22.9-8.2-32.6-19.7c-9.3-12.5-25.6-22.4-37.6-23.2c-10.9-0.3-21.4-4.3-23.2-9c-1.5-3.9-17.9-16.4-36.1-26.4
		c-28.2-15.1-33.8-15.7-41.4-2.9c-11.5,21.4-6.3,30.2,27.5,45.9c24.1,11.4,27.7,16.2,23,29.7c-4.7,13.4-1.3,17.5,18.7,27.7
		c19.7,9.4,25.4,17.1,30,43.1c4.8,24.1,11.3,34.2,32.6,47.5c30.8,19.5,29.3,34.4-1.8,18.6c-27.3-12.8-29.9-12.7-42.1,11.7
		c-5.9,10.3-10.8,14-12.5,9.3c-2.1-5.5,0.3-10.9,5-12.7c3.9-1.5,8.5-17.6,8.7-35.6c0.7-30.7-0.2-33.1-19.2-38.3
		c-11.8-2.6-23.9-13.2-27.8-23.4c-4.2-10.9-20.8-26.1-38.3-34.5c-30.4-16.1-30.4-16.1-50.5,6c-13.9,15.2-28.1,22.4-46,24.8
		c-35.3,3.7-30.7-16.9,7.8-37.9c63.5-35.1,63-34.1,46.2-61.6c-12.3-20.4-12.8-26.4-2.7-30.3c14.8-5.7,10.7-21.1-12-42.9
		c-13-12.9-20.5-13.6-53.7,0c-20.8,8.9-39.1,12.3-40.6,8.4c-1.8-4.7-15.4-12-31-17.7l-28.4-8.8l21.3-2.8c11.8-1.9,27.2-1.5,34.5,1.1
		c9.1,2.8,14.6,0.7,18.4-8c6.3-14-8-25.6-23.6-19.6c-6.2,2.4-13.3-2-16.6-10.6c-3-7.8-11.9-16.9-19.9-19.2
		c-8.3-3.1-20.2-12.9-26.4-22.1c-14.2-20.5-43-14-49.8,10.2c-3.6,13.9-12.4,11.9-57.7-12.8c-35-18.8-55.9-35.9-60.9-49.1
		c-5.7-14.8-10.9-19.1-17.5-13c-11.2,10.6-37.4-1.8-69.4-31.6c-16.3-14.4-29.7-19-45.9-14.6c-14.6,3.8-20.8,8.9-17.8,16.7
		c5.4,14-13.1,49.8-26.3,50.4c-16.6,1-37.1-47.6-29-68.6c6.6-17.8,4.9-19.8-21.6-32.9c-15.4-7.5-40.4-21.2-55.3-29.8
		c-26.3-15-29-14.8-49.3,4.6c-19.8,18.4-22.9,19.6-40.6,8.4c-20.5-13.6-50.4-84.5-71.8-173c-11-45-11.9-47.4-28.3-41.1
		c-10.9,4.2-14.6,11-10.4,21.9c3.3,8.6,2.9,16.8-1.8,18.6c-12.5,4.8-131.8-42.5-137.4-54.7c-2.4-6.2,56.3-26.1,73.8-24.7
		c11.9,0.8,19.1-3.8,24.4-15.6c9.4-19.7-9.2-44.8-31.1-43.6c-11.3,0.8-16.9-4.3-18.4-15.3c-1-9.5-6-15.6-10.7-13.8
		s-7.4,6.4-5.9,10.3c1.5,3.9-6.1,12.2-16.4,17.9c-11.1,6.1-21.4,19-22.8,29.3c-5.4,39.7-20.1,48-35.1,20.6
		c-7.6-15-7.1-27.7,1.8-41.9c10-18.2,8.9-25.8-4-47.7c-21.4-34.8-38-49.9-51.2-44.8c-12.5,4.8-14,24.2-3.8,50.7
		c9.3,24.2-3,45.9-21.1,35.9c-9.2-5.4-11.8-9.8-7.1-16.1c11.2-15.1-2.8-33-17.4-22c-11.3,7.9-15.6,6-21.6-9.6
		c-5.4-14-14.6-19.5-34.2-19.1c-15.1,0.4-28.5-4.3-30.6-9.7c-6.3-16.4-23.1-13.5-44.2,6.2c-18.6,17-22,17.4-41.8,5.3
		c-11.7-7.1-22.3-18.3-22-24.7c-0.1-14.3-15.7-31.6-25.9-27.7c-3.9,1.5-3.1,8.3,3.4,15.7c11,14.6-7,37.6-21,26.9
		s-17.2-47.1-5.5-51.6c16.4-6.3,4.9-26.9-16.5-31.3c-14.4-2.5-19.7-9.4-22.9-27c-4.7-28.6-23.1-25.2-35.2,6.3
		c-9.5,24.2-34.8,37.6-41.4,20.4c-2.4-6.2,0.2-13.5,6.4-15.9c13.3-5.1,13.3-32.9,0.5-47.7c-8.9-9.1-34.6-10.9-56.5-2.5
		c-5.5,2.1-6.8,12.5-2.7,23.4c10.5,27.3-15.3,25.6-35.3-3.4c-9.6-13.3-24.8-22.7-39.7-24.2c-13.8-1-29.7-7.4-35.3-15.1
		c-7-8.9-17.7-11.1-30.2-6.3c-30.4,11.7-54.3,5.6-56.5-14.1c-1.1-12.1-6-15.6-14.6-12.3c-14.8,5.7-23.3-11.7-17.8-37
		c2.5-14.4-2.1-24.2-22.8-47.7c-35.3-38.4-39.2-53-20.1-63.9c12.7-6.7,15.8-19.5,13.9-50.1c-3-42.7-13.5-58.4-23.6-35.7
		c-8.2,18.4-30.6,25.2-41.5,13.2c-5-6.1-14.6-7.8-21.1-3.6c-6.4,4.3-15.7,3.4-19.1-0.7c-10.9-12,20.2-22.1,37.3-12.5
		c16,9.1,37.2,3.6,33-7.3c-4.8-12.5-48.6-44.9-60.2-44.9c-6.4-0.2-17.9,6.9-24.7,14.9c-10.1,11-15.6,13.1-23.2,7.1
		c-9.5-6.2-12.7-5-16.8,10c-2.8,9.1-12.1,19.9-20.7,23.2c-8.6,3.3-18.9,16.2-21.2,28.7c-6.2,21.2-6.5,20.4-19.3-17.7
		c-11.9-35.7-15-39-32.3-35.1c-10,2-19.6,0.3-21.1-3.6c-1.8-4.7,1.8-7,6.6-6.1c14.4,2.5,40.6-62.2,31.5-76.6
		c-4.6-7.2-14.3-11.5-22.7-10.1c-11,1.6-12.4,7.4-6.4,23c6.9,18,5.9,20.1-11.9,18c-16.3-2.7-18.8,0-17.6,14.8
		c2.5,20.5-18.9,32.3-39.6,20.6c-7.9-4.1-24.8-3.9-38.1,1.2c-22.6,8.7-22.9,7.9-29.5-20.9c-5.1-24.9-11.8-33.1-37.4-48.3
		c-18.8-11.6-38.3-15.7-48.4-11.9c-12.5,4.8-19.7,2.2-23.9-8.7c-3.3-8.6-26.5-24.7-51.4-35.8c-48.6-21.6-62-30.8-100-64.6
		c-14.1-13.4-28.6-18.6-38-15c-10.9,4.2-15.5,1.5-15.4-7.5c-0.1-7.1-8.3-14.7-18.2-17.2c-9.1-2.8-21.9-10.4-27.7-16.2
		c-5.3-6.9-17.1-9.6-24.1-6.9c-7.8,3-23.8,1.1-34.4-5.6c-19-9.7-21.3-8.8-34.3,8.7c-10.9,15.8-15.6,17.6-25.9,11.7
		c-10.3-5.9-8.5-12.8,8.2-34.5c24.3-29.9,23.7-43.1-2.7-37.5c-11.5,2.6-22.3-2.2-30.2-13.5c-8.8-13.6-17.9-16.4-38.8-10.2
		c-14.6,3.8-29.8,13.2-34.8,21.4c-6.8,12.5-11.1,13.2-24.4,4c-9.5-6.2-25.9-16-35.9-21.1c-12.8-7.6-16.4-12.5-11.1-17.2
		c16.3-13.4-0.2-28.6-21.3-20.5c-14.8,5.7-35.4,1.1-72.7-16.8c-28.4-13.3-57.1-22.8-64.1-20.1c-7.8,3-14.9-1.4-18.8-11.6
		c-3.6-9.4-21.1-22.3-40.3-30.2c-27.5-10.9-37.3-10.8-57.1,0.4c-19.3,12.8-24.1,11.9-33.7-1.4c-6.7-8.2-9.7-20.5-7.1-27.7
		c5.4-16.4-11.8-33.1-33.7-31.8c-10.6,0.5-37.1-8.1-58.9-20.4c-21.4-11.5-88.7-42.1-148.6-67.4c-61-25.8-124.6-58.7-142.7-73.3
		s-36.6-25.4-40.5-23.9c-4.7,1.8-9.6-1.7-11.4-6.4c-2.1-5.5-19.6-18.4-37-28.8c-31.7-17.4-33.6-17.5-42.6,1.1
		c-5.9,10.3-19.1,22.6-30.8,27c-10.9,4.2-27.1,20.3-35.4,36c-21.3,37.7-46.3,47.3-56.2,21.6c-3.9-10.1-3.7-23.6,0.6-28.9
		c3.5-4.9,8.4-24.7,11-43.6c2.9-29.8,0.2-36.8-18-58.5c-24-27.5-22.2-41.6,5.8-36.2c37.9,7.8,33.2-9.2-19.2-68.7
		c-7.8-8.6-13.8-24.3-13.5-35.1c-0.8-11.3-4.3-25.2-9-30.6c-7.8-8.6-6.2-9.2,9.1-4.4c15.6,5.7,18.7,4.5,21.1-8.1
		c1.5-7.7-1.7-25.3-6.8-38.6c-9.9-25.8-7.2-30.4,27.6-40.1c24-7.4,18-18.5-26-49.1c-30.9-22.2-36.2-29.1-32.4-44.9
		c1.4-10.4,7.3-20.7,12-22.5c3.9-1.5,13.8-17.8,21.4-35.1c8.4-20.2,21.4-35.1,34.7-40.2c16.4-6.3,20.4-12.3,17.3-27.2
		c-3.4-15.7-0.3-19.6,26.8-28.2c32.9-9.9,128.3-6.3,132.8,5.4c3.3,8.6,41.4,14.5,44.8,7c2.1-6.2-57.3-51.4-72-54.7
		c-4.8-0.8-11.7-7.1-14.4-14.2c-2.4-6.2-15.4-19.2-29.6-28c-27.8-18.9-22.1-27.3,7.4-10.9c55.3,29.8,159.2,92.9,161.3,98.4
		s79.3,57.3,108.9,73.7c20.3,11,35.9-2.1,34.7-28.5c-0.4-26.7,24.2-51.4,63.1-61.8c21.7-6.5,36.1-27.3,30.1-42.9
		c-2.4-6.2-8.9-9.1-15.1-6.7s-21.4,0.2-34.9-4.5l-24.4-7.6l16.9-7.4c9.4-3.6,29.5-21.2,44.8-39.6s32.3-34.8,38.6-37.2
		c6.2-2.4,14.5-13.6,19-25.2c13.5-34.7,38.2-33.5,79.8,2.5c20.4,18.1,58.1,39.5,83.9,48.4s76.3,26.2,110.8,39
		c35.2,12.4,69.4,24.4,74.5,26c6.2,2.1,19.4,8.7,30.1,15.3c11.1,5.6,28.9,7.7,39.1,3.8c12.5-4.8,28.3-1,44.9,9.6
		c14.2,8.9,34.9,16.2,46.7,14.3c11.3-0.8,27.6,1.9,35.8,6.9c8.2,4.9,27.2,10.2,42.1,11.6c16,1.9,34.3,10.1,42.6,17.7
		c7.5,7.9,19.9,12.1,26.1,9.7c12.8-4,89.7,23.8,93.9,34.7c1.5,3.9,8.9,9.1,17.2,12.2c8,2.3,15.2,9.4,15.3,16.5
		c-0.2,13.5,46.9,12.5,76.7-0.8c16.6-8.2,20.1-5.9,28.8,16.7c6.6,17.2,17.1,28.3,30,31.5c16.1,4.6,19.4,8.7,15.7,24.4
		c-3.2,17.3-1.8,18.6,16.1,11.7c30.4-11.7,110.9-5,111,9.3c0.1,7.1,4.1,15.4,9.1,18.9c5.2,4.3,11.9,12.4,14.3,18.7
		c8.4,21.9,37.5,4.4,63.4-37.8c15.1-23.7,29-38.9,33.9-35.4c16.4,12.5,28.5-2.9,23.1-28.6c-13.9-73.5-14.4-84,0.6-98.7
		c8.3-8.6,17.7-31,21-50.2c5.7-31.7,4.8-34.1-12-38.4c-23-6.4-30.5-2.6-30.6,13.5s-12.7,22.8-17.8,9.5c-1.8-4.7-11.2-12.7-20.1-17.4
		c-14.6-7.8-15.8-10.9-8-30.1c9.8-23.5,4.2-31.1-16.1-23.4c-7,2.7-19.9-0.4-28.9-7.7c-8.8-6.5-29.2-13-45.3-13.1
		c-17.2-0.6-23.7-3.4-15.4-7.5c19.5-7.5,8.9-25.8-20.6-35.1c-16.1-4.6-28.5-15.9-33.6-29.2c-8.7-22.6-95.2-75.4-113.2-68.5
		c-5.5,2.1-14.9-1.4-20.7-7.3c-5.3-6.9-18.4-15.3-28.1-19.6c-23.8-10.6-85.3-119.5-102.9-181.7c-15.3-51.4-10.6-88.2,14.5-113.9
		c7.6-8.3,11.2-22.2,7.9-30.8c-3.3-8.6-2.9-16.8,1-18.3s6.1-12.2,4.2-24c-1.5-15.5,2.2-22.3,16-25.9c14.6-3.8,16.3-8.9,8.8-28.4
		s-6.2-25.4,11.2-33.8c10.3-5.8,22-17.4,24.3-25.4c3.1-8.3,10.6-16.6,16.9-19c5.5-2.1,10.9-11.3,10.5-19.3c0.1-9,4-22.1,8.5-29.2
		c7.1-11.7,6-14.8-6.8-22.5c-9.2-5.4-20.6-4.6-28.3,1c-9.4,8.1-14.5,6.5-19.3-6c-3.6-9.4-14.2-16-27.4-15.4
		c-11.6,0-25.4-5.5-31.2-11.3c-5.3-6.9-16.2-7.2-26-2.5c-9.5,5.5-26.4,8.3-37.8,6.5s-25.4-1-31.7,1.4c-6.2,2.4-20.5-2-31.7-10.2
		c-12.6-9.5-27.8-11.7-39.5-7.2c-19.5,7.5-34.2-7.5-23-22.5c3-3.8-12-19.6-33.6-36.3c-27.4-19.9-43.3-26.4-50.6-20
		c-8.5,5.9-15.7,3.4-24.2-9.5c-7.3-9.7-16.1-16.2-20-14.7c-4.7,1.8-9.6-1.7-12-7.9c-9-23.4-251.9-94-264.4-77.6
		c-3,3.8-2,13.3,1.2,21.9c3,7.8,2.6,16-0.6,17.2c-7,2.7-42.7-36.5-49.5-54.4c-5.1-13.3-95.8-42-112.2-35.7c-4.7,1.8-18.6-1.8-30.3-9
		c-18.2-10-23.2-9-33.1,4.7c-16.8,21.7-19.4,21.8-27.8-0.1c-11.1-28.9-24.5-26.4-45.9,8.7s-25.9,35-13.5-0.2
		c12.7-34.4,6-42.6-42.7-55.2c-51.1-11.7-51.8-11.4-50.4,8.6c0.4,7.9-1.9,4.3-4.9-8c-4.3-18.1-10.5-22.8-25.9-23.2
		c-11.6,0-24.5-3.1-29.1-5.8c-4.1-3.8-15-4.1-22.8-1.1s-30.5-2.6-51.1-11.7c-27.6-13.6-40.6-14.8-51.9-6.9
		c-12.8,8.5-18.7,7.2-28.3-6.1c-14.2-20.5-70-44.8-78.5-34.3c-7.7,10.1-68.5,5.7-79.7-7c-4.4-4.6-2.7-18.7,3.2-29
		c9.1-16,8.4-24.7-1.5-38.8c-13.9-19.8-36.5-18.2-46.2,3.4c-3.8,8.6-7.7,10.1-13.3,5.1c-4.9-3.5-11.9-5.3-16.6-3.5
		c-11.7,4.5-1.2,20.2,17.8,25.4c16.1,4.6,16.7,6.1,6,22.8c-10.2,15.5-13.3,16.7-29.2,10.3c-10.5-4-20.6-11.8-22.7-17.2
		c-2.1-5.5-15.1-11.2-28.9-12.2c-14.6-0.7-29.5-9.3-35-18.8c-5.2-8.8-12.1-15.1-16-13.6s-12.1-3.4-17.7-11.1
		c-13.7-17.1-43.2-7.6-35.7,11.9c3.6,9.4-2.3,8-19.5-4.2c-13.4-9.2-22.8-12.7-20.7-7.3c2.7,7-2.8,9.1-25.1,6.9
		c-19.7-2.3-28.9-7.7-29.1-17.5c0.6-10.1-2.6-11.5-10.5-4c-13.2,12.2-38.4,4.9-38-10.5c-0.2-16.9-29.6-23.5-47.3-11.4
		c-16.6,12.7-39.9,8.1-46.4-9c-3.3-8.6,2.6-11.8,26.8-16.5c26-4.6,28.8-6.6,20.4-16.8c-5.8-5.8-14.7-15-20.8-21.6
		c-7.8-8.6-6.1-11.1,8.4-13.1c22.4-2.3,31.2-23.6,18-46.3c-6.1-11.1-4.8-19.6,3.1-24.5c8-4.9,15.5-1.5,21.6,9.6
		c11.5,20.7,44.2,12.6,34.6-7.9c-3.8-7.5-3.1-14.9,0.9-16.4c4.7-1.8,9.8,7,11.7,18.8c5.4,25.7,25.4,28.8,42.6,6
		c9-11.5,18.4-15.1,41.4-15.9c16.9-0.2,31.9-3.3,33.8-7.6c6.7-15.1-16.5-26.8-50.3-23.7c-20,1.4-55-5.7-78.5-15.5
		c-45.1-19.4-76.6-15.4-67.3,8.8c4.2,10.9,0.4,15.1-16.4,17.9c-15.7,3.4-21.4,0.2-23.3-11.7c-2.1-24.2-28.3-29.4-39.8-8
		c-8.3,15.7-10.6,16.6-33.7,10.2c-20.1-5.7-23.5-9.8-19.3-22.2c4-10.5-0.9-25.6-12.7-47.1c-15.8-27.1-16.5-31.3-4.4-27.9
		c8,2.3,25.3,2.8,38.2,1.5c13.7-1.7,35.5,1.6,49.9,8.6c14,6.3,37.4,8.9,51.9,6.9c13.7-1.7,26.4-1.2,27.9,2.7
		c1.2,3.1,15.9,6.4,32,6.5c15.4,0.4,49.1,8.9,73.3,18.4c35,14.3,47,15.1,61.6,4.1c10-6.5,19.6-16.5,19.7-21
		c2.3-12.5-39.7-28.7-57.6-21.8c-7.8,3-21.4,0.2-29.4-6.6c-9.1-7.3-22.4-9.3-35.6-4.2c-26.1,9.1-54.7,2.2-61.6-15.8
		c-2.7-7-12.2-17.7-20.2-24.5c-13.7-10-14.4-14.2-7.4-24c16.9-23.5,35.4-24.3,44.4-0.9c5.7,14.8,9.2,17.1,11.2,8.2
		c1.9-11.5,5.8-13,23.4-9c11.5,1.9,25,9.2,30.4,16.1c7.3,9.7,14.5,9.7,26.5,1.5c15.4-11.3,39.4-7.1,99.4,16.4
		c14.5,5.2,27.8,7.2,30.1,3.7c3-3.8,14.2-2.8,25.7,1.8c40.1,15.9,51.9,18.6,62.8,14.4c6.2-2.4,30.4,4.5,54.9,14.7
		c41,18.3,55.6,18.9,84.9,4.1c6.7-3.5,16.9-0.2,22.9,8.2c6.2,9.2,16.1,11.7,28.6,6.9c9.4-3.6,26.7-7.5,37.7-9.1
		c14-0.9,17.8-5,14.2-14.4c-6-15.6,12.4-23.6,30.9-12.8c8.2,4.9,19,5.2,24.4,0.5c9.9-9.2,20,10.2,11,21.7
		c-7.7,10.1-2.7,23.4,8.3,19.2c4.7-1.8,11.2-10.6,15-19.2c4.6-8.9,9.6-17.1,12.7-18.3c8.9-2.5,49.3,25.8,40.7,29.1
		c-3.9,1.5-11.6,0-15.5-3c-16.4-12.5-30,3.5-33.9,39.9c-1.7,21.2-0.6,40.5,3.3,43.5c12.9,10.3,29.1-1.3,28.2-19.8
		c-1-16.6,5.8-24.6,24.1-28.1c5-1,14.7-8.3,22.8-17.7c11.8-13.5,17.6-14.8,35.4-8.2c10.5,4,24.8,3.9,30.1-0.8
		c9.9-9.2,23.9,1.6,33.5,26.5c6.9,18,76,25.4,97,10.2c18.5-12.5,56,3.6,65.3,27.8c7.5,19.5,60.9,30.3,60.4,12.6
		c-0.1-14.3,24.3-13.8,29.9,1c2.1,5.5,16.4,17,31.8,24.5l26.5,13.1l16.8-26.2c9.7-14.5,19.2-27.1,22.3-28.3
		c10.1-3.9,61.1-60.2,62.8-69.8c0.8-4.8,13.7-13.3,28.5-19c21.1-8.1,42.6-5.6,95.5,10.8c37.6,11.5,80.7,23.6,97,26.3
		c15.8,3.8,63.2,22.3,105.6,41.8c75.1,34.7,129.3,45.3,206.4,40.8c36.7-2.4,36.7-2.4,51.7,36.6c14.4,37.5,16.8,39.2,95.4,73.5
		c45.1,19.4,84.6,33.8,88.5,32.3s14.9,1.4,25.7,6.3c10.5,4,21.5,7,24.6,5.8s14.7,3.3,27.2,10.2l20.9,12.6l31.5-30
		c17.5-17.5,34.3-32,37.4-33.2c9.4-3.6,113.9,37.8,117.5,47.1c1.8,4.7-7.8,3-20-3.1c-28.4-13.3-81-17.3-112.3-7.9
		c-16.7,5.5-23,12.4-22.9,26.7c0.5,22.2,20.7,42.2,37.1,35.9c9.4-3.6,9.9-9.2,0.3-22.5c-17.5-24.6-9.3-24.2,42.9-0.3
		c24.1,11.4,62,26.3,83.2,32.5c20.4,6.5,39.4,16.2,41.5,21.7c1.8,4.7,12.3,8.7,21.8,7.8c10.6-0.5,33.9,6.7,52.1,16.7
		c19,9.7,37.5,16,43,14c13.6-4.3,62.4,15.5,74.7,31.3c6.4,7.4,22.3,18.3,37.1,24.3c24.2,9.5,26.9,9.4,34.9-7.1
		c6.8-12.5,14.1-17,26.3-15.5c22.9,3.7,31.9,31.6,12.3,39.1c-21.1,8.1-15.3,18.4,14.1,25c30.2,6.3,31,6,22.4-14
		c-6.2-13.7-3.8-19.1,12.1-24.4c11.2-3.4,28.8-6.6,39.4-7.1c15.8-0.7,18.8-4.5,15.3-13.9c-2.7-7-2.5-13.4,1.4-14.9
		c3.1-1.2,9.4-8.1,14.2-14.4c7.4-10.9,2.5-14.4-27.9-26l-36.6-13.7l44.7-11.8c107.2-28.6,155.8-37.4,223.3-36.5
		c39.4,0.1,74.8-1,78.7-2.5s29.3-0.5,56.2,1.7c47.3,4.2,65.2-2.7,58.1-21.4c-4.2-10.9-55.7-21.6-87.6-18.3
		c-12.1,1.1-49.4,2-84.3,1.9c-68.8,0.4-129.2,3.9-162.1,9.4c-26.3,3.8-50.6-1.2-46.7-9.8c1.4-3.2,16.4-6.3,32.8-5.4
		c16.9-0.2,34-2.3,38.9-6c4.1-3.4,11.2-3.4,15.8-0.7c4.1,3.8,19.7,2.3,33.7-3.1s34.1-6.8,45.1-3.9c10.2,3.2,25.6,3.6,32.6,0.9
		s21.1-0.9,31.6,3.1c10.8,4.8,27.4,3.8,43.5-3.3c14.2-7.3,35.5-10.1,48.1-7.7c20.6,4.6,25,2.1,59.8-47.1
		c25.2-34.7,36.5-58.8,33.6-71.1c-2-10-1.1-19.3,2.8-20.8c3.1-1.2,4.2-19.5,1.3-40.8c-3.5-30-0.3-42.9,13.7-55.4
		c9.9-9.2,22.9-26.7,29-38.9c8.8-16.8,22.6-27.5,62.9-43.8c50.9-21.3,53.6-21.5,104.1-4.1c78.5,27.2,111.2,42.4,115.7,54.1
		c6.6,17.2,190.1,126.7,211.8,127.3c4.5,0.1,13.5-11.5,20.1-24.7c14.1-28.7,23.1-28.6,126.9,4.1c151.2,48.5,251,61.3,290.2,39.9
		c13.1-7.7,35.6-14.6,50.4-15.8c14-0.9,31.7-1.4,38.5-2.3c8.7-0.7,11,2.9,7,13.4c-2.6,7.3-0.7,19.1,5.1,24.9
		c6.1,6.6,5.4,14-1.2,20.2c-14,12.5-3.2,40.6,13.2,34.3c23.4-9,49.7-66.5,40.7-89.9c-4.5-11.7-44.6-62.6-89.4-111.6l-80.5-90.9
		l12.1-19.9l11.6-18.8l-33.3-40.1c-23.5-28.6-43.1-63.2-65.1-118.3c-30.9-75.9-30.9-80.4-25.1-147.1c3.6-37.2,12-80.7,18.7-95.8
		c8.7-19.4,8.7-31.1,1-41.6c-24.7-31.7-51.4-31.3-38.8,1.5c6,15.6-0.9,20.9-33.6,24.5c-15.5,1.5-21.1-3.6-25.5-19.8
		c-2.9-12.3-9.1-18.9-13.4-16.3c-13.1,7.7-79.6-34.8-88-56.7c-14.1-36.7-34.7-53-53.5-41.3c-14.7,8.3-24.7,3.2-81.2-45.8
		c-44.6-39.3-81.4-62.8-120.2-77.4c-73.5-28.2-199.6-95.3-214.2-114.8c-6.7-8.2-31.4-21.1-54.7-28.2c-23.3-7.2-56.1-17.9-73.9-24.5
		c-188.5-73.6-249.1-91.5-274.9-81.6c-12.5,4.8-32.5,6.2-44.6,2.8c-19.8-4.9-24.1-11.4-48.3-74.6c-23.7-61.7-25.7-71.6-14.4-84
		c6.8-8,10.8-18.5,8.7-23.9c-2.1-5.5,2.7-23.4,10.6-39.9c8.8-16.8,14.4-39.5,13.9-50.1s4.2-35.6,9.9-55.8
		c6.5-20.4,10.3-40.7,8.9-44.6c-1.8-4.7,1.6-16.7,7.2-27.8c5.6-11.1,8.4-24.7,6-31c-4.8-12.5-0.9-14,23.4-9
		c16.3,2.7,19.9,0.4,22.5-11.3c1.5-7.7,7.2-16.2,11.9-18c10.1-3.9,22.4-79.3,15.5-97.3c-3-7.8,7-14.3,45.4-26.4
		c46.9-15.3,49.9-14.7,96.7,9.4c26.3,15,50,22.9,51.1,18.9c1.9-4.3-16.2-30.5-40.8-59.6c-32.4-37.7-44.1-56.5-43.1-70.3
		c1.3-17.5,7-14.3,52.6,27.3c60.7,55.5,85.2,70.3,91.9,55.2c3.4-7.6-0.2-16.9-11.6-27.8c-8.6-8.3-16.3-21.5-16.4-28.6
		c-0.1-14.3-42.9-72.2-74.4-100.4c-28.7-25.7-29-26.5-1.4-31.7c12.6-2.2,30.7-10.9,40.6-20.1c16-14.2,16.4-17.9,0.8-46.9
		c-16.7-29.4-16.2-30.5,4.2-31.1c29.8-1.6,52.5-10.3,50.4-20.3c-1.5-3.9-2.3-15.2-1.4-24.5c-0.2-9.8-4.5-18.8-12.1-22.2
		c-6.5-2.9-13.7-10-15.5-14.7c-4.8-12.5,33.9-16.6,71.8-8.8c31.3,6.8,38.7-4.1,15.7-22.1c-16.1-11.7-16.4-12.5-0.8-6.8
		c19.3,6,39.1-7.8,33.1-23.4c-2.4-6.2-11.5-13.5-19.8-16.6s-18.6-13.5-22.5-23.6c-4.8-12.5-11.9-16.9-21.2-13.3
		c-7,2.7-20.6-0.1-29.4-6.6c-20.3-15.5-13-17.4,42.1-11.7c25.3,2.8,49.6,3.3,54.3,1.5c12.8-4,65.6,16.9,69.8,27.8
		c1.8,4.7,7.4,5.2,12.7,0.5s15.9-5.2,23-0.8c7.9,4.1,19.8,4.9,26.8,2.2c16.4-6.3,88,26.2,83.2,37c-1.9,4.3-9.4,3.6-16.3-2.7
		c-20.9-17.1-30.2-6.3-16.3,20.6c11.3,22.5,13.5,23.5,43.4,12.9c35.1-13.5,78.8-7,94.5,13c6.1,6.6,18.9,14.2,29.3,15.6
		c12.2,1.6,18.8,7.1,19.6,18.4c0.5,10.6,6.6,17.2,17,18.6c12.2,1.6,14.8,6,12.6,21.1c-1.1,15.7,2.5,20.5,19.5,27.4
		c21,8.1,21.8,7.8,26.5-10.2c5.1-17.2,6.9-17,31,1.5c25.5,19.8,25.5,38.5-0.4,27c-6.5-2.9-22-1.4-34.5,3.4
		c-13.3,5.1-29.4,5-37.9-0.7c-8.2-4.9-19-5.2-25.6,0.9c-15.3,13.9-4.5,34.9,15,27.4c14.8-5.7,16.8-2.9,22.3,25.5
		c4.7,21.5,11,33.4,20.1,36.1c21.8,7.8,90.8-10.7,99.4-25.6c5.9-10.3,9.9-9.2,20.1,5.7c7.3,9.7,10.8,23.6,9,30.6
		c-5.7,15.6,32.1,90.6,49.8,101.8c8.9,4.6,22,1.4,45.8-11.3l32.5-17.9l-13.6,27.6c-7,14.3-11.9,29.6-10.7,32.8
		c1.5,3.9,17.2,12.2,35.8,18.5c32.6,12.6,54.3,6,46.8-13.5c-2.1-5.5-0.2-21.4,4.2-35.6l8.1-25.5l7.8,20.3
		c4.2,10.9,5.1,24.9,2.2,31.4c-9.6,21.6,28.1,77.9,55.3,83.5c19.5,4.2,24.5,10.3,27.8,30.5c5.3,30.2,13.7,28.8,43.6-7.8
		c25.6-31.3,40.7-31.7,44.6-2.8c1.1,12.1,5.6,19.3,10.3,17.5c4.7-1.8,18.3,1,31,6s31,6,41.1,2.1c22.6-8.7,31.7,10.2,14.3,30.3
		c-17.8,21.2-9.7,30.6,16.8,20.4c14.8-5.7,24.9-5.1,27.6,1.9c2.4,6.2,10.3,10.4,17.7,11.1c7.1-0.1,15.3,4.9,17.4,10.3
		c4.8,12.5,45.5,30,49.4,21.3c1.4-3.2-7.5-19.5-19.1-35.7s-20.2-31.6-19.2-33.8c2.6-7.3,59.5,29.1,94.8,60.3
		c30.1,27,48.7,40.4,110.7,78.4c17.7,11.1,34,25.5,36.4,31.7c5.4,14,82.9,59.5,93.8,55.3c4.7-1.8,13.1-14.9,19.3-28.9
		c10.1-22.7,32.1-40.1,83.5-67c21.7-11,25.5-22.3,9.7-30.6c-23.1-13.5-16.4-35.8,11.4-40.2c24.4-4,25.8-9.9,11.7-39.4
		c-10.4-20.2,3.5-28.2,38-20c66.9,15.5,155.5,46,202.3,67.4c30.8,15,54.4,20.3,66.9,15.5c20.3-7.8,47.7,0.5,53.6,16.1
		c1.8,4.7-0.9,16.4-5.8,24.6c-8.4,13.1-7.7,17.3,6.3,28c8.8,6.5,15.3,16.5,14.5,21.3s7.3,9.7,17.7,11.1c10.4,1.4,20.7,7.3,22.8,12.7
		c2.4,6.2,10.6,11.2,17.7,11.1c7.9-0.4,22.1,8.5,31.1,20.3c11.2,12.7,23,18,32.4,14.4c7.8-3,16.3-1.8,18.1,2.9
		c2.1,5.5,10.5,4,20.2-3.3c20.5-14.2,39.5-4.4,27.1,14.7c-10.2,15.5-2.3,66.3,10.2,68.6c5.6,0.5,11.7,7.1,14.1,13.4
		c6.3,16.4,45.2,33.7,52.9,23.6c11.1-13.2-3.6-39.8-16.8-32.1c-14.4,9.1-37.6-7-37.7-25.8c0-11.6,10.4-10.3,50.5,5.7
		c35.8,14,55,17.4,64,10.4c7.4-6.4,11.9-6.4,10.6-0.5c-2.3,12.5,15.3,16.5,23.8,6.1c4.7-6.3,1.9-11.5-8.2-16.6
		c-11.4-6.4-11.6-11.7-0.8-30.1c7.9-12,16.2-23.2,20.1-24.7c3.1-1.2,2.5-9.9-0.8-18.5c-5.1-13.3-9.9-14.1-21.2-6.2
		c-8.9,7-17.2,6.6-22.8-1.1c-5-6.1-15-15.7-21.3-20.5c-6.3-4.7-20.7-18.9-32.3-30.6c-11.3-10.9-25.2-19-30.7-16.9s-10-5.1-12.5-18.5
		c-2.6-11.5-11.7-30.4-21.9-40.8c-16.2-18.9-15.8-22.6,3.8-57.9c19.1-34.2,18.9-39.5,4.5-53.7c-8.9-9.1-27.4-38.7-41.3-65.6
		l-25.5-50.2l18.6-17c11-8.7,23.3-23.3,27.4-31.1c4.4-7.1,23.8-24.4,42-37.6s36.3-29.1,40.2-35.1c42-72.5,41.2-72.2,63.8-69.3
		c12.2,1.6,27.7-2.6,35.4-8.2c8.9-7,21.7-6.5,39.3,1.9c21.9,10.4,29.5,9.3,59.2-6.6c49.1-26,57.8-38.3,46.4-68
		c-14.4-37.5-14.5-58.9-0.8-76.7c10.3-12.9,14.2-14.4,26.5-5.7c17.4,10.3,34.2-4.2,21.4-19c-9.2-9.9-3.4-64.9,6.7-68.8
		c3.9-1.5,11.3,3.7,16.9,11.4c16.6,22.3,29.5,9.3,37.5-37.7c5.1-28.8,3.3-49.6-4.3-60.1c-7.6-10.5-8.3-19.2-1.7-25.3
		c12-10.9,40.8,1.3,48.6,21.6c3.3,8.6,15,15.7,26.9,16.5c10.9,0.3,33.5,10.4,49.4,21.3c16.6,10.6,38.5,21,48.9,22.4
		c24.5,3.1,50.3,19.2,73.3,46.2c9.8,11.5,24.1,18.5,33.3,16.8c35.7-7.4,41.1-5,29.9,12.7c-9.9,16.3-9.6,17.1,20.3,27.1
		c17.5,5.8,35.6,8.7,41.3,7.4c4.7-1.8,10.6-0.5,11.8,2.6c1.5,3.9,15.7,1.1,31-5.6c21.1-8.1,28.6-16.4,26.6-26.3
		c-1.1-7.6,1.1-15.7,5.8-17.5c4.7-1.8,9.5,6.2,12.2,17.7c2,14.5,6.7,19.8,13.7,17.1c14.8-5.7,20,10.2,10.2,33.7
		c-6.6,17.8-6,19.3,12.9,29.1c11.1,5.6,28.6,6.9,38.8,3c25-9.6,56.3,4.4,74.2,32.4c16.2,26,5.4,37.3-19.7,21
		c-17.7-11.1-38.4,4.9-30.9,24.4c3,7.8,14.8,17.6,26.4,22.1c11.3,3.7,22.8,12.7,25.2,19c2.4,6.2,13,12.9,23.7,15.1
		c23.2,4.5,28.7,14.1,12.3,20.4c-6.2,2.4-9.9,9.2-7.8,14.6c1.8,4.7,4.2,18.1,5.2,27.6c1.7,13.7,13,24.6,43.1,39.9
		c23.3,11.7,45.1,19.4,49,17.9s11.1-13.2,15-26.3l7.5-22.6l32.9,13.3c22.4,9.3,31.7,17.4,28.4,24.9c-10.1,22.7,2.8,33,24.1,18.5
		c20.1-13.1,22.2-12.1,62.9,33.2c23.4,25.9,52.5,50.6,64.9,54.8c12.8,3.1,46.9,24.1,76.7,45.8c50.1,37.2,54.1,38.3,65,22.5
		c9.2-13.4,15.1-16.6,25.6-12.5c10.2,3.2,15.7,1.1,19-6.4c3.8-8.6,1.6-12.2-5.1-13.3c-16.6-3.5-33.7-55.1-19.6-60.5
		c8.6-3.3,15,4.1,22.2,22.8c12.3,32,37.2,38.6,44.7,11.5c5.9-22,17.3-15.6,20.5,9.1c2.9,23.9,31,29.3,35.8,6.9c2-8.8,4-10.5,6.4-4.3
		c1.8,4.7,0.6,13.2-3.2,17.3c-13.5,18.6,8.9,32.4,36.5,22.7c15.1-4.9,36.6-9.6,47.2-10.1c18.5-0.8,19.4-3,6.1-23.8
		c-13.1-20.1-12.4-23,6.3-30.2c22.6-8.7,22.5-18.5-0.4-26.7c-12.4-4.2-17-2.4-23.4,9c-10,18.2-23.5,13.5-45.4-15.7
		c-11-14.6-14.4-25.8-11-33.4c3.8-8.6,1.4-10.4-8-6.8c-7,2.7-19.1-0.7-27.1-7.5s-19.3-10.5-25.5-8.1c-14.8,5.7-22.6-14.6-10.7-25.5
		c7.4-6.4,5.4-16.4-5.3-34.7c-14.4-25.8-14.7-26.6,10.3-36.2c25.8-9.9,57.3,2.2,89.1,33.8c8.6,8.3,31.2,22.9,50.9,32.4
		c19.3,10.5,37,21.6,38.8,26.3s9.4,8,16.5,8c7.4,0.7,16.5,8,20.1,17.4c9.6,25,90,78.3,108,71.4c7.8-3,16-9.7,16.5-15.3
		c3.2-17.3,15.4-15.8,38.1,6c11.3,10.9,26.5,24.7,32.8,29.5c7.1,4.4,22,17.5,33,27.6c11.3,10.9,27.6,25.2,36.7,32.5
		c13.5,11.8,14.8,17.6,8.7,34.3c-7.4,18.1-5,24.3,12.4,46.3c11.8,14.3,28.1,24.1,36.5,22.7c9.5-1,18.4,3.7,20.5,9.1
		c2.4,6.2,9.7,8.8,15.9,6.4c6.2-2.4,9.9-9.2,7.5-15.4c-9.9-25.8,9.2-25,37.4,1.8c16.1,16.2,36.1,30.9,43.3,33.5
		c21.8,7.8,19.1-10.9-5.1-36.6c-13.9-15.3-20-26.4-16.5-31.3c9-11.5-2.9-35.6-19.3-40.9c-10.2-3.2-15.2-2.2-16.7,5.5
		c-1,6.7-7.3,9.1-20.3,7.8c-20.8-2.8-34.6-27-15-27.4c7.1-0.1,17.2-6.6,22.9-15.1c9.4-15.2,8.8-16.8-10.9-30.7
		c-11.5-9-23.8-22.2-26.8-30c-3.3-8.6-13-17.4-21.3-20.5c-11.3-3.7-14.2-8.9-11.4-18c6.3-18.5-20.5-55.7-51.3-70.7
		c-17.6-8.5-32.6-24.2-42.2-44.7c-21-43-60.8-104.7-77.1-119.1c-17.3-14.8-22.1-27.3-12-31.2c4.7-1.8,9.6,1.7,12,7.9
		c5.1,13.3,32.3,23.4,34.9,11.7c0.8-4.8-6.8-15.3-17.5-24.6c-9.7-8.8-16.2-18.9-14.8-22.1s-12.9-21.9-30.9-41
		c-83.1-83.6-87.1-89.2-73-94.6c4.7-1.8,10.2,3.2,13.2,11.1c6.9,18,41.8,41.3,49.1,32.2c11.2-15.1-14.1-60-38.5-67.6
		c-25.2-7.3-32.4-26.1-14.4-33s15.7-22.1-5.8-40.8c-16.6-15.1-20.9-24.2-23.3-53.7c-1.1-19.3-1.5-38.8,0.4-43.2
		c2.2-3.5-2.2-12.6-9.1-18.9c-18.7-16.1-15.8-34.2,8.9-60.7c12.1-12.7,19.6-28.1,16.9-35.2c-3-7.8,0.8-11.9,9.8-11.8
		c7.9-0.4,15.8-0.7,17.4-1.3c6.2-2.4,12.4,23,9.2,40.3c-3.6,13.9,1.7,20.8,23.3,34.9c15.5,10.2,33,16,38.5,13.9s12.2,1.6,14.6,7.8
		c2.7,7,10.9,12,19.1,12.4c20.3-0.6,87.2,33.7,92.8,45.9c2.1,5.5,18.2,21.7,35.2,35.7c33.8,27.3,66.5,61.3,61.1,63.4
		c-1.6,0.6-13.9-3.6-26.1-9.7c-23-10.9-24.1-11.4-28.5,7.4c-2.9,11-1.5,26.5,4.2,34.2c5.2,8.8,14.6,24,21.1,34
		c10.2,14.9,9.4,19.7-1.9,23.1c-21.7,6.5-1.9,58,47.1,118c22.7,28.9,49.5,66.1,59.2,82c8.9,16.3,45.6,55.9,80.4,88.2
		c52.7,48.7,62.8,61,55.8,70.8c-4.7,6.3-12.1,12.7-16,14.2c-13.3,5.1-18.8,69.9-6.3,72.3c5.9,1.3,14,10.8,18.2,21.7
		c4.2,10.9,12.8,26.4,19.5,34.6c8.7,11,8.8,18.1-1.8,30.2c-11.1,13.2-17.9,14-38.1,5.7c-30.7-12.4-45.3-1.4-48,33.6
		c-0.2,13.5-4.3,33-9.7,42.2c-4.6,8.9-7,26-6.3,37.3c1.4,20,3.3,20.2,27.2,5.7c19.1-10.9,28.3-12.6,34.7-5.3
		c4.7,5.3,4.3,13.6-0.7,19.1c-6.9,5.3-6.7,10.6,0.4,15.1c5.7,3.2,15.2,13.9,20.9,24.2c6.7,12.7,14.5,16.8,24.1,11.4
		c24.4-11.1,56-8.1,62,7.5c3,7.8,19.3,17.7,36.5,22.7s38.1,17.6,47.9,29.1c9.5,10.7,26.3,19.5,37.9,19.5
		c16.1,0.1,23.8,6.1,30.4,23.2c10.2,26.5,30.4,34.9,54.5,23c13.4-7,21.5-4.7,35.2,12.4c23.2,27.8,55.4,44.1,67.4,33.2
		c6.1-5,11.5-2.6,15.1,6.7c5.7,14.8,41,22.8,63.6,14.1c7-2.7,14.7,3.3,18.9,14.2c9.3,24.2,35.5,36.5,52.9,23.6
		c14.1-9.9,17.7-7.7,144.8,83.2c27.4,19.9,55,33.5,63.1,31.3c7-2.7,17.1-2.1,21.2,1.7c4.9,3.5,12.5,2.3,17.1-2.1
		c15.6-13.1,35.3,3.4,32.7,26.8c-1.9,16,1.5,22.7,17.7,34.4c14.8,10.5,18.8,18.7,16.1,27.9c-6.3,18.5,59.3,58.7,92,57.8
		c16.9-0.2,29.9,5.5,35.9,16.6c5.5,9.5,18.2,17.2,30.2,18c10.9,0.3,21.7,5.1,23.8,10.6s12.5,6.9,23.4,2.7c15.6-6,21-3.6,26.7,11.2
		c4.2,10.9,17.4,22,29.2,24.6l22,5.9l-12.4,19.1c-14.4,20.8-7.1,30.5,24.1,30.1c38.7,0.4,91.3,76.9,129.8,186.6
		c13,36.2,10.8,46.9-8.2,34.5c-7.9-4.1-21-8.1-29.2-8.5c-10.6,0.5-19.1-7.9-24.5-21.9c-9.9-25.8-34.2-37.9-49-25.1
		c-4.6,4.4-13.7,6.2-20.2,3.3s-20.7,4.4-42.4,22.5c-19.2,15.4-42.9,28.1-57.1,30.9c-34.7,5.3-31.6,27.3,9.7,62.5
		c23.2,20.7,36.9,26.1,47.5,21.2c31.8-17.6,51-14.2,59.5,10.3c7.9,22.9-4.6,39.4-18,23c-4.4-4.6-12.1-3.4-19.1,3.8
		c-9.4,8.1-9.8,11.8-0.1,16.1c17.3,7.7,23.1,25.2,9.8,30.3c-5.5,2.1-15.2-2.2-21.1-10.7c-7.9-11.3-15.4-12-31.6-3.1
		c-17.8,9.5-19.8,13.9-10.7,32.8c5.6,12.2,20.3,27.1,33.2,32.9c26.5,13.1,72.7,75.1,78.3,106c3.8,19.1,5.9,20.1,20,10.2
		c8.5-5.9,21-10.7,28.1-10.8c16.9-0.2,23.6,19.6,10.9,30.7c-19.8,18.4,13.8,43,42.7,32c10.9-4.2,19.6-0.3,27.8,11.7
		c6.5,10,16.2,26,22.5,35.2c6.8,10.8,20.9,17.1,37.5,16c15.4,0.4,29.9,5.5,32.9,13.3c33.3,70.5,54,77.8,50.8,18.1
		c-1-28.3-5.5-40-20.3-57.6c-25.7-29.5-31.5-47-17.4-52.4c8.6-3.3,15.3,4.9,26.4,33.7c24.9,64.8,41.4,84.4,68.9,83.7
		c19.3-1.1,27.4,3.8,33.1,18.6c6.6,17.2,10.6,18.3,25.8,8.9c11.3-7.9,22.6-8.7,29.2-3.2c5.8,5.8,17.9,4.8,28.3-1
		c15-7.6,16.5-15.3,9-46.4c-5.1-20.4-10-51.7-9.7-69.7l-0.5-33.9l24.5,10.3c21.3,8.8,23.6,7.9,23.8-5.6c0.4-8.2-6.8-27-14.8-40.9
		c-13.2-22.7-13.1-27.2,1.6-40c23.1-21.4,30.7-22.5,35.8-9.3c4.5,11.7,72.3,48.4,82.4,44.5c2.3-0.9-0.4-7.9-6-15.6
		c-7.9-11.3-5.7-14.8,12.9-20.2c16.7-5.5,23-12.4,24.4-27.3c0-11.6,4.8-22.4,9.5-24.2c18.7-7.2,21-34,2.7-51.2
		c-10.6-11.2-15.5-21.8-13.4-32.5c2.2-15.2,2.5-14.4,8.1-2.2c3.3,8.6,14.6,24,25.9,34.8c35.5,36.5,59.8,64.8,57.3,67.6
		c-1,2.2-9.4,15.2-18.3,29.4s-23.8,28.9-34.8,33c-10.1,3.9-18.2,13.3-18.1,20.4c-0.7,7.4-4.9,15.3-9.6,17.1
		c-5.5,2.1-14.6,11-20.8,20.5c-8.4,13.1-7.4,18.1,2.6,23.2c9.7,4.3,20.5-2.5,48.7-29.4c28.9-27.2,40.1-33.3,49.8-29
		c7.6,3.4,19.2,3.4,27,0.4c24.2-9.3,34.1,12,18.4,38.6c-15.3,25.6-13.3,40,5.1,48.2c15.1,6.7,46.3-24,49.9-49.6
		c1.2-8.5,8.3-15.7,16.5-15.3c10.6-0.5,16.9,11.4,31.4,56c10.7,32.6,21.9,57,27.5,57.5c5.9,1.3,12.5,14,15.1,30
		c4.8,24.1,9.8,30.3,35.1,40.2l30.1,10.8l-14.2,26c-8.9,14.2-13.2,31-10.8,37.3c2.5,8.9,1,9.5-9.2,1.7c-6.9-6.3-16.3-9.9-19.4-8.7
		c-3.9,1.5-6.2,9.5-6.3,18.5c0.4,7.9-0.4,19.9-0.7,26.2c-1.2,15.7,53.3,19.8,73.5,4.9c9.2-6.2,26.5-10.2,38.5-9.4
		c18.9,2.6,19.5,4.2,11.3,15.4c-6.3,6.9-7.3,20.7-3.4,30.8c5.7,14.8-0.7,26.2-34.5,61.6c-23,24.1-46.9,45.8-53.9,48.5
		s-9.1,8.9-4.7,13.4c3.4,4.1,17.3,3.2,31.1-3c21.6-9.2,24.5-8.5,25.5,8.1c1.3,10.3-0.2,25.1-2.8,32.4c-6.5,20.4-59.7,26.5-96.1,10.9
		c-35-14.3-57.1-11.2-60.5,8c-3.9,20.3,13.9,57.3,30,61.9c24.6,5.8,42.5,26.7,47.4,53.4c3.7,23.6,2.4,25-42.2,44
		c-30.1,12.5-55,17.6-70.5,14.5c-13.3-2-35.4,1.1-48.1,7.7c-18.1,8.8-26.4,8.3-29.3,0.5c-2.4-6.2-11.5-13.5-19.8-16.6
		c-12.4-4.2-18.3-1-30,15.1c-7.4,10.9-16.3,20.6-19.4,21.8c-3.1,1.2-10.6-18.3-16.5-42.9c-8.4-33.5-17.3-49.8-33.6-64.1l-21.8-19.4
		l-11.4,24.1c-6.5,13.3-16.9,23.5-22.8,22.2c-17.3-3.2-19.2,19.9-4.8,57.4c9.9,25.8,9.9,37.4-2.5,56.5
		c-7.3,13.6-16.2,23.2-19.1,22.6c-2.5-1.7-5.4-21.2-6.2-44.2c-3-73.2-29.9-117.5-49.9-81.1c-11.3,19.6-76,39.9-99.2,30.9
		c-16.7-6.1-19.8-4.9-35.4,19.8c-9.4,15.2-16.7,28.8-16.6,31.4c1.7,9.2,20.7,77.1,28.7,102.7c13.4,44.1-10.6,77.5-43.7,63.4
		c-11.1-5.6-13.9-3.6-15.7,10.5c-2,13.3-13.6,20.5-60.5,38.4c-32,12.3-61.3,19.9-65.4,16.2c-3.8-3-20.2-1.2-35.8,4.8
		s-52.2,15.6-82.4,20.9c-42.5,8.3-55,13.1-54.6,21c0.5,6.1-7.3,13.6-17.5,17.5c-26.5,10.2-25.5,22.3,4.2,34.2
		c13.7,5.5,33.1,18.6,42.6,29.3c10.3,10.4,21.2,17.8,25.1,16.3c3.9-1.5,10.3,5.9,13.9,15.3c3.9,10.1,16.6,22.3,28.2,26.8
		c13.7,5.5,21.5,14.1,23.2,27.8c1.8,16.3,6.4,19,25.4,17.1c14.5-2,22,1.4,22.4,9.3c0.1,7.1,5,10.6,11.2,8.2c7-2.7,14.7,3.3,19.2,15
		c4.2,10.9,24.3,28.3,44.3,38.5c53.2,28.8,90.1,55,94.8,67.5c2.4,6.2,10.7,13.8,19,16.9c8,2.3,15.2,9.4,15,15.7s26.4,22.1,58.2,35
		c48,20.1,63.2,22.3,86.6,13.3c18-6.9,31.2-7.5,37.3-0.9c5,6.1,24.4,12.1,43.3,14.7c42,4.5,64.2,15.6,73.7,38
		c4.2,10.9,14.2,16,32.7,15.2c14.8-1.2,49.2,4.4,76.2,11.9c27.8,7.2,61,14.2,74.3,16.3c60.9,7.1,150.6,23.7,172.4,31.4
		c13.4,4.7,27.8,7.2,33.3,5.1c14-5.4,104.5,29.7,126.9,50.7c27,23.7,33.1,41.9,15.5,45.1c-28.3,5.5-9.4,38.5,32,57.6
		c40.3,18.6,50.5,29,36.5,34.4c-4.7,1.8-20.1-5.7-34.4-17.2c-43.9-35.1-67.5-24.2-87.1,41.5c-5.2,19-15.3,37.2-21.5,39.6
		c-8.6,3.3-8,9.4,2.4,25c8.2,12.1,12.2,29.4,10,40c-4.5,23.2,14.4,37.5,48.5,37.8c11.6,0,28.1,8,36.5,18.2c27,30.8,38.4,37.2,55,29
		c11.1-6.1,20.2-3.3,30.8,7.9c8.1,9.4,18.4,15.3,23.1,13.5c4.7-1.8,9.2,5.4,10.3,17.5c2.1,17.1,12.2,24.9,53.8,42
		c27.8,11.7,55.9,19.7,61.4,17.6c5.5-2.1,13.4,4.7,17.3,14.8c3.9,10.1,14.2,20.5,22.5,23.6s17.7,11.1,20.4,18.1
		c3,7.8,16.4,12.5,32.8,10.7c36.7-2.4,44.9,9.6,21.7,35.5c-24.4,27.3-22.2,47,8.8,83.5c34.1,39.8,44.4,87.7,21.8,103.5
		c-12.1,8.2-14.2,18.9-10,41.5c6,27.3,11.5,32.3,54.2,52.6c26.2,12.3,53.2,28.8,60.2,37.8c5.9,8.5,20.9,17.1,32.3,18.9
		c53,7.4,104.9,26,115.1,40.9c6.7,8.2,38.7,30.8,72.3,48.4c96.3,52.6,108.1,66.9,75.1,88.5c-18.8,11.7-20.4,16.8-12.6,37.1
		c5.4,14,4.8,42.9-0.9,67.5c-5.3,23.5-8.1,48.8-5.4,55.8c7.2,18.7,1.7,48.6-9.3,52.8c-5.5,2.1-8.5,29.2-5.5,60.3
		c2.9,47.2,0.6,59.8-16,75.1c-26.1,25.3-105.8,53.2-146.7,51.8c-39.7-0.9-106.5-32.5-130.8-60.8c-10.1-12.2-21.6-21.3-25.5-19.8
		s-9.1-2.8-11.5-9c-7.2-18.7-31.3-13.9-42.5,8.3c-5.6,11.1-16.2,23.2-23.2,25.9c-37,17.8-38.8,20.3-31.3,39.8
		c8.4,21.9,9.2,21.6-78.9,23.1c-28.6,0.2-55-5.7-68.4-14.9c-25.5-19.8-37.6-23.2-54.7-16.6c-10.1,3.9-11.7,11.6-6.6,24.9
		c6.3,16.4,3.6,21-15.1,28.2c-21.1,8.1-21.7,11-10.4,33.5c5.9,13,20.5,32.4,30.8,42.8c13.8,12.6,17.1,21.2,12.2,24.9
		c-4.1,3.4-11.8,13.5-17.5,22c-7.9,12-6.6,17.8,5.5,28.3c22.9,19.9,27.8,42.2,12.5,53.4c-7.7,5.6-12.9,13-11.4,16.9
		s32.5,21.6,69.5,38.7c36.2,17.4,74.6,40.3,85.1,51.5c10.9,12,34.3,26.2,51.5,33.9c21.3,8.8,33.1,18.6,35.3,31.2
		c2,14.5,9.8,18.6,35.9,21.1c32.1,2,44.4,10.7,33.4,23.9c-3,3.8-4.1,15-3.1,24.5c2,14.5,4.9,15.1,19.6,6.8
		c9.2-6.2,19.8-13.9,23.2-18.8c3-3.8,8.7-0.7,12,7.9c3.6,9.4,11.8,14.3,18,11.9c7-2.7,16.1,0.1,20.9,5.4c12.5,14,69.3,40.6,78.7,37
		c11.7-4.5,47.9,24.6,41.5,33.3c-10.8,14-0.3,22.5,30.4,23.2c22.8,1.1,41.2,9.3,66.3,32.8c20.4,18.1,45.4,31.8,60.2,33.3
		c13.8,1,39.2,13.6,56.8,26.6c17.8,13.8,47.6,35.4,66.7,47.8c18.6,13.5,35.8,30.2,38.2,36.4c2.7,7,11.6,11.7,20.6,11.8
		c21.1-0.9,63.8,23.9,71.2,40.7c2.7,7,9,11.8,12.9,10.3c4.7-1.8,9.9,2.5,12.6,9.5c2.7,7,16.1,16.2,30.3,20.6
		c14.2,4.4,48.7,28.8,75.5,54.3c48.9,45.7,49.5,47.3,45.8,77.3c-2.2,22.3,2.4,41.2,17.8,72c18.6,36.7,20.4,48.6,14.8,106.2
		c-2.7,35-2.9,71.8,0.7,81.2c3.3,8.6-1.4,33.7-10.7,56.1c-15.4,34.6-21.7,41.5-53.7,53.7C11823,10582,11807.9,10582.4,11780,10572.6
		z M11570.1,10224.2c-10-5.1-19.1-12.4-19.8-16.6c-3.2-17.6-11.7-25.9-21.9-22c-6.2,2.4-12.1,8.2-13.2,12.2
		c-2.3,12.5,48.9,45.7,62.2,40.6C11587.5,10234.5,11586.9,10233,11570.1,10224.2z M10364.8,10632.3c-6.7-8.2-4.9-15.1,4.8-22.4
		c23.8-17.2,5.7-38.9-51.3-59.1c-29-10.3-69.2-26.3-88.9-35.7c-22.7-10.1-39.7-12.5-45.8-7.5c-20.6,18.7,9.3,47.5,37.4,36.7
		c7-2.7,23.1,1.9,35.1,9.8s33.2,21.3,48.2,29.9c29.1,17.5,40.6,38.1,24.2,44.4c-21.1,8.1-16.5,26.9,7.9,34.6
		c17.5,5.8,25.1,4.7,31-5.6C10370.6,10649.8,10369.8,10638.4,10364.8,10632.3z M11672.7,10050.5c-4.8-12.5-60.6-48.4-69.5-45.8
		c-3.9,1.5-13.8-1-22.4-4.8c-9.4-3.5-20.9-5.4-25.6-3.6c-5.2,2.9-2.1,6.2,7,8.9c9.1,2.8,21.4,11.5,28.4,20.4
		C11619.4,10061.1,11684.3,10080.9,11672.7,10050.5z M10288.7,10469c-2.4-6.2-7.6-10.5-11.5-9c-10.1,3.9-12.4,19.1-3.7,22.9
		C10285.3,10488.2,10293.2,10480.7,10288.7,10469z M11526,9960c-2.4-6.2-13.6-14.5-25.2-19c-18.8-7.1-20.4-6.5-20.6,7
		c0.2,16.9,23.1,32.3,38.8,26.3C11525.2,9971.9,11528.1,9965.4,11526,9960z M11056.1,10086.6c-9.2-9.9-19.8-16.6-24.5-14.8
		c-10.9,4.2-6.5,13.3,20.7,37.7C11079.7,10134,11081.8,10116.2,11056.1,10086.6z M11351.5,10000.1c-3.2-17.6-29.7-19-36.9-2.8
		c-3.8,8.6-1.4,14.9,9.7,20.5C11342.4,10027.7,11355.3,10019.2,11351.5,10000.1z M11287,9972c-9.5-10.7-38.3-15.7-41.8-6.3
		c-4.3,9.7,22.8,24.4,36.8,19C11288.3,9982.3,11290.7,9976.9,11287,9972z M11452.2,9907.7c-5.1-13.3-26.7-22.9-40-17.8
		c-12.5,4.8-6.7,22.3,10.6,30S11457,9920.2,11452.2,9907.7z M10332.6,10326.8c-2.4-6.2-10-9.6-16.2-7.2c-20.3,7.8-8.1,21,18.8,18.7
		C10336.3,10338.8,10335,10333,10332.6,10326.8z M11219.3,9977.4c-2.7-7-10.9-12-19.1-12.4c-16.1-0.1-27.1,20.3-15.6,29.3
		C11198.2,10004.3,11224.4,9990.7,11219.3,9977.4z M11077.9,9994.1c-21.4-34.8-25.2-37.8-37.2-26.9c-19.6,16.5,18.6,67.2,43.6,57.6
		C11092.1,10021.8,11091,10014.1,11077.9,9994.1z M7078.6,11544.7c16.8-14.5,15.2-44.3-1.8-46.8c-15.5-3-46.6,23.3-45.1,38.8
		C7033.1,11568.4,7049.3,11571.1,7078.6,11544.7z M11217.2,9937c-2.1-5.5-10.7-9.3-18.4-8.2c-14.9,3.1-14.1,21.5,1,28.3
		C11210.6,9961.9,11222,9949.5,11217.2,9937z M7137,11449.7c-1.5-3.9-8.2-4.9-14.4-2.5c-11.7,4.5-12,15.4-0.1,20.6
		C7131.2,11471.7,7140.9,11459.9,7137,11449.7z M8627.6,10835.4c-2.5-13.4-8.2-16.6-19.9-12.1c-20.3,7.8-23,24.1-4.8,34.1
		S8632.6,10857.6,8627.6,10835.4z M7677.1,11188.7c-2.1-5.5-10.7-9.3-18.4-8.2c-14.9,3.1-14.1,21.5,1,28.3
		C7670.5,11213.6,7681.9,11201.1,7677.1,11188.7z M7621.3,11171.6c-14-6.3-25.2,15.9-12.3,26.2c6.3,4.7,11,2.9,16.1-7.1
		C7630.5,11181.5,7629.9,11175.4,7621.3,11171.6z M11000.3,9850.2c-8.8-6.5-16.6-10.6-17.3-7.7c-3.4,7.6,16.5,26.8,24.4,23.8
		C11012,9864.5,11008.5,9857.7,11000.3,9850.2z M8580.2,10739.9c-11.3-3.7-24.9-18.2-35.9-39.9c-9.8-18.6-22.2-34.5-26.2-35.6
		c-4.8-0.8-12.4-11.4-17.2-23.8c-4.8-12.5-12.4-23-18.3-24.3c-4.8-0.8-8.8-6.5-8.5-12.8c-0.5-6.1-8.6-15.5-18.2-21.7
		c-18.2-10-18.2-10-6.3,6.9l12.2,17.7l-22.8-12.7c-13.3-6.5-25.4-17.1-28.1-24.1c-6-15.6-38.2-31.9-52.3-26.5
		c-14,5.4-5.8,24.6,13.5,30.6c8.3,3.1,18.6,13.5,22.5,23.6s21.5,25.8,40.5,35.5c22.5,12,33.1,23.1,34.4,36
		c3,19.4,35.8,48.9,59.8,53.2c6.7,1,14.3,7,16.1,11.7c2.1,5.5,12.4,15.9,23.3,23.3c14.5,9.7,20.8,9.9,25.1,0.2
		C8597.8,10748.3,8594.1,10743.5,8580.2,10739.9z M7590.3,11119c-4.7-21.5-59.9-37-79.3-22.4c-21.2,17.1,0.5,52.6,27.5,45.9
		c11.5-2.6,25-2.4,31.2-0.3C7584.8,11148.9,7594.6,11137.1,7590.3,11119z M10934.9,9773.2c-19.3-10.5-23.6-7.9-25.4,17.8
		c-2,32.1,18.2,40.5,30.1,10.8C10946.5,9784.8,10945.2,9779.1,10934.9,9773.2z M8744.8,10620.3c-2.3-15.2-14.5-40.1-27.2-56.7
		c-19.4-24.8-25.1-28-39.8-19.7c-9.5,5.5-20.4,16.8-24.6,24.7c-5.8,13-4.6,16.1,9.3,24.2c8.2,4.9,21.3,20.5,28.1,35.8
		C8711.7,10674.2,8752.5,10668.4,8744.8,10620.3z M7492.3,11068.9c-2.4-6.2-18.4-15.3-35.3-19.6l-30.8-7.9l12.7,16.6
		c7,8.9,18.4,19.8,24.4,23.8C7479,11090.1,7497.4,11082.1,7492.3,11068.9z M7721.9,10944c-7.9-4.1-15.3-16.5-16.7-29.4
		c-1.5-15.5-5.9-20.1-13.7-17.1c-28.9,11.1-15.9,63.4,15.6,59.4C7733.8,10953.8,7736.6,10951.8,7721.9,10944z M8637.4,10580.9
		c-2-10-1.1-19.3,2.8-20.8c3.1-1.2,5.1-10,4.2-19.5c-2.1-17.1-14.9-20.2-14.7-3.3c1,16.6-100.2-32.3-107.6-51.8
		c-9.9-25.8-33.2-32.9-40.5-12.2c-4.7,13.4-1.5,19.4,19.4,31.9c15.5,10.2,25.9,23.2,26.7,34.5c1.4,12.9,11,21.7,33.1,30.3
		c17.3,7.7,38.7,19.2,48.1,27.2C8628.6,10613.8,8643.3,10605.5,8637.4,10580.9z M8756,10512.1c-6-15.6-24.1-18.5-30.4-4.5
		c-2.9,6.5-1,13.8,3.2,17.6C8741.4,10534.7,8760.8,10524.6,8756,10512.1z M8793.3,10492.4c-3.3-8.6-9.1-14.4-13.8-12.6
		c-3.9,1.5-5.1,10-1.8,18.6s9.9,14.1,13.8,12.6C8796.1,10509.2,8796.6,10501,8793.3,10492.4z M8314.3,10662.9
		c1-18.3-1.4-24.5-12.2-29.4c-16.2-7.2-22.4,14-11.9,41.3C8299.2,10698.2,8312.6,10691.3,8314.3,10662.9z M7657.1,10915.1
		c6.3-18.5-9-30.6-22.6-19.1c-5.8,5.8-15.8,7.9-22,5.7c-18.2-5.5-50,12-44.9,25.3c3,7.8,10.4,8.5,21.8,3.3c9.5-5.5,20.7-4.4,25.4,1
		C7626.9,10943.8,7650.3,10934.8,7657.1,10915.1z M10962.4,9625.6c0.4-3.7-3.4-11.2-9.7-16c-8.8-6.5-13-5.8-17.3,4
		c-2.9,6.5-1.4,14.9,2.7,18.7C10948.2,9640,10960.2,9636.3,10962.4,9625.6z M7248.9,11041.4c-4.8-12.5-27.8-7.2-32.7,8.1
		c-4.2,12.4-2,13.3,15.1,6.7C7242.3,11052,7250.4,11045.3,7248.9,11041.4z M8361.1,10602.8c-7.1-16.1-37.1-31.4-43.3-21.9
		c-8.5,10.4-2.5,26,13.7,33.3C8348.7,10621.9,8365.6,10614.5,8361.1,10602.8z M7070.6,11090.2c-7.8-20.3-156.4-71.6-159.6-54.2
		c-3,15.5,28.6,41.9,55.8,47.5c14.4,2.5,40.1,8.8,55.7,14.4C7054.3,11108.1,7076,11104.2,7070.6,11090.2z M8268.5,10634.7
		c5.3-11.9-14.1-25-28.9-19.3c-17.2,6.6-15.4,15.8,2.9,23.9C8256.6,10645.6,8264.2,10644.5,8268.5,10634.7z M8602.6,10490.4
		c1.1-22.8-5.3-30.2-22.5-23.6c-6.2,2.4-6.5,13.3-1.2,27.3C8589.8,10522.2,8600.8,10520.6,8602.6,10490.4z M7521.5,10900.1
		c4.2-19.5-25.1-51.3-44-49.4c-10.3,1.3-36.7-4.7-59.1-14c-22.1-8.5-43.3-14.7-47.9-12.9c-13.3,5.1,0.5,22.2,20.8,26.1
		c18.4,3.7,22.4,9.3,30.6,44.7c7.9,34.6,11.6,39.4,22.5,35.2c7.8-3,17.4-13,22.5-23c8.3-15.7,9.9-16.3,24.1-4.8
		C7507.2,10916.3,7518.5,10915.5,7521.5,10900.1z M8454.2,10537.5c-1.5-3.9-7.2-7.1-12.5-6.8c-5.3,0.2-7.4,6.4-4.7,13.4
		s8.4,10.2,12.5,6.8C8453.6,10547.6,8455.7,10541.4,8454.2,10537.5z M10928.6,9586.6c1.1-4-12.4-15.9-30.8-26.7
		c-25.3-14.5-39.7-17-55-10.2c-12.5,4.8-20.1,13.1-17.5,17.5c11.9,24.1,14.1,25,35.2,12.4c18-11.4,22.5-11.3,27,0.4
		C10894.5,9598,10921.9,9601.8,10928.6,9586.6z M7257.4,10970.1c-4.5-11.7-29.5-13.8-38.5-2.2c-3,3.8,2.6,11.5,13.7,17.1
		C7252.7,10995.2,7264.3,10988.1,7257.4,10970.1z M8465,10500.2c-5.1-13.3-29.7-30.7-24.9-18.2c1.8,4.7,3.1,14.9,3.4,22.9
		c0.2,9.8,4,12.8,12.6,9.5C8463.1,10511.7,8466.8,10504.9,8465,10500.2z M8127,10622.8c-1.5-3.9-8.5-5.7-14.7-3.3
		s-10.2,8.4-8.7,12.3c1.8,4.7,8.5,5.7,14.7,3.3C8124.5,10632.7,8128.8,10627.5,8127,10622.8z M8403.1,10483.7
		c-14.9-8.6-34.8-1.9-30,10.6c1.8,4.7,12.2,13.2,22.3,18.3c19,9.7,19.7,9.4,19-6.4C8414.5,10497.2,8408.8,10486.9,8403.1,10483.7z
		 M8341.6,10505.5c-6.3-16.4-31.1-20.3-34.1-4.8c-2.5,14.4,14,29.5,28.1,24.1C8341.8,10522.4,8344.6,10513.3,8341.6,10505.5z
		 M7350.5,10862.7c-2.4-6.2-7.6-10.5-11.5-9c-10.1,3.9-12.4,19.1-3.7,22.9C7347.1,10881.9,7355,10874.4,7350.5,10862.7z
		 M7255,10859.1c4.5-11.6,12.1-19.9,16.1-18.7c4.8,0.8,7.3-1.9,5.8-5.8c-1.8-4.7-9.4-8-18.1-7.4c-16.1-0.1-42.2,44-31,52.2
		C7238.3,10887.9,7246,10882.2,7255,10859.1z M10707.5,9523.8c-18.4-8.2-29.2,10.3-12.1,19.9c9.2,5.4,15.3,4.9,19.1-3.8
		C10718,9532.3,10716.2,9527.6,10707.5,9523.8z M8101.3,10493c0.1-16.1-18.2-33.3-34-32.6c-5.3,0.2-13.1,7.7-17.5,17.5
		c-5.8,13-3.9,20.3,6.1,29.9C8073,10521.8,8100.9,10512.9,8101.3,10493z M6654.7,11037.6c-0.5-6.1-8.3-7.6-16.9-4.3
		c-16.4,6.3-17.8,16.7-3.7,22.9C6643.8,11060.6,6655,11050.1,6654.7,11037.6z M7309.7,10779.9c-2.4-6.2-7.6-10.5-12.3-8.7
		c-3.9,1.5-5.7,8.5-3.3,14.7s8.4,10.2,12.3,8.7C7311.1,10792.8,7312.1,10786.1,7309.7,10779.9z M7244,10795.3
		c5-12.7,2.4-17-12.7-23.8c-17.3-7.7-18.8-7.1-24.4,11.1c-2.9,11-3.1,24.5-1,29.9C7211.3,10826.6,7238,10814.6,7244,10795.3z
		 M7195.6,10790.6c3.7-6.8,3.1-20-1.8-28c-6.7-12.7-15.2-13.9-42.3-5.2c-33.7,10.2-43.2,27.3-15.4,27.4c9.8-0.2,13.7,5.5,13.2,22.7
		c0.2,21.4,1.2,21.9,19.4,8.7C7179.5,10809.3,7191.9,10797.3,7195.6,10790.6z M6398.7,11089.3c-1.5-3.9-4.6-7.2-6.1-6.6
		c-2.3,0.9-4.7,6.3-5.6,11.1c-0.5,5.6,2.2,8.1,6.1,6.6C6397.8,11098.6,6400.5,11094,6398.7,11089.3z M9754.9,9778.5
		c-2.4-6.2-10-9.6-16.2-7.2c-12.5,4.8-12,15.4,0.6,20.3C9751.5,9797.7,9759.7,9791,9754.9,9778.5z M6497.2,11019.3
		c-2.7-7-0.6-20.3,5.1-28.8c5.1-10,5.1-17.2-0.8-18.5c-5.4-2.4-16.8-8.8-24.8-15.6s-22.7-10.1-32.6-8.1c-9.2,1.7-18.8,0-20.3-3.9
		s-8.2-4.9-14.4-2.5c-14,5.4-6.6,29.4,7.4,24c16.7-5.5,52.9,23.6,55.7,44.9c2.2,19.7,10.8,28.1,23.3,23.3
		C6498.9,11033,6499.9,11026.3,6497.2,11019.3z M6329.7,11037.9c-8.6-15.5-21.2-29.5-25.8-32.2c-11.9-5.3-28.2,19.8-22.8,33.8
		c6,15.6,40.2,34.7,53.5,29.6C6343.9,11065.6,6343.4,11059.5,6329.7,11037.9z M6597.6,10944.9c19.8-18.4,1.3-36.3-38-38.3
		c-21.7-0.6-43-2.3-47.5-2.4c-4.8-0.8-4.4,2.6,0.5,6.1s4.2,10.9-1.2,15.7c-19.3,17.3-3.7,30.1,35.2,28.6c20.6,0.1,38.4-0.4,39.1-0.7
		C6586.9,10954.4,6591.5,10950,6597.6,10944.9z M9571.1,9714.7c-1.5-3.9-7.2-7.1-12.5-6.8c-5.3,0.2-7.4,6.4-4.7,13.4
		s8.4,10.2,12.5,6.8C9570.4,9724.8,9572.5,9718.6,9571.1,9714.7z M9337.3,9612c-6.3-4.7-11-2.9-13.9,3.5c-2.9,6.5-0.7,14.6,4.2,18.1
		c6.3,4.7,11,2.9,13.9-3.5C9344.4,9623.5,9342.2,9615.4,9337.3,9612z M10748.3,9081.9c-9.7-16-23.2-9-20,8.6
		c1.4,8.4,7.1,11.6,14.9,8.6S10752.9,9089.1,10748.3,9081.9z M5799.6,10970.1c-3.3-8.6-7-20.6-8-25.6c-1.3-5.8-10.1-7.7-18.7-4.5
		c-8.6,3.3-23.8,1.1-33.8-4c-19.6-11.3-34.9,0-27.4,19.5c6.6,17.2,62,42.5,78.4,36.2C5798.5,10988.4,5802.4,10979.8,5799.6,10970.1z
		 M9251.4,9637.8c-0.4-7.9-5.5-9.5-13.9-3.6c-6.7,3.5-12.1,12.7-12.4,19.1c0.4,7.9,5.5,9.5,13.9,3.6
		C9245.7,9653.4,9251.1,9644.1,9251.4,9637.8z M5680,10975.7c-4.7-5.3-12.3-8.7-17-6.9c-10.9,4.2,1.7,32.5,15.2,32.7
		C5691.4,11000.9,5692.2,10989,5680,10975.7z M10672.8,9020.4c-5.4-14-49-29.6-53.8-18.8c-6.2,14,7.7,24.8,32.9,25
		C10676.2,9027.2,10675.5,9027.5,10672.8,9020.4z M10528.7,9022.9c-6.7-12.7-16.5-19.6-25.7-17.9c-21,3.6-18,30.2,4.3,36.9
		C10535.4,9049.9,10540.8,9045.2,10528.7,9022.9z M10616.3,8983c-0.1-7.1-6.8-15.3-14.8-17.6c-8.3-3.1-16.3-9.9-18.4-15.3
		c-2.1-5.5-18.9-14.2-38.2-20.2c-19-5.2-38.9-17.3-44-26.1s-13.9-15.3-19.5-15.8c-15.5,1.5-14.2,30.5,1.2,33.6
		c6.7,1,11.4,6.4,10.1,12.2c-2,13.3,60.5,57.4,80.9,56.7c8.7-0.7,17,2.4,18.5,6.3C10596.6,9008.5,10616.1,8996.5,10616.3,8983z
		 M9126.7,9518.2c-2.4-6.2-7.6-10.5-11.5-9c-10.1,3.9-12.4,19.1-3.7,22.9C9123.3,9537.4,9131.2,9529.9,9126.7,9518.2z
		 M5581.7,10803.9c-5-10.6-57.3-32.6-67.4-28.7c-6.2,2.4-16-1.9-21.3-8.8c-12.2-17.7-51.2-26-88.4-18c-27.3,6-29.3,7.7-22.7,24.8
		c4.8,12.5,18.2,21.7,39.8,26.8c17.6,4,46.4,13.5,61.8,21c24.1,11.4,36.8,11.8,64.9,1.1
		C5567.9,10814.6,5582.6,10806.3,5581.7,10803.9z M5416.9,10715c2.3-12.5-26.9-44.3-37-40.4c-3.9,1.5-5.7,8.5-3.3,14.7
		s8.4,10.2,13.1,8.4s8.9,4.6,9.1,14.4C5400.1,10729.5,5414.2,10731.2,5416.9,10715z M5235.5,10671.8c-2.4-6.2-7.6-10.5-12.3-8.7
		c-3.9,1.5-5.7,8.5-3.3,14.7c2.4,6.2,8.4,10.2,12.3,8.7C5236.9,10684.7,5237.9,10678,5235.5,10671.8z M4146.5,10144.3
		c-1.5-3.9-8.2-4.9-14.4-2.5c-11.7,4.5-12,15.4-0.1,20.6C4140.6,10166.2,4150.4,10154.4,4146.5,10144.3z M3755.6,9865.4
		c-19.2-26.7-50.9-36.9-63.7-21.2c-8.7,12.3,9.6,32.1,48.6,52.1C3769.5,9911.1,3777,9895.7,3755.6,9865.4z M3444.2,9742.3
		c-3.4-4.1-9.2-5.4-13.1-3.9s-7.4,6.4-7.1,11.7c0.2,5.3,6.4,7.4,13.4,4.7C3444.3,9752.1,3447.5,9746.4,3444.2,9742.3z
		 M3279.6,9707.9c1.3-29.2-13.5-53.9-23.5-40.2c-3,3.8-2.7,16.3,1.5,27.2c3.9,10.1,4.1,19.9-0.6,21.7c-3.9,1.5-5.7,8.5-3.3,14.7
		C3261.4,9751.6,3278,9736.3,3279.6,9707.9z M3216.2,9614.9c-3.4-4.1-9.2-5.4-13.1-3.9s-7.4,6.4-7.1,11.7c0.2,5.3,6.4,7.4,13.4,4.7
		C3216.3,9624.7,3219.5,9619,3216.2,9614.9z M3012.5,9546.3c-2.4-6.2-7.6-10.5-12.3-8.7c-3.9,1.5-5.7,8.5-3.3,14.7
		s8.4,10.2,12.3,8.7C3013.9,9559.2,3014.9,9552.5,3012.5,9546.3z M10292,6253.7c2.7-23.4-14.3-34.8-31.1-20.3
		c-14.5,13.6-13.1,38.2,3.5,41.7C10284.7,6278.9,10288.8,6275.5,10292,6253.7z M9899,6351.8c-3.3-8.6-11.5-13.5-17.7-11.1
		c-11.7,4.5-10.1,22.7,3.6,28.2C9898.2,6375.3,9905,6367.4,9899,6351.8z M9751,6320.8c-0.5-6.1-5.9-8.5-13-5.8
		c-7,2.7-10.4,10.3-7.7,17.3C9735.4,6345.6,9751.7,6336.7,9751,6320.8z M9432.4,6274.8c1-13.8-2.1-24.2-8-25.6
		c-12.1-3.4-37.3-22.4-58.9-43.7c-11.2-12.7-23.2-16.2-34.9-11.7c-34.3,13.2-27,22.9,50.1,67.6c6.8,3.7,14.1,13.4,17.1,21.2
		C9409.5,6313.1,9430.2,6308.7,9432.4,6274.8z M9466.9,6159.4c-1.5-3.9-8.5-5.7-14.7-3.3s-10.2,8.4-8.7,12.3
		c1.8,4.7,8.5,5.7,14.7,3.3S9468.7,6164.1,9466.9,6159.4z M9389.5,6079c-2-10-7.4-12.4-18.4-8.2c-9.4,3.6-14.6,11-12.5,16.4
		C9367.9,6111.5,9393.8,6104.2,9389.5,6079z M9030,6017.3c4-10.5-13.3-25.3-24.2-21.1c-13.3,5.1-16.8,21.7-6.6,29.4
		C9007.9,6032.1,9024.9,6027.4,9030,6017.3z M3532.4,7914.8c-13.5-35.1-53.1-56.6-125.9-69c-65.8-10.5-74.2-9.1-66.4,11.2
		c3.9,10.1,19.2,15,50.7,15.5c37.9,0.7,46.5,4.5,52.8,20.9c4.5,11.7,10.9,19.1,14.8,17.6c3.9-1.5,19.6,6.8,34.7,18
		C3528.7,7956.5,3545.8,7950,3532.4,7914.8z M8232.5,5952.8c-3.6-9.4-29.3-11.1-33.2-2.5c-4.3,9.7,12.8,19.3,25.3,14.5
		C8230.8,5962.4,8234,5956.7,8232.5,5952.8z M9325.5,5525.1c7.6-19.9,7.3-20.7-23.6-24.1c-16.7-1.6-35.8-6.9-41-11.1
		c-14.6-12.3-26.2-5.2-19.9,11.2c3,7.8,17,18.6,31.5,23.7c14.5,5.2,27.3,12.8,29.1,17.5C9306.5,5554.8,9317,5547.2,9325.5,5525.1z
		 M2248.7,8186.5c-3.6-9.4-11.2-12.7-20.5-9.1c-20.3,7.8-23,24.1-5.9,33.6S2255.9,8205.2,2248.7,8186.5z M8192.6,5895.6
		c-5.7-14.8-12.6-21.1-20.4-18.1c-11.7,4.5-2.2,45.6,11.9,51.9C8197,5935.1,8201.6,5919,8192.6,5895.6z M8114.8,5837.7
		c-0.1-7.1-4.4-9.1-9.7-4.3c-4.9,3.7-8.7,12.3-8.2,18.4c0.1,7.1,4.4,9.1,9.7,4.3C8111.5,5852.4,8115.4,5843.7,8114.8,5837.7z
		 M3293.3,7665.4c-0.8-23-7.4-40.2-25-67.4c-12.8-19.3-28.7-49-35-65.4c-12-31.2-54.6-60.5-76.4-52.1c-6.2,2.4-19.8-4.9-30.4-16.1
		c-16.7-17.8-22.3-18.3-39.5-7.2c-16.8,10-21.6,9.2-29-3.2c-6.1-11.1-17.3-14.8-38.2-13.1c-15.2,2.3-38.8,1.5-51.7-1.7
		c-22.4-4.8-45.7,6.8-40.9,19.3c1.2,3.1,20,14.7,41.1,25.4c34.4,17.2,69.6,53,81.3,83.4c2.7,7,15.4,19.2,28.2,26.8
		c12.8,7.6,24.3,16.6,25.8,20.5s15.4,12,30.5,18.7c14.8,6,36.7,20.8,47.5,32.8c13,12.9,26,18.7,35.3,15.1c7.8-3,25.9-0.1,40.3,6.9
		C3291.4,7704.7,3295,7702.4,3293.3,7665.4z M9105.8,5405.3c-1.5-3.9-8.4-10.2-14.7-15c-8.8-6.5-13-5.8-17.3,4
		c-2.9,6.5-1.5,14.9,2.7,18.7C9086.3,5419.9,9109.1,5413.9,9105.8,5405.3z M9098,5361.7c-1.5-3.9-10.3-5.9-19.8-4.9
		c-19,1.9-19.5,14.6-0.7,14.6C9094.8,5371.9,9101,5369.5,9098,5361.7z M9044.9,5363.3c-1.5-3.9-8.5-5.7-14.7-3.3s-10.2,8.4-8.7,12.3
		c1.8,4.7,8.5,5.7,14.7,3.3S9046.7,5368,9044.9,5363.3z M950.9,8433.1c-23-29.7-81.9-38.4-71.4-11.1c5.7,14.8,56.2,36.6,71.8,30.7
		C959.1,8449.6,958.5,8443.6,950.9,8433.1z M8459.9,5565.5c-2.7-7-83.7-66.4-102-74.5c-10.8-4.8-21.5-14.1-23.9-20.4
		c-2.4-6.2-8.4-10.2-13.1-8.4c-3.9,1.5-15.6-5.7-24.6-17.4c-9.5-10.7-20.7-18.9-24.6-17.4s-20-10.2-36.1-26.4
		c-39.9-41.1-116.2-76.3-143.5-65.8c-17.2,6.6-20.4,12.3-15,26.3c3.6,9.4,14.8,22.1,24,27.5c9.5,6.2,20.1,17.4,23.4,25.9
		c3,7.8,15.4,23.7,27.5,34.2c12.4,11.4,27.3,24.4,32.8,29.5c5.5,5,15.4,7.5,22.4,4.8c12.5-4.8,54.6,14,112.8,48.9
		c16.3,9.9,33.5,14.9,38,10.5c4.6-4.4,13.7-1.7,19.3,6C8391.4,5566.7,8465.9,5581.1,8459.9,5565.5z M1353.2,8186.4
		c-2.4-6.2-10-9.6-17-6.9c-10.9,4.2-10,6.5,1.4,12.9c7.9,4.1,15.4,7.5,17,6.9C1356.1,8198.7,1355.6,8192.6,1353.2,8186.4z
		 M8926.4,5264.6c-3-7.8-11.2-12.7-17.4-10.3c-11.7,4.5-7.1,30.5,5.9,36.3C8926.5,5295.1,8932.7,5281,8926.4,5264.6z M3100.5,7431.4
		c1.9-11.5-16.6-15.1-24.3-5c-6.5,8.8,4.4,20.7,15.3,16.5C3095.4,7441.4,3098.9,7436.5,3100.5,7431.4z M2916.3,7429.6
		c-6.6-17.2-28-21.5-38.7-7.5c-4.7,6.3-0.8,11.9,12.5,18.5C2914.7,7453.5,2923.8,7449.1,2916.3,7429.6z M2847,7389.1
		c-2.4-6.2-10-9.6-16.2-7.2s-9.6,10-7.2,16.2c2.4,6.2,10,9.6,16.2,7.2C2846,7402.9,2849.4,7395.3,2847,7389.1z M865.7,8078.1
		c-1.5-3.9-7.2-7.1-12.5-6.9s-7.4,6.4-4.7,13.4s8.4,10.2,12.5,6.8S867.2,8082,865.7,8078.1z M8018,5331.3
		c0-18.8-41.1-37.1-55.1-24.5c-12.7,11.2-5,35.9,13.4,44.1S8018.3,5348.2,8018,5331.3z M2788.8,7330.8c-2.4-6.2-7.6-10.5-11.5-9
		c-10.1,3.9-12.4,19.1-3.7,22.9C2785.4,7350,2793.3,7342.5,2788.8,7330.8z M885.7,8030.1c2.9-18.1-18.3-36-39-31.6
		c-28.6,4.7-28.9,11.1-0.3,29.6C873.7,8045.4,882.7,8045.5,885.7,8030.1z M2725.5,7305.9c-3.3-8.6-10.7-13.8-16.9-11.4
		c-14,5.4-17.8,21.2-7.4,29.7C2715.1,7334.9,2731.8,7322.3,2725.5,7305.9z M2561.3,7209.5c-3.4-15.7-7.7-17.7-17.7-11.1
		c-7.2,4.6-10.6,16.6-8.6,26.6c3.4,15.7,7.7,17.7,17.7,11.1C2559.9,7231.5,2563.4,7219.5,2561.3,7209.5z M3438.8,6831.4
		c-6.3-16.4-43.8-20.8-86.5-10.7c-42.7,10.1-46,17.7-14.3,35c22.5,12,38.2,8.6,38.3-7.5c-0.7-8.7,5.9-10.3,27-6.8
		C3438.4,6846.8,3443.9,6844.7,3438.8,6831.4z M2355.9,7143.3c15.6-6,3.4-19.2-26.6-27.4c-20.1-5.7-28.5-4.3-43.3,8.6
		c-9.9,9.2-16,21.4-13.3,28.4c5.4,14,22.4,9.3,31.3-9.3c4.5-11.6,6.2-9.5,8.9,9.1c1.8,16.3,7.1,23.2,20.2,24.5
		c14.4,2.5,16.9-0.2,13.7-13.3C2345.3,7155.4,2348.9,7146,2355.9,7143.3z M2213.3,7142.5c-11.2-12.7-36.2-5.8-30.9,8.3
		c3,7.8,11.8,9.8,21.2,6.2S2216.9,7147.4,2213.3,7142.5z M3375.2,6647.2c-5.2-8.8-16.6-10.6-34.4-5.6c-28.5,7.4-30.3,21.5-2.8,25.3
		C3365,6671.7,3384,6660.8,3375.2,6647.2z M8268.9,4734.4c-8.3-14.7-35-14.3-38.1,1.2c-1.5,7.7,0.7,15.8,4.5,18.8
		C8244.1,4761,8274,4743.2,8268.9,4734.4z M8179.8,4677.3c-0.5-6.1-11-14.6-22.9-19.9c-13-5.8-24.5-14.8-26.9-21
		c-2.1-5.5-11.2-12.7-20.6-16.3c-14.2-4.4-14.4-2.5,1.1,23.8C8139.7,4691.8,8180.5,4711.9,8179.8,4677.3z M5913,5509
		c-6-15.6-12.9-21.9-20.7-18.9c-16.4,6.3-15.3,30.1,1.8,39.6C5915.8,5542,5922.9,5534.8,5913,5509z M5986.1,5468.5
		c2.6-7.3,0-18.8-5.1-24.9c-7.8-8.6-15.7-8.3-32.7,3.6c-12.4,7.4-24.3,18.3-27,22.9c-5.8,13,11.9,24.1,23.4,14.3
		c4.6-4.4,12.2-5.6,16-2.6C5972,5490,5980.7,5484.8,5986.1,5468.5z M7877.7,4685.8c0.4-8.2-4.9-15.1-10.2-14.9
		c-6.1,0.5-12.4-4.2-14.8-10.5c-5.7-14.8-25.7-6.3-25.9,11.7c-0.3,18,24.8,38.8,39.6,33.2C7872.6,4703,7878,4693.7,7877.7,4685.8z
		 M8206.6,4556c-1.5-3.9-8.2-4.9-14.4-2.5c-11.7,4.5-12,15.4-0.1,20.6C8200.7,4577.9,8210.5,4566.1,8206.6,4556z M7518.5,4760.1
		c-7.6-10.5-17-25.7-20-33.5c-4.1-8.3-11.8-14.3-17-14.1c-18.5,0.8,11.6,69.9,35.4,80.4C7539.5,4803.1,7540.1,4788.5,7518.5,4760.1z
		 M7414,4730.4c-2.4-6.2-9.7-8.8-15.9-6.4c-11.7,4.5-10.1,22.7,2.9,28.5C7411.4,4756.5,7419.1,4743.7,7414,4730.4z M7959.8,4468.1
		c-1.5-3.9-7.2-7.1-12.5-6.8s-7.4,6.4-4.7,13.4c2.7,7,8.4,10.2,12.5,6.9C7959.1,4478.1,7961.3,4472,7959.8,4468.1z M7957.4,4373.2
		c-2.1-5.5-14.2-16-27-23.7c-17.4-10.3-23.8-10.6-28.1-0.9c-4.3,9.7-0.9,16.4,15,27.4C7938.6,4392,7963.6,4389.6,7957.4,4373.2z
		 M1600.7,6759.8c-10.1-12.2-28.1-8-23.1,5.3c2.7,7,10.3,10.4,17.3,7.7S1604.3,6764.7,1600.7,6759.8z M1572.5,6709.8
		c5.2-26.2-5.7-33.6-34.6-22.5c-25.8,9.9-29.6,6.9-19-16.9c9.9-20.8-2.4-41.2-21.5-37.4c-9.2,1.7-12.4,7.4-8.5,17.6
		c3.3,8.6,2,21.6-2.1,29.5c-9.6,17.1-6.1,28.3,15.3,51.4C1521.6,6754.4,1566.2,6739.9,1572.5,6709.8z M1454.3,6681.7
		c-9.1-18.9-16.4-24.1-31.1-20.3c-10.7,2.3-17.8,9.5-18.3,17.8c0.3,19.6,27.7,39.5,45.7,32.6
		C1463.9,6706.7,1464.7,6701.9,1454.3,6681.7z M1444.3,6630c3.7-11.3,1.8-18.6-9.7-27.6c-16.6-15.1-44.8-7-60.9,16.2
		c-11.6,18.8,0.9,32.8,22.8,24.4c7.8-3,18.7-2.7,22.5,0.3C1430.2,6651.6,1438.9,6646.4,1444.3,6630z M1080.7,6706.9
		c-5.1-13.3-51.6-29.4-81.7-28.6c-16.9,0.2-28.5-4.3-30.4-11.6c-3.8-19.1-33.8-22.8-46.3-6.4c-14.2,18.9-9.4,43,6.9,36.7
		c6.2-2.4,17.8,2.1,25.6,10.8c7.5,7.9,35.2,16.9,62.3,20C1063.9,6733.1,1087.9,6725.7,1080.7,6706.9z M1260.8,6604.7
		c-2.1-5.5-10.7-9.3-18.4-8.2c-14.9,3.1-14.1,21.5,1,28.3C1254.3,6629.6,1265.6,6617.1,1260.8,6604.7z M1206,6604.2
		c-5.5-5-12.3-8.7-16.2-7.2c-3.1,1.2-2.6,7.3,2.2,12.6c5.5,5,12.3,8.7,16.2,7.2C1211.3,6615.6,1210.8,6609.5,1206,6604.2z
		 M1472.4,6472.4c8.1-13.9,9.2-25,2-32.1c-10.9-12-37.3-6.3-40.3,9.2c-0.5,5.6-10.2,8.4-24,7.4c-34.8-1.9-33.9,12.1,2.3,26.9
		C1450.1,6500.6,1455.9,6499.3,1472.4,6472.4z M1068.2,6604.3c-14-6.3-25.2,15.9-12.3,26.2c6.3,4.7,11,2.9,16.1-7.1
		C1077.4,6614.2,1076.8,6608.1,1068.2,6604.3z M1369.2,6502.2c-3-7.8-13.3-13.7-22.8-12.7c-19.7,2.2-19.6,4.8,0.6,20.3
		C1367.1,6524.5,1376.7,6521.7,1369.2,6502.2z M899,6667.5c-0.2-16.9-11-26.2-25-20.8c-14,5.4-16.8,21.7-5.9,33.6
		C879.5,6693.7,898.8,6685.5,899,6667.5z M1194.8,6561c-4.5-11.7-28.3-17.8-43.9-11.8c-14,5.4-14.5,6.5,5.2,15.9
		C1176.2,6575.4,1199.3,6572.8,1194.8,6561z M1119.8,6575.5c-6-15.6-24.1-18.5-30.4-4.5c-2.9,6.5-1,13.8,3.2,17.6
		C1105.2,6598.1,1124.6,6588,1119.8,6575.5z M958.1,6581.2c-6.8-10.8-6.1-18.2,0.1-20.6s12.1-1.1,13.3,2
		c3.9,10.1,47.3,11.4,49.5,0.7c1.1-4-9.8-11.5-23.2-16.2c-17.9-4.8-27.9-14.4-32-29.8c-3.7-12-12.1-22.2-17.4-22
		c-6.4-0.2-9.5,5.5-6.8,12.5s-1.4,14.9-10,18.2c-19.5,7.5-23,24.1-5.9,33.6c10,5.1,10,9.6-1,18.3c-17.1,13.7-13.4,25.7,13.1,43.3
		c19.4,13.2,20.2,12.9,24.9-5.1C965.8,6606,963.3,6590,958.1,6581.2z M831.7,6641.4c-14-6.3-25.2,15.9-12.3,26.2
		c6.3,4.7,11,2.9,16.1-7.1C840.9,6651.3,840.3,6645.2,831.7,6641.4z M5069.5,5021.6c-9.7-4.3-20.1,13.1-11,20.3
		c4.9,3.5,9.6,1.7,13-5.9C5074.3,5029.6,5073.8,5023.5,5069.5,5021.6z M1357.2,6428.9c-5.6-23.8-44.1-44.9-58.9-32
		c-21.1,19.7,25.7,71.6,51.2,56.4C1356,6449,1359,6438,1357.2,6428.9z M1069.1,6529.6c-5.5-28.3-12.1-33.9-31.6-26.4
		c-21.1,8.1-19.2,31.6,4.1,43.2C1068.3,6560.4,1074,6556.4,1069.1,6529.6z M764.8,6630.3c-2.4-6.2-10-9.6-16.2-7.2s-9.6,10-7.2,16.2
		c2.4,6.2,10,9.6,16.2,7.2S767.2,6636.6,764.8,6630.3z M4989.6,4969.9c-6.3-16.4-26.6-27.4-41.5-21.7c-12.5,4.8-3.7,30.1,13.6,37.8
		C4981.2,4994.6,4995.9,4986.3,4989.6,4969.9z M782.9,6575c0.8-4.8-5-10.6-12.2-13.2c-16.4-5.4-24.4,11.1-10.7,21.1
		C769.8,6589.9,781.1,6586.5,782.9,6575z M918.8,6495.1c-1.5-3.9-8.5-5.7-14.7-3.3s-10.2,8.4-8.7,12.3c1.8,4.7,8.5,5.7,14.7,3.3
		S920.6,6499.8,918.8,6495.1z M886.4,6480.7c2.2-15.2-0.3-19.6-11.7-18.8c-18.8,0-27.4,19.5-16,33
		C872.3,6509.4,883.4,6503.3,886.4,6480.7z M697,6547.1c-3.6-9.4-65.7-31.2-76.6-27c-18.7,7.2-6.4,27.5,17.7,29.9
		c11.5,1.9,24.9,6.6,30.9,10.5C678.1,6567.8,700.6,6556.5,697,6547.1z M975.6,6433c-2.4-6.2-10.1-12.2-16.7-13.3
		c-15.2-2.2-37.1-24.3-39.8-38.4c-1.3-5.8-7.8-8.6-14.8-6c-6.2,2.4-9.9,9.2-7.5,15.4c2.4,6.2-1.6,16.7-9.3,22.4
		c-20.7,16-13.5,23.1,37,33.3C970.3,6456.5,983.3,6453.3,975.6,6433z M1151.7,6378.8c7.7-10.1,7.1-11.7-4.6-7.2
		c-7,2.7-14.1,9.9-15,14.7C1129.9,6398.8,1140,6394.9,1151.7,6378.8z M782.3,6489.3c-2.4-6.2-7.6-10.5-11.5-9
		c-10.1,3.9-12.4,19.1-3.7,22.9C778.9,6508.5,786.8,6501,782.3,6489.3z M4902.5,4896.8c-2.1-24.2-16.8-32.1-41.8-22.5
		c-20.3,7.8-16.6,31.4,5.6,42.6C4893.9,4930.5,4906.6,4923.8,4902.5,4896.8z M4970.8,4874.1c-2.4-6.2-15.8-15.4-29.5-20.9
		c-14.8-6-26.3-15-26.1-21.3c-0.2-5.3-7.6-15-17.1-21.2c-14.2-8.9-18.7-9-23.9,2.9c-4.8,10.8-2.7,16.3,9.6,25
		c8,6.8,18.1,19,21.3,27.6c3.3,8.6,11.5,13.5,17.7,11.1c7-2.7,16.1,0.1,20.9,5.4C4954.8,4895.5,4976.2,4888.2,4970.8,4874.1z
		 M586.9,6524c-2.8-14.2-2.9-28.5,0.1-32.3c8.5-10.4-30.9-33.8-66.4-39.9c-19.2-3.4-35.2-5.3-37.5-4.4c-10.9,4.2,8,18.4,43.3,33.5
		c21.6,9.6,31.9,15.5,22.8,12.7c-20.9-5.4-31.2,7.5-23.4,27.8C543.6,6567.5,594.5,6569.4,586.9,6524z M728.1,6478.8
		c10.7-9.5,15.2-21.1,11.3-31.2c-3.6-9.4,0.3-22.5,9.9-32.5c20-20.2,10.8-48.9-19-63.5c-26.5-13.1-35.3-3.4-24.4,27.3
		c12.4,34.6,0.1,72.5-23.9,75.4c-15.2,2.3-18.2,6.1-13.5,18.6c3.6,9.4,14,17.9,23.3,18.8C712.1,6495.6,708.2,6497.1,728.1,6478.8z
		 M628.6,6485.6c-2.4-6.2,1-13.8,8-16.5c10.9-4.2,10.3-5.8-6.6-17.2c-10.6-6.7-19.4-20.3-21.3-32.1c-0.8-11.3-5.3-18.5-10-16.8
		c-13.3,5.1-13.3,21.2-0.6,63.8c9,30.6,14.7,38.2,23.3,34.9C627.6,6499.4,631,6491.9,628.6,6485.6z M501.2,6505.9
		c0.9-16.4-1.7-25.3-10.3-29.2c-14-6.3-20,8.6-16.2,39.4C478.4,6546.9,499,6539.9,501.2,6505.9z M4835.8,4848.9
		c1-13.8-3.3-20.2-18.5-29.6c-18.5-10.8-20.8-9.9-26,4.6c-6.8,19.6,15.1,53.3,30.7,47.3C4828.2,4868.9,4834.1,4858.6,4835.8,4848.9z
		 M814.6,6373c2.7-16.3-20.9-24.2-27.7-9.1c-5.8,13,6.8,27,18.5,22.5C809.3,6384.9,813.3,6378.9,814.6,6373z M378,6532.6
		c-1.5-3.9,5.6-11.1,16.5-15.3c21.1-8.1,22.3-16.6,2.8-25.3c-8.6-3.8-11.2-12.7-9.5-34c2.7-27.9,2.4-28.7-14.8-22.1
		c-27.3,10.5-44.4,43-32.2,60.7c5.9,8.5,9.2,21.6,7.7,29.3s0.7,15.8,3.5,18.4C360.8,6550.8,381.6,6541.9,378,6532.6z M888,6321.6
		c-2.7-7-0.3-19.6,5.4-28c7.1-11.7,6.4-15.9-3.6-21c-9.7-4.3-14.8,1.2-24.1,23.6c-13,33.7-13.4,37.4,5,45.6
		C885.8,6348.4,894.3,6337.9,888,6321.6z M767.8,6325.6c-8.1-9.4-50.5-21.8-59.8-18.2c-8.6,3.3,4.1,19.9,21.9,29.2
		C752.1,6347.8,780.3,6339.6,767.8,6325.6z M541.8,6401.7c2.9-6.5-45.7-21-57.7-17.3c-14.8,5.7-11.9,29.6,5.2,39.2
		C502.1,6431.2,535.3,6417.6,541.8,6401.7z M666.8,6351.9c-1.5-3.9-14.3-11.5-29.1-17.5c-32.9-13.3-46.9,3.7-22.4,25.6
		C629.9,6372.3,672.2,6365.9,666.8,6351.9z M4038,5033.4c-2.4-6.2-7.6-10.5-11.5-9c-10.1,3.9-12.4,19.1-3.7,22.9
		C4034.6,5052.6,4042.5,5045.1,4038,5033.4z M4163.5,4970.9c6.3-14-42.5-61.6-62.3-62c-7.1,0.1-15.7-8.3-19.3-17.7
		c-8.1-21.1-24.1-23-40.4-5.1c-19.4,21.8-37.6,16.2-42.1-11.6c-2-14.5-8-25.6-14.7-26.6c-7.7-1.5-9.5-6.2-5.5-16.7
		c5.5-18.2-9.3-35.8-26.5-29.2c-6.2,2.4-15.6,13.1-19.6,23.6c-4.8,10.8-6.3,14-5.2,7.4c2.6-11.8-34.3-26.2-49.9-20.3
		c-4.7,1.8-19.2-3.4-33.1-11.5c-27.7-16.2-49.9-4.1-40,21.6c7.8,20.3,2.8,21.3-38.5,9.4c-33.2-9.6-34.9-11.7-43.7-48.6
		c-7.6-33.8-12.3-39.1-36.9-49.4c-23.5-9.8-28.4-8.8-31.1,3c-2.6,11.8-7.1,11.7-27-0.4c-13.4-9.2-31-13.2-38.8-10.2
		c-21.1,8.1-16.9,30.7,6.9,36.7c12.1,3.4,20.3,11,20.7,18.9c-0.1,16.1-11.7,23.3-23.2,14.3c-3.8-3-13.1-3.9-19.4-1.5
		c-13.3,5.1,3.9,56.7,20.4,60.2c5.6,0.5,11.5,9,12.2,17.7c1.6,11,5.7,14.8,13.5,11.8c7-2.7,29.2,1.3,50.2,9.4l37.7,14.2l-4.8-19.6
		c-2.2-12.6-11.3-22.5-23.7-26.7c-25.5-8.1-56.6-58.9-40.2-65.1c6.2-2.4,13.3,2,16.3,9.9c3,7.8,17.3,19.3,32.1,25.3
		s28.2,15.1,30.3,20.6s11.9,12.4,22.6,14.6c9.9,2.5,27.6,13.6,40.8,24.6c12.4,11.4,28,21.5,33.8,22.8c14.4,2.5,40.1,20.4,53.8,37.5
		c5,6.1,15.8,10.9,23,10.9c8.2,0.4,13.3,6.6,14,17.9c0.9,14,4.4,16.2,17.7,11.1c10.1-3.9,21.4-0.2,30.9,10.5
		c17,18.6,31.7,17.4,106.1-5.8c28.7-9.2,60.9-16.2,70.5-14.5C4154.2,4986.2,4157.3,4985,4163.5,4970.9z M4660,4740.9
		c-7.9-4.1-19.3-6-24.8-3.9c-6.2,2.4-8.8,9.7-6.4,15.9c3,7.8,12.3,8.7,24.8,3.9C4670.7,4750.2,4672.4,4747.8,4660,4740.9z
		 M4186.9,4873.3c1.3-5.9-3.5-13.9-10-16.8c-6-4-12.8-14.8-14.1-25c-1.8-16.3-4.4-16.2-38.5-2.2c-36.9,15.9-48.6,36.6-21.6,37
		c7.9-0.4,16.1,4.6,17.9,9.3C4129.6,4898.9,4182.4,4896.5,4186.9,4873.3z M4137.5,4802.7c-1.5-3.9-9.4-8-17.1-9.6
		c-11.2-1.1-16.3-9.9-22.3-37.1c-3.8-19.1-3.3-39,1.2-43.5c12.7-11.2,4.2-31.1-10.7-25.5c-7,2.7-12,10.9-12.4,19.1
		c0.5,10.6-2.3,12.5-10,6.5c-5.2-4.3-8-13.9-5.4-21.2c12.3-37.9-30.7-5.2-52.2,38.9c-7.5,15.4-17.2,29.9-21.9,31.7
		c-10.9,4.2-0.8,23.6,16.7,29.4c14.5,5.2,15.4,7.5,8.5,24.5c-4.5,11.6-5.4,20.9-3.3,21.8C4026.9,4846.1,4142,4814.4,4137.5,4802.7z
		 M4179.5,4772.3c-14.6-7.8-36.9-2.8-33,7.3c3.9,10.1,10.9,12,29.1,5.8C4190.2,4781.6,4190.1,4778.9,4179.5,4772.3z M3747.5,4922.9
		c-0.1-7.1-5.2-15.9-11.5-20.7c-9.8-7-11.4-6.4-14,5.4c-3.3,14.7,9.2,33.2,19.3,29.3C3744.4,4935.7,3747.3,4929.2,3747.5,4922.9z
		 M3897.4,4760.6c-3.3-8.6-2.2-19.7,3.1-24.5c15.3-13.9,11-32-12.9-56.8c-18.1-19-25.3-21.6-35.5-13.2s-17.9,6.9-28.5-4.3
		c-25.6-26.9-49.3-37.5-55.1-24.5c-6.3,14,42.2,49.2,59.3,42.6c12.5-4.8,39.8,61.7,30,73.5c-4,6,1.1,12.1,13.3,18.2
		C3895.8,4784.5,3904.9,4780.1,3897.4,4760.6z M3980.3,4719.8c-1.5-3.9-8.5-5.7-14.7-3.3s-10.2,8.4-8.7,12.3
		c1.8,4.7,8.5,5.7,14.7,3.3C3977.8,4729.7,3982.1,4724.5,3980.3,4719.8z M3804.4,4774.8c-2.4-6.2-8.5-12.8-14.1-13.4
		c-4.8-0.8-6.9,5.3-3.6,13.9c3.6,9.4,10.2,14.9,14.1,13.4C3805.4,4786.9,3806.8,4781,3804.4,4774.8z M3779.2,4732.5
		c-1.8-4.7,0.7-14.6,5.1-21.7c5.7-8.5,4.6-16.1-3.9-21.8c-9.1-7.3-11.1-5.6-11,8.7c0.2,9.8-3.4,23.7-7.9,30.8s-4.6,16.1,0.6,20.3
		C3772.3,4756.6,3784.3,4745.8,3779.2,4732.5z M4003.6,4626.7c-0.1-7.1-3.5-18.4-7.7-24.8c-6.5-10-8.1-9.4-17.8,5
		c-6.7,10.6-7.3,20.7-0.9,28.1C3989.5,4648.2,4003.8,4643.6,4003.6,4626.7z M3566.9,4748.7c2.3-31.3,1.4-33.7-18.6-43.9
		c-63.4-32.1-81.1-38.7-92-34.5c-7,2.7-12.2,5.6-11.6,7.1c0.3,0.8,8.5,12.8,18.9,25.9c17.5,24.6,17.5,24.6-40.2-4.3
		c-32.2-16.3-61.1-28.5-64.2-27.3c-11.7,4.5,8,30.1,48.5,65.6c36.4,31.7,47.9,36.2,75.6,33.7c19-1.9,32.3,0.1,30.4,4.5
		c-5.8,13,12.3,20.4,31.8,12.9C3559.4,4782.9,3565.3,4772.5,3566.9,4748.7z M3739.9,4700.1c-3-7.8-10-9.6-17.2-5.1
		c-10.3,5.8-18-0.3-33.8-22.8c-11.9-16.9-25.5-31.4-30.6-33c-5.9-1.3-11.7-7.1-13.5-11.8c-2.1-5.5-7-8.9-11.7-7.1
		c-9.4,3.6,6.3,51.3,19.3,59.7c4.9,3.5,13.3,13.7,19.1,24c7,13.4,14.5,16.8,27,12c9.4-3.6,20.7-4.4,25-2.4
		C3736.5,4719.4,3744.7,4712.6,3739.9,4700.1z M3923.3,4618.1c-3.9-10.1-16-13.6-22-5.9s6.4,19,17.3,14.8
		C3922.6,4625.5,3924.5,4621.2,3923.3,4618.1z M3849.8,4613.2c-2.4-6.2-9.2-9.9-15.4-7.5c-5.5,2.1-12.7,11.2-15.8,19.5
		c-4.7,13.4-1.7,14.1,15.4,7.5C3846.5,4627.9,3852.8,4621,3849.8,4613.2z M3927.5,4563.7c-2.6-11.5-9.7-16-21.1-15.2
		c-14.5,2-16.4,6.3-11.3,19.6C3907.4,4600,3934.5,4595.9,3927.5,4563.7z M3720.6,4589.3c-7.2-7.1-11.7-7.1-15.1,0.4
		c-3.4,7.6-0.4,15.4,11.9,24.1c13.2,11.1,16.6,10.6,14.3-0.1C3730.7,4606.1,3725.7,4595.5,3720.6,4589.3z M3824.3,4546.9
		c-3.3-8.6-11.5-13.5-17.7-11.1s-9,11.5-5.7,20.1s11.5,13.5,17.7,11.1S3827.6,4555.4,3824.3,4546.9z M3851.8,4511.2
		c-9.7-4.3-26.5,17.3-18.8,23.3c6.3,4.7,10.7,2.2,16.1-7.1C3853.6,4520.4,3854.3,4513,3851.8,4511.2z M3436.2,4655.5
		c-2.4-6.2-7.6-10.5-11.5-9c-10.1,3.9-12.4,19.1-3.7,22.9C3432.9,4674.8,3440.7,4667.3,3436.2,4655.5z M3652.7,4542.9
		c-3.9-10.1-16-13.6-22-5.9s6.4,19,17.3,14.8C3651.9,4550.3,3653.9,4546,3652.7,4542.9z M3959.2,4284.7c-0.7-4.2-8-6.8-15.6-5.7
		c-9.2,1.7-13.1,7.7-10.2,15.5C3938.5,4307.8,3962.2,4299.6,3959.2,4284.7z M3801.4,4300.5c-2.4-6.2-10-9.6-17-6.9
		c-10.9,4.2-10,6.5,1.4,12.9c7.9,4.1,15.4,7.5,17,6.9C3804.3,4312.8,3803.8,4306.7,3801.4,4300.5z M3958.9,4244.4
		c-3.6-9.4-29.3-11.1-33.2-2.5c-4.3,9.7,12.8,19.3,25.3,14.5C3957.3,4254,3960.4,4248.3,3958.9,4244.4z M3793,4185.5
		c-7.5-19.5-8.6-20-15.8-3.8c-4.3,9.7-3.9,20.3,0.3,24.1C3793.7,4217.4,3801.1,4206.5,3793,4185.5z M3707.8,4196.7
		c-1.5-3.9-8.2-4.9-14.4-2.5c-11.7,4.5-12,15.4-0.1,20.6C3701.9,4218.7,3711.7,4206.8,3707.8,4196.7z"/>
	<path class="st0" d="M4068.1,4936.8c-4.9-3.5-12.8-3.1-18.2,1.6c-5.3,4.7-10.3,5.8-11.8,1.9c-3.6-9.4,27-30.1,36.7-25.7
		c4.3,1.9,6.2,9.2,5.5,16.7C4078.6,4940.9,4075.4,4942.1,4068.1,4936.8z"/>
	<path class="st0" d="M3877.9,4891.6c0.2-6.4,8.8-16.8,21-22.4c18.6-9.8,20.5-9.7,16.1,4.6
		C3908.1,4893.5,3878.6,4907.5,3877.9,4891.6z"/>
	<path class="st0" d="M11319,10703.8c-1.5-3.9,1.8-7,6.6-6.1c5.6,0.5,10.2,3.2,11.1,5.6c0.6,1.6-1.9,4.3-6.6,6.1
		C11326.2,10710.9,11320.8,10708.5,11319,10703.8z"/>
	<path class="st0" d="M10982.1,10649.6c0.2-13.5,12.3-21.7,16.5-10.8c1.5,3.9-2.2,10.7-6.7,15.1
		C10985.2,10660.1,10982,10658.6,10982.1,10649.6z"/>
	<path class="st0" d="M11063.1,10597c-1.5-3.9-10-5.1-18.6-1.8c-18.7,7.2-18.4,8-14.8-29.2c2.4-24.2,6.8-31.3,24.1-35.2
		c30.1-8,58.3,18.8,48.3,44.1C11094.5,10594.8,11068.2,10610.3,11063.1,10597z"/>
	<path class="st0" d="M10641.7,10689c-1.5-3.9-12.7-12.1-25.2-19c-31.4-16.6-25.1-23.5,8.8-9.7c27.8,11.7,40.6,26.5,26.6,31.9
		C10648,10693.7,10642.9,10692.1,10641.7,10689z"/>
	<path class="st0" d="M10685.3,10646.3c-12.7-5-13.1-15.6-0.6-20.3c6.2-2.4,13.8,1,16.2,7.2
		C10705.7,10645.6,10697.5,10652.3,10685.3,10646.3z"/>
	<path class="st0" d="M10495.3,10680.7c-1.5-3.9,0.9-9.3,5.6-11.1c3.9-1.5,7,1.8,6.1,6.6c-0.5,5.6-3.2,10.2-5.6,11.1
		C10499.9,10687.9,10497.1,10685.4,10495.3,10680.7z"/>
	<path class="st0" d="M11070.7,10441.9c-3.8-3-3.8-7.5,0.1-9c4.7-1.8,10.1,0.6,11.6,4.5c1.8,4.7,1.4,8.4-0.1,9
		C11080,10447.3,11074.9,10445.7,11070.7,10441.9z"/>
	<path class="st0" d="M10451.2,10670.8c-3.8-3-3.8-7.5,0.1-9c4.7-1.8,10.1,0.6,11.6,4.5c1.8,4.7,1.4,8.4-0.1,9
		C10460.4,10676.2,10455.3,10674.6,10451.2,10670.8z"/>
	<path class="st0" d="M10610.8,10601.4c-12.2-13.2-70.9-35.5-83.7-31.4c-10.9,4.2-20.6-11.8-14.6-24c1.1-4,9.5-5.5,17.1-2.1
		c11.3,3.7,17.5,1.3,27-11.3c9-11.5,15-14.7,23.6-10.8c8.6,3.8,8,6.8-1.4,10.4c-7.8,3-10.9,11.3-7.3,20.7
		c7.2,18.7,37.3,10.8,34.3-8.7c-1.4-8.4,11.6-7.1,44.5,6.2c25.3,10,45.4,20.2,44.1,21.6c-1,2.2-18.5,12.5-37.9,22.6
		C10627.3,10609.4,10617.8,10610.4,10610.8,10601.4z"/>
	<path class="st0" d="M10469,10619.2c-6.2-9.2-6-15.6,1-18.3c5.5-2.1,16.7,1.6,24.7,8.4c12.1,10.6,12.2,13.2-0.3,18
		C10485.9,10630.6,10474.6,10626.9,10469,10619.2z"/>
	<path class="st0" d="M11020.6,10416.3c-1.5-3.9,0.9-9.3,4.8-10.8c4.7-1.8,9.3,0.9,10.8,4.8c1.8,4.7-0.1,9-4.8,10.8
		C11027.5,10422.7,11022.4,10421,11020.6,10416.3z"/>
	<path class="st0" d="M10847.5,10420.1c-11.5-9-0.9-44.4,16.2-51c14.8-5.7,14.6-3.8,2.6,16c-7.1,11.7-9.5,24.2-4.3,28.5
		c4.9,3.5,5.6,7.7,1,9.5C10859,10424.7,10852.4,10423.6,10847.5,10420.1z"/>
	<path class="st0" d="M7515.6,11269.5c-8-6.8-12.2-13.2-9.9-14.1c10.9-4.2,41.4,2.9,44.1,9.9
		C7555.2,11279.3,7530.2,11281.8,7515.6,11269.5z"/>
	<path class="st0" d="M7099.5,11333.4c4.6-4.4,11.9-6.4,15.1-4.9c4,1.1,0.2,5.3-8.6,7.8
		C7097.4,11339.6,7094.2,11338.1,7099.5,11333.4z"/>
	<path class="st0" d="M7000.2,11289.1c-11.2-8.2,10.9-23,34.9-23.3c12.4-0.3,23.1,1.9,24,4.2
		C7061.8,11277.1,7006.8,11294.7,7000.2,11289.1z"/>
	<path class="st0" d="M6757.6,11142.3c4.6-4.4,11.9-6.4,15.1-4.9c4,1.1,0.2,5.3-8.6,7.8C6755.5,11148.5,6752.2,11147,6757.6,11142.3
		z"/>
	<path class="st0" d="M5685.9,11107.8c-11.5-13.5-11.1-36,1.3-40.8c15.6-6,22.3,2.2,22.3,25.5
		C5709.2,11115,5699.5,11122.3,5685.9,11107.8z"/>
	<path class="st0" d="M4955,10771.4c-10.2-3.2-17.6-8.5-16.1-11.7c1.4-3.2,11.2-3.4,21.9-1.2c10.2,3.2,17.6,8.5,16.1,11.7
		C4975.5,10773.4,4965.7,10773.6,4955,10771.4z"/>
	<path class="st0" d="M4831.9,10716.6c-2.1-5.5-2.9-16.8-2-26.1c1.2-8.5,2.4-24.2,2.2-34c-0.4-15.1,1.1-15.7,7.4-6.4
		c4.3,6.4,5.7,26.5,2.5,43.8C4838.3,10712.3,4834,10722.1,4831.9,10716.6z"/>
	<path class="st0" d="M4552,10570.6c-1.5-3.9,1.8-7,6.6-6.1c5.6,0.5,10.2,3.2,11.1,5.6c0.6,1.6-1.9,4.3-6.6,6.1
		C4559.2,10577.7,4553.8,10575.3,4552,10570.6z"/>
	<path class="st0" d="M10991.2,7976.8c-5.3-6.9-12.8-14.8-16.2-18.9c-3.8-3,2-1.7,11.3,3.7c18.5,10.8,27.2,21.8,19.4,24.8
		C11003.3,7987.4,10997,7982.6,10991.2,7976.8z"/>
	<path class="st0" d="M4469.8,10480.4c-4-1.1-8.8-6.5-10.6-11.2c-1.8-4.7,2.4-5.4,10-2c6.5,2.9,11.2,8.2,10.6,11.2
		C4478.4,10481.6,4473.4,10482.6,4469.8,10480.4z"/>
	<path class="st0" d="M4220,10415.1c-13-5.8-14.6-24-2.9-28.5c6.2-2.4,13.5,0.2,15.9,6.4
		C4238.2,10406.4,4230.5,10419.1,4220,10415.1z"/>
	<path class="st0" d="M3856.3,10400.7c-8.5-5.7,3.3-38,15-42.5c4.7-1.8,6.8,3.7,4.9,15.1
		C3873.6,10396.8,3865.4,10408,3856.3,10400.7z"/>
	<path class="st0" d="M3429.1,9838.5c-1.5-3.9,0.9-9.3,4.8-10.8c4.7-1.8,9.3,0.9,10.8,4.8c1.8,4.7-0.1,9-4.8,10.8
		C3436,9844.8,3430.9,9843.2,3429.1,9838.5z"/>
	<path class="st0" d="M2677.6,9371.3c-14.6-7.8-16.2-26-3.8-30.8c9.4-3.6,26.8,18.4,21.9,29.2
		C2693.4,9375.1,2685.4,9375.4,2677.6,9371.3z"/>
	<path class="st0" d="M9407.4,5822.3c4.3-9.7,9-11.5,18.7-7.2s9.1,7.3-5.8,13S9403,5832,9407.4,5822.3z"/>
	<path class="st0" d="M9423.6,5482.1c-6.5-26.2,5.8-36.2,17.6-14.8c5.5,9.5,4.1,19.9-1.8,25.7
		C9430.8,5500.8,9427,5497.8,9423.6,5482.1z"/>
	<path class="st0" d="M2382.3,8068c-2.4-6.2,0.3-10.9,5.1-10c5.6,0.5,10.8,4.8,12.6,9.5c1.5,3.9-0.4,8.2-5.1,10
		C2391,8079,2385,8075,2382.3,8068z"/>
	<path class="st0" d="M888.4,8620.1c0.8-4.8,3.2-10.2,5.6-11.1c1.6-0.6,4.6,2.7,6.1,6.6c1.8,4.7-0.9,9.3-5.6,11.1
		C890.6,8628.2,887.8,8625.6,888.4,8620.1z"/>
	<path class="st0" d="M9202.3,5339.6c-10.9-7.4-9.2-33.2,2.5-37.7c6.2-2.4,10.5,4,13,17.4C9222.2,5340,9214.9,5349.1,9202.3,5339.6z
		"/>
	<path class="st0" d="M9117.5,5307.7c-13.7-10-5.5-16.7,10.5-7.6c8.9,4.6,10.7,9.3,6.1,11.1
		C9129.4,5313,9121.7,5311.4,9117.5,5307.7z"/>
	<path class="st0" d="M9049.5,5223.7c-12-7.9-25.7-13.4-30.4-11.6c-18.7,7.2-44.2-5.4-44.1-21.6c-0.1-14.3,2.2-15.2,16.8-10
		c9.4,3.5,25.7,6.3,35.2,5.3c12.1-1.1,24.1,6.9,33.2,21.3C9078.6,5236.6,9075.5,5242.3,9049.5,5223.7z"/>
	<path class="st0" d="M8925.3,5168.4c-7.2-7.1-15-15.7-16.8-20.4s-22.4-21-46.4-36.8c-31.4-21.1-47.8-26.4-62.6-20.7
		c-14,5.4-20.2,3.3-21.5-7c-2.6-11.5,4.8-17.9,28.2-26.9c27.3-10.5,32.1-9.6,40.7,5.8c5.8,10.3,23.4,25.9,38.6,35.3
		c15.5,10.2,30.7,24,33.7,31.8s16.5,19.6,29.8,26.2l23.3,11.7l-16.4,6.3C8946.6,5177.2,8933,5174.4,8925.3,5168.4z"/>
	<path class="st0" d="M1920.6,7856.6c-3.8-3-2.2-8.1,4-10.5s15.5-1.5,19.4,1.5c4.1,3.8,2.2,8.1-4,10.5
		C1933.7,7860.6,1924.7,7860.4,1920.6,7856.6z"/>
	<path class="st0" d="M1790.9,7756.9c-13.2,0.6-26.9-28.2-16-32.4c7-2.7,32,22.6,28,28.6C1802.8,7755,1796.2,7756.6,1790.9,7756.9z"
		/>
	<path class="st0" d="M8709.2,4964.8c-5.2-4.3-8.4-10.2-7-13.4c4.3-9.7,16-2.6,16.3,9.9C8718.7,4971,8717.2,4971.5,8709.2,4964.8z"
		/>
	<path class="st0" d="M8658.5,4926c-0.4-7.9,3.8-15.8,7.7-17.3c10.1-3.9,10.8,16.5,0.6,24.8C8661.9,4937.2,8658.4,4935,8658.5,4926z
		"/>
	<path class="st0" d="M1278.6,7726.1c-5.2-4.3-3.4-15.7,3.8-27.4c14.3-23.4,2.8-36.9-22.9-27c-21.1,8.1-36.8-11.8-61.4-75.8
		c-21.6-56.2,11-62.4,44.8-9.2c8,13.9,23.7,33.9,35.1,44.7c36.9,37.8,42,46.5,36.4,69.3C1309,7726.1,1293.3,7736.6,1278.6,7726.1z"
		/>
	<path class="st0" d="M1407.2,7666.9c-11.6-11.7-12.5-18.5-3.6-32.7c10-18.2,9.7-19-30-38.6c-21.9-10.4-41.3-23.6-42.8-27.5
		c-1.8-4.7-11.8-9.8-22.5-12s-21.9-10.4-24.9-18.2c-3.3-8.6-17.8-18.3-31.7-21.9c-22-5.9-29.8-14.5-50-57.8l-24.8-50.5l25-9.6
		c14-5.4,30.8-15.4,36.8-23.1c8.5-10.4,14.9-10.2,31,1.5c11.2,8.2,23.9,13.2,27.8,11.7c10.9-4.2-4.4-39.5-22.5-54
		c-20-14.7-14.6-24,25.1-41.9c29.1-12.9,35.4-12.7,48.7,1c9.4,8,21.2,13.3,26.7,11.2c12.5-4.8,56.8,14.9,61.6,27.4
		c1.5,3.9,12.4,11.4,24,15.9s24.9,18.2,29.7,30.7c7.8,20.3,11,21.7,29.9,12.7c11.4-5.3,27.9-8.9,36.9-8.8c8.2,0.4,20.7-4.4,26.8-9.4
		c5.8-5.8,15.3-6.8,20.5-2.5c12.9,10.3-13.1,38.2-33.6,36.2c-11.9-0.8-16.5,3.7-18.3,17.8c-3,22.6-14.4,27.9-38.6,18.4
		c-25-9.2-54.8,11.2-56.4,39.6c-1.3,17.5,5.4,25.7,38.9,52.2c22.7,17.2,39.6,33.2,38.9,36.1c-4.8,10.8-50.1,4.9-69-9.3
		c-14.5-9.7-22.2-22.8-24.6-40.7c-3.1-22.1-5.9-24.6-19.9-19.2c-20.3,7.8-21,10.7-3.2,75.6l14.4,56.2l21.4-11.8
		c31.3-16.5,38.7-4.1,11.2,19.9c-12.7,11.2-28.3,24.3-34.1,30.1C1425.2,7678.8,1417.4,7677.3,1407.2,7666.9z M1442.3,7441.2
		c10-13.7-6.8-34.1-21.6-28.4c-14.8,5.7-23.4,32.3-13,40.8C1417.5,7460.6,1431.1,7456.3,1442.3,7441.2z"/>
	<path class="st0" d="M8539,4857.3c-7.6-3.4-15.7-12.8-19-21.4c-5.2-15.9-5.2-15.9,16.5-3.7
		C8569.4,4850.1,8571.4,4871.7,8539,4857.3z"/>
	<path class="st0" d="M1552.5,7509c-34.3-10.1-47.2-24.9-35.1-40.2c9-11.5,42.3,5.2,59,30.2c6.8,10.8,12,19.6,11.2,19.9
		C1586.1,7519.4,1570,7514.9,1552.5,7509z"/>
	<path class="st0" d="M8476.4,4778.3c-8.9-9.1-8.4-10.2,2.1-6.2c7.6,3.4,12.3,8.7,10.9,12S8481.8,4785.2,8476.4,4778.3z"/>
	<path class="st0" d="M8323.2,4794.2c-11.4-18-10.6-18.3,4.5-11.6c12.7,5,15.8,10.9,12,19.6
		C8336.3,4809.7,8331.2,4808.1,8323.2,4794.2z"/>
	<path class="st0" d="M2026.1,7140.1c-2.4-6.2-0.6-13.2,3.3-14.7c4.7-1.8,9.9,2.5,12.3,8.7s1.4,12.9-3.3,14.7
		C2034.5,7150.3,2028.5,7146.3,2026.1,7140.1z"/>
	<path class="st0" d="M1492.1,7295.8c-19.6-6.8-40.2-11.4-44.9-9.6c-4.7,1.8-14.8-6-22.3-18.3c-8.5-12.8-19.1-19.5-26.2-16.8
		c-10.1,3.9-11.5,2.6-5.9-8.5c4.5-11.6,12.3-10.1,39.4,4.6c18.2,10,34.3,21.7,36.1,26.4c1.5,3.9,16.8,8.8,32.5,9.9
		c16.4,0.9,32.8,6.2,36.5,11.1C1548.3,7309.2,1528.8,7309.5,1492.1,7295.8z"/>
	<path class="st0" d="M8017.5,4735.1c-15.1-6.7-20.9-17.1-10.7-21c7-2.7,27.7,16.2,24.8,22.7C8030.7,4739,8024,4738,8017.5,4735.1z"
		/>
	<path class="st0" d="M1859.8,7092c-3.8-3-3.8-7.5,0.1-9c4.7-1.8,10.1,0.6,11.6,4.5c1.8,4.7,1.4,8.4-0.1,9
		C1869.1,7097.4,1864,7095.7,1859.8,7092z"/>
	<path class="st0" d="M3003.5,6572.3c-3.8-3-2.2-8.1,4-10.5s15.5-1.5,19.4,1.5c4.1,3.8,2.2,8.1-4,10.5S3007.7,6576.1,3003.5,6572.3z
		"/>
	<path class="st0" d="M2773.6,6638.2c-8.2-4.9-13.2-11.1-11.8-14.3c4.5-11.6,30.4-7.2,35.2,5.3
		C2802.7,6644,2791.8,6648.2,2773.6,6638.2z"/>
	<path class="st0" d="M1681.6,6977.7c6.2-9.5,15.1-16.6,20.2-14.9c4.8,0.8,3.5,6.7-3.9,13.1
		C1677.4,6994.6,1670.5,6995.4,1681.6,6977.7z"/>
	<path class="st0" d="M2631.8,6574.4c-14.9-8.6-14.5-9.7,1.9-4.3c16.4,5.4,22.7,10.1,16.4,12.5
		C2648.6,6583.2,2640,6579.3,2631.8,6574.4z"/>
	<path class="st0" d="M8153.9,4407c0.8-4.8,3.2-10.2,5.6-11.1c1.6-0.6,4.6,2.7,6.1,6.6c1.8,4.7-0.9,9.3-5.6,11.1
		C8156.1,4415.1,8153.4,4412.5,8153.9,4407z"/>
	<path class="st0" d="M7456,4630.1c-1.5-3.9,0.9-9.3,5.6-11.1c3.9-1.5,7,1.8,6.1,6.6c-0.5,5.6-3.2,10.2-5.6,11.1
		C7460.6,4637.3,7457.8,4634.8,7456,4630.1z"/>
	<path class="st0" d="M1406.8,6926.5c-1.8-4.7,0-11.6,3-15.5c3.8-4.1,8.1-2.2,10.5,4c2.7,7,1.7,13.7-3,15.5
		C1413.4,6932,1408.3,6930.4,1406.8,6926.5z"/>
	<path class="st0" d="M7312.2,4626.2c-3.3-8.6-1.9-11.8,2.9-6.5c4.4,4.6,6.4,11.9,4.9,15.1
		C7318.8,4638.9,7314.7,4635.1,7312.2,4626.2z"/>
	<path class="st0" d="M7369,4613.4c-1.8-4.7-0.6-13.2,2.3-19.7c5.3-11.9-37.6-76.9-68.4-103.6c-8-6.8-10.1-12.2-5.4-14
		c9.4-3.6,61.1,47.3,80.6,79.2c11.4,18,12.6,28.3,4.4,44C7376.3,4611.5,7370.5,4617.3,7369,4613.4z"/>
	<path class="st0" d="M1162,6879c-13-5.8-12.1-15.1,1.1-15.7c7.4,0.7,14.7,3.3,16.2,7.2C1182.6,6879.1,1172,6884.1,1162,6879z"/>
	<path class="st0" d="M7369.2,4469.1c-23.6-19.6-27.8-35-6.2-25.4c9.4,3.5,18.1,14.5,19.6,22.9
		C7384.8,4481.9,7383.7,4481.5,7369.2,4469.1z"/>
	<path class="st0" d="M7415.7,4438.7c-12.1-10.6-24.7-24.6-27.3-31.6c-9.2-21.6-60.2-68.2-71.1-64c-5.5,2.1-12.8,15.7-15.8,31.1
		l-6,26.5l-6.5-33.3c-3.5-18.4-4.9-38.4-3.6-44.3c2.6-7.3-1.7-13.7-11.9-16.9c-12.4-4.2-18.2,1.6-32.6,34
		c-19.2,43.2-21.8,46-28,29.6c-2.4-6.2-0.6-13.2,3.3-14.7c14-5.4-13.6-61-40.2-81.3c-20.3-15.5-29.1-17.5-40.1-8.8
		c-27.3,22.1-40.9,7.7-64.5-70.1c-14.1-43.8-28.1-77.9-37.5-85.9c-17.2-16.7-50.7-57.5-54.3-66.9c-1.5-3.9,7.7-5.6,20.4-5.1
		c12.7,0.5,23.8-1.1,25.2-4.3c1.7-2.5-7-20.6-18.7-39.4c-20-33.5-19.8-63.2,1.1-34.5c4.9,8,16.7,13.3,26.2,12.3s19,5.2,22.6,14.6
		c3.3,8.6,17.3,26.5,30,38.6c21.3,20.5,27.2,21.8,44.4,10.7c27.3-17.6,51.2,2.7,44.2,35.9c-6.5,32,0,46.6,23.2,51.1
		c18.4,3.7,154.5,122.5,161.7,141.2c1.8,4.7,0.2,9.8-4.5,11.6c-3.9,1.5-9-0.1-10.8-4.8c-1.5-3.9-10-5.1-18.6-1.8
		c-13.3,5.1-13.5,11.5-3.6,37.2c8.4,21.9,16.5,31.3,29.5,32.5c9.6,1.7,26,14.2,37,28.8c10.2,14.9,28.4,36.6,38.9,47.7
		C7455.4,4444.1,7446.4,4462.8,7415.7,4438.7z M7302.4,4255.7c6.3-18.5-16.7-52.7-32.3-46.7c-6.2,2.4-12.5-2.3-14.5-9.7
		c-7.8-27.4-13.1-31.7-39.8-31.3c-37.8,2-38.2,26.3-0.9,39.7c13.4,4.7,25.7,13.4,26,18.7c0.3,12.4,40.6,49.8,50,46.2
		C7294.9,4271.1,7300.1,4263.7,7302.4,4255.7z M7110.3,4207.7c-6.3-4.7-11-2.9-13.9,3.5s-0.7,14.6,4.2,18.1c6.3,4.7,11,2.9,13.9-3.5
		C7117.4,4219.2,7115.2,4211.1,7110.3,4207.7z"/>
	<path class="st0" d="M7220.3,4470.8c-0.7-8.7-7.7-17.7-15.2-21c-17.2-5.1-27.3-47.7-11.3-45.8c5.6,0.5,17.2,0.6,25.1,0.2
		c25.6-0.9,33.3,70.5,8.7,80.9C7223.6,4486.5,7220.4,4480.6,7220.3,4470.8z"/>
	<path class="st0" d="M7286.8,4431.8c0.3-18,17.8-32.8,22.9-19.6c2.4,6.2-0.4,15.4-6.5,20.4
		C7288.8,4446.3,7286.9,4446.1,7286.8,4431.8z"/>
	<path class="st0" d="M910.5,6811.7c-3.8-3-4.6-7.2,0.1-9c3.9-1.5,11.6,0,15.5,3c4.1,3.8,4.6,7.2-0.1,9
		C922.1,6816.2,914.6,6815.5,910.5,6811.7z"/>
	<path class="st0" d="M826.2,6825.3c-12.3-8.7-5.1-20.4,8.9-14.2c7.6,3.4,9.4,8,5.9,13C837.1,6828.2,830.3,6829,826.2,6825.3z"/>
	<path class="st0" d="M7130.9,4389.6c-6.6-17.2-6.5-26.2,0.4-27c15.8-0.7,22.2,11.2,15.2,32.7
		C7141.2,4414.3,7140.9,4413.5,7130.9,4389.6z"/>
	<path class="st0" d="M864.3,6796.3c-1.5-3.9-1.4-12.9,0.9-20.9c3.2-17.3,17.4-13,17.8,6.6C882.8,6795.5,868.2,6806.4,864.3,6796.3z
		"/>
	<path class="st0" d="M767.8,6799.3c-5.6-12.2-8.7-29.8-6.5-37.8c4.7-25.1,13.3-9.6,14.4,25.8
		C776.5,6821.9,776.5,6821.9,767.8,6799.3z"/>
	<path class="st0" d="M6945.4,4396.3c10.9-15.8,19.5-19.1,23.4-9c1.8,4.7-4.8,10.8-14.2,14.4
		C6939.8,4407.4,6938.4,4406.2,6945.4,4396.3z"/>
	<path class="st0" d="M748.5,6739.6c-3.8-3-3.8-7.5,0.1-9c4.7-1.8,10.1,0.6,11.6,4.5c1.8,4.7,1.4,8.4-0.1,9
		C757.7,6745,752.6,6743.4,748.5,6739.6z"/>
	<path class="st0" d="M7039.9,4309c-6.8,0.8-16.7-13.3-23.3-30.4c-6.6-17.2-8.3-30.9-3.5-30c4.8,0.8,10.3,10.4,11.2,19.9
		c1.1,12.1,7.5,19.5,17.9,20.9C7069.7,4293.1,7067.2,4310.1,7039.9,4309z"/>
	<path class="st0" d="M532.5,6750.8c-14.2-4.4-19.7-9.4-14.6-12.3c14.8-5.7,46.3-0.8,49.6,7.8
		C572.3,6758.8,558.6,6760.5,532.5,6750.8z"/>
	<path class="st0" d="M603.6,6723.6c-3.3-8.6-2.1-17.1,1.8-18.6c4.7-1.8,10.5,4,13.8,12.6s2.9,16.8-1.8,18.6
		C613.4,6737.7,606.9,6732.2,603.6,6723.6z"/>
	<path class="st0" d="M7011.9,4203.3c-11.6-4.5-40.1-85.8-31.5-89.1c4.7-1.8,15.9,18.1,25.8,43.8
		C7024.5,4205.7,7024.9,4209.1,7011.9,4203.3z"/>
	<path class="st0" d="M483.2,6690.1c-2.7-7,11.7-23.3,24.9-28.4c3.1-1.2,9.9,2.5,15.4,7.5c6.4,7.4,2.9,12.3-14.2,18.9
		C496.1,6693.2,484.7,6694,483.2,6690.1z"/>
	<path class="st0" d="M1443.8,6311.5c-3.8-3-3.8-7.5,0.1-9c4.7-1.8,10.1,0.6,11.6,4.5c1.8,4.7,1.4,8.4-0.1,9
		C1453,6316.9,1447.9,6315.2,1443.8,6311.5z"/>
	<path class="st0" d="M410.3,6663.4c-3.9-10.1-2.1-17.1,5.1-17.2c5.3-0.2,12.4,4.2,14.5,9.7s-0.2,13.5-4,17.6
		C420.2,6677.5,414.2,6673.6,410.3,6663.4z"/>
	<path class="st0" d="M6900.6,4181.6c-10.7-2.2-11.3-3.7-2.6-11.5c6.6-6.1,12.2-5.6,14.9,1.4
		C6917.9,4184.8,6917.2,4185.1,6900.6,4181.6z"/>
	<path class="st0" d="M1362.3,6288.1l-21.4-11.5l30.8,3.4c31.9,3.9,39,8.3,22.6,14.6C1388.1,6297,1374.2,6293.4,1362.3,6288.1z"/>
	<path class="st0" d="M281.7,6668.9c-16-1.9-36.8-11.8-46.3-22.5c-11.2-12.7-20.6-16.3-27.2-10.2c-5.8,5.8-13.4,2.5-21.3-8.8
		c-7.6-10.5-18.1-14.5-27.5-10.9c-11.7,4.5-17.7,0.5-23.1-13.5c-6-15.6-12.8-19.3-32.7-15.2c-13.7,1.7-26.4,1.2-27.9-2.7
		c-1.5-3.9-10.5-4-19.9-0.4c-10.1,3.9-27.8-0.1-39.5-7.2c-21.5-14.1-21.5-14.1-2-21.6c11.7-4.5,26.9-2.3,35.6,4.2s20,10.2,24.7,8.4
		c4.7-1.8,14.3-0.1,21.1,3.6c6.8,3.7,43,9.4,80.5,13.9s86.1,14.4,107.9,22.2c34.7,13.5,38.9,17.3,39,38.7
		C323.4,6672.6,322.2,6674,281.7,6668.9z"/>
	<path class="st0" d="M1168.9,6318.5c-3.8-3-2.2-8.1,4-10.5c7-2.7,14-0.9,15.5,3c1.8,4.7-0.1,9-4,10.5
		C1179.7,6323.3,1173,6322.3,1168.9,6318.5z"/>
	<path class="st0" d="M7922.1,3728.5c-4-1.1-8.8-6.5-10.6-11.2c-1.8-4.7,2.4-5.4,10-2c6.5,2.9,11.2,8.2,10.6,11.2
		C7930.6,3729.8,7925.6,3730.8,7922.1,3728.5z"/>
	<path class="st0" d="M1239.3,6259.2c-12.8-7.6-12.3-8.7,5-12.7c10.4-3.1,22.2-0.5,26.6,4.1
		C1279.9,6262.4,1257.4,6269.3,1239.3,6259.2z"/>
	<path class="st0" d="M6735.5,4129.5c-3-7.8-3.5-18.4-1.1-23.8c2.9-6.5-1-28.3-7.8-50.7c-11.4-36.8-11.3-38.7,4.1-26.6
		c13.5,11.8,16.5,19.6,15.3,46.9c-0.3,18,1.8,39.6,4.8,47.4c3.3,8.6,2.6,16-2.1,17.8C6744.8,4142,6738.5,4137.3,6735.5,4129.5z"/>
	<path class="st0" d="M1156.6,6251.6c-38.3-15.7-41.3-30.7-6-34.4c14.8-1.2,24.5,3.1,25.9,11.5c1.6,6.5,13.1,15.6,24.9,18.2
		c22,5.9,22,5.9,5.6,12.2C1198.4,6262.4,1175.8,6259.4,1156.6,6251.6z"/>
	<path class="st0" d="M6797,4103.2c-1.5-3.9,1.8-7,6.6-6.1c5.6,0.5,10.2,3.2,11.1,5.6c0.6,1.6-1.9,4.3-6.6,6.1
		C6804.2,4110.2,6798.8,4107.8,6797,4103.2z"/>
	<path class="st0" d="M6929.1,4027.4c-1.5-3.9,0-11.6,3-15.5c3.8-4.1,7.2-4.6,9,0.1c1.5,3.9,0.8,11.3-3,15.5
		C6935.1,4031.3,6930.9,4032.1,6929.1,4027.4z"/>
	<path class="st0" d="M6838.5,4055c-8.6-3.8-31.9-62.1-26.4-64.2c8.6-3.3,43.3,14.7,54.4,27.5
		C6881.4,4035.9,6859.4,4064.9,6838.5,4055z"/>
	<path class="st0" d="M7761.1,3684.7c0.7-7.4,4.2-12.4,9-11.5c10.4,1.4,8.8,18.1-1.4,22C7764.8,3696.7,7761.1,3691.8,7761.1,3684.7z
		"/>
	<path class="st0" d="M6868.4,3983.5c-10-5.1-11.8-9.8-7.1-16.1c7.7-10.1,37-1.7,34.3,10.1
		C6893.3,3990.1,6883.4,3992.1,6868.4,3983.5z"/>
	<path class="st0" d="M975.8,6207.3c-10.5-4-13.9-15.3-5.3-18.5c3.9-1.5,10.7,2.2,16.2,7.2C995,6206.1,988.7,6213,975.8,6207.3z"/>
	<path class="st0" d="M146.6,6513c-1.5-3.9,1.8-7,6.6-6.1c5.6,0.5,10.2,3.2,11.1,5.6c0.6,1.6-1.9,4.3-6.6,6.1
		C153.8,6520.1,148.4,6517.7,146.6,6513z"/>
	<path class="st0" d="M6822.5,3945.6c-5-6.1-11.6-16.2-14.3-23.2c-3.7-12-1.9-11.8,12.3-2.9c19.9,12.1,29.4,29.9,18.5,34.1
		C6835.1,3955.1,6827.6,3951.7,6822.5,3945.6z"/>
	<path class="st0" d="M7045.6,3861.8c-16-9.1-15.9-53-0.3-59c16.4-6.3,40,17.8,28,28.6c-5.3,4.7-8.1,13.9-5.4,20.9
		C7073.6,3867.1,7062.7,3871.3,7045.6,3861.8z"/>
	<path class="st0" d="M215.1,6469.8c-3.8-3-3.8-7.5,0.1-9c4.7-1.8,10.1,0.6,11.6,4.5c1.8,4.7,1.4,8.4-0.1,9
		C224.3,6475.2,219.2,6473.5,215.1,6469.8z"/>
	<path class="st0" d="M898.9,6198.3c-11.1-5.6-27.8-7.2-37.2-3.6c-22.6,8.7-62.5-18.1-54.8-35.4c4.3-9.7,8.3-8.6,17.3,3.2
		c7.6,10.5,20,14.7,35.2,12.4c13.4-2.5,26.2,0.7,28.3,6.1c2.4,6.2,12,7.9,23.7,3.4c12.5-4.8,21.3-2.8,24,4.2
		C941.8,6205.1,922.5,6210.7,898.9,6198.3z"/>
	<path class="st0" d="M4751.3,4717.5c-7.6-3.4-14.8-10.5-16.6-15.1c-2.1-5.5-17.2-16.7-33.2-25.8c-17.1-9.6-30.1-22.5-29.7-30.7
		c0-23.3,88.7,30.4,100.1,60.1C4777.6,4720.8,4769.6,4725.7,4751.3,4717.5z"/>
	<path class="st0" d="M730.7,6231.5c-15.9-18.1-4.3-25.2,21.3-14.5l23,10.9l-17.2,6.6C748.5,6238.1,736.3,6236.5,730.7,6231.5z"/>
	<path class="st0" d="M6622.8,3964.1c-4.9-3.5-7.8-8.6-6.4-11.9c3.4-7.6,22.9-3.4,26.5,6C6646.5,3967.5,6633.2,3972.6,6622.8,3964.1
		z"/>
	<path class="st0" d="M220.5,6413.9c-3.8-3-4.6-7.2,0.1-9c3.9-1.5,11.6,0,15.5,3c4.1,3.8,4.6,7.2-0.1,9
		C232.1,6418.4,224.7,6417.7,220.5,6413.9z"/>
	<path class="st0" d="M6683.7,3917.4c-1.9-11.8-6.9-17.9-11.9-16.9c-5.5,2.1-20.1,5.9-32.1,9.6c-12.8,4-27.4,3.3-33.4-0.6
		c-5.5-5-30.4-4.5-55.3,0.6c-132.4,28.4-144.8,28.7-144.7,0.9c-0.4-7.9,5.8-17.5,13.6-20.5c8.6-3.3,15.7-10.5,16.2-16.1
		c1.6-5.1,9.6-17.1,19-25.2c14-12.5,15.3-18.4,3.9-36.4c-10.8-16.5-10.5-22.8-0.3-31.2c17.9-14,9.8-35.1-10.5-27.3
		c-19.5,7.5-21.9,1.2-11.4-29.7c7.5-22.6,9-23.2,36.9-20.4c16,1.9,35.1,9.8,41.8,18c7.5,7.9,30.9,22.2,52.2,31
		c22.1,8.5,53.6,27.8,71.5,41.5c17,14.1,39.1,27.1,48.4,28c8.5,1.2,14,6.3,12.1,10.6s-10.1,3.9-18-0.3c-7.4-5.2-26.8-6.7-41.2-4.8
		c-21.8,3.9-26.7,7.5-23.1,16.9c2.7,7,15.5,14.7,28,17c26.5,6,54.6,44.4,46.2,62C6687,3933.2,6685.3,3931.1,6683.7,3917.4z
		 M6485.9,3880.5c-1.4-8.4-7.4-12.4-13.7-10c-14,5.4-23.2,30.4-13.2,35.5C6472,3911.9,6489.3,3896.3,6485.9,3880.5z M6540.9,3860.3
		c-10.1-12.2-28.1-8-23.1,5.3c2.7,7,10.3,10.4,17.3,7.7S6544.5,3865.2,6540.9,3860.3z M6619.9,3804.9c-3.3-8.6-11.5-13.5-17.7-11.1
		c-11.7,4.5-10.1,22.7,3.6,28.2C6619.1,3828.5,6625.9,3820.5,6619.9,3804.9z M6565.3,3779.3c-3.9-10.1-47.8-33.6-57.2-30
		c-11.7,4.5-4.6,27.7,12.3,39.1C6539.5,3800.9,6571.3,3794.9,6565.3,3779.3z"/>
	<path class="st0" d="M637.2,6204.7c-2.7-7,1.1-11.2,9-11.5c7.4,0.7,14.7,3.3,16.2,7.2c1.5,3.9-2.8,9.1-9,11.5
		S639.6,6211,637.2,6204.7z"/>
	<path class="st0" d="M6727,3862.3c-3.8-3-3.8-7.5,0.1-9c4.7-1.8,10.1,0.6,11.6,4.5c1.8,4.7,1.4,8.4-0.1,9
		C6736.2,3867.7,6731.1,3866.1,6727,3862.3z"/>
	<path class="st0" d="M534.6,6182.3c-6.9-18-6.1-18.2,10.6-12.1c18.8,7.1,22.4,21,6,27.3C545.7,6199.6,538.5,6192.5,534.6,6182.3z"
		/>
	<path class="st0" d="M4626.1,4606.2c-3.3-8.6-4.4-16.2-2.9-16.8c1.6-0.6,7.4,5.2,13,12.9c5.6,7.7,6.8,15.3,2.9,16.8
		C4635.3,4620.6,4629.4,4614.7,4626.1,4606.2z"/>
	<path class="st0" d="M460.2,6151.8c-3.8-3-4.6-7.2,0.1-9c3.9-1.5,11.6,0,15.5,3c4.1,3.8,4.6,7.2-0.1,9
		C471.7,6156.3,464.3,6155.6,460.2,6151.8z"/>
	<path class="st0" d="M166,6202c-3.8-3-4.6-7.2,0.1-9c3.9-1.5,11.6,0,15.5,3c4.1,3.8,4.6,7.2-0.1,9
		C177.6,6206.5,170.2,6205.8,166,6202z"/>
	<path class="st0" d="M6671.2,3698.4c-6.1,0.5-14-6.3-17.3-14.8c-3.3-8.6-20-21.9-38.1-29.3c-17.3-7.7-33.6-17.5-35.4-22.2
		c-1.5-3.9-8.5-5.7-14.7-3.3s-9,11.5-5.7,20.1s3.7,16.5,1.3,17.4c-10.1,3.9-105.7-32.8-109-41.4c-3.1-10.4,37.7-74.5,50.2-79.3
		c3.9-1.5,8-9.4,9.3-17.9c3.8-27.4,37.5-14.4,64.9,24.3c20.7,30.6,27.5,34.2,61.1,35.6c32.6,0.9,36.1,3.1,22.2,11.2
		c-19.6,12-18.9,16.2,8.9,44.1c10.9,12,20.9,28.7,22.3,37.1C6693.1,3697.1,6690.3,3699.1,6671.2,3698.4z M6559.3,3563.1
		c-2.3-22.4-18.6-32.2-38.9-24.5c-10.1,3.9,1.2,45.2,14.2,51C6550,3597.2,6562.1,3584.4,6559.3,3563.1z"/>
	<path class="st0" d="M310.7,6124.1c-18.2-10-5.7-14.8,20.3-7.8c16.1,4.6,16.7,6.1,6.8,10.8C330.8,6129.8,318.6,6128.2,310.7,6124.1
		z"/>
	<path class="st0" d="M100.4,6196.8c-10.2-3.2-17.6-8.5-16.1-11.7s11.8-1.9,22.9,3.7C130.5,6200.5,128.3,6204,100.4,6196.8z"/>
	<path class="st0" d="M6698.6,3566.9c-1.2-3.1,1.5-7.7,5.4-9.2c4.7-1.8,8.1-13.9,8.3-27.4c0.1-27.8,20.4-23.9,26.5,6
		c3.5,13.9-0.9,20.9-16.2,27.7C6710.1,3568.8,6699.8,3570.1,6698.6,3566.9z"/>
	<path class="st0" d="M4115.8,4396.4c-2.1-5.5,1.6-16.7,8.1-25.5c13.8-17.8,18.8-11.7,11,14.6
		C4128.4,4405.9,4121.2,4410.5,4115.8,4396.4z"/>
	<path class="st0" d="M6456.8,3489.7c-19-9.7-19.6-11.3-5.4-37.3c8.3-15.7,24.8-31,38.1-36.1c26.5-10.2,25.8-9.9,24.9,29.8
		C6513.4,3483.2,6485.7,3504.5,6456.8,3489.7z"/>
</g>
</svg>
